<?xml version="1.0" encoding="UTF-8" standalone="no"?>
<!DOCTYPE svg PUBLIC "-//W3C//DTD SVG 1.1//EN"
 "http://www.w3.org/Graphics/SVG/1.1/DTD/svg11.dtd">
<!-- Generated by graphviz version 2.49.3 (20211023.0002)
 -->
<!-- Title: inheritancee6fdc17545 Pages: 1 -->
<svg width="759pt" height="83pt"
 viewBox="0.00 0.00 759.00 83.00" xmlns="http://www.w3.org/2000/svg" xmlns:xlink="http://www.w3.org/1999/xlink">
<g id="graph0" class="graph" transform="scale(1 1) rotate(0) translate(4 79)">
<title>inheritancee6fdc17545</title>
<!-- ABC -->
<g id="node1" class="node">
<title>ABC</title>
<g id="a_node1"><a xlink:title="Helper class that provides a standard way to create an ABC using">
<polygon fill="white" stroke="black" stroke-width="0.5" points="54,-75 0,-75 0,-56 54,-56 54,-75"/>
<text text-anchor="middle" x="27" y="-63" font-family="Vera Sans, DejaVu Sans, Liberation Sans, Arial, Helvetica, sans" font-size="10.00">ABC</text>
</a>
</g>
</g>
<!-- AbstractContextManager -->
<g id="node2" class="node">
<title>AbstractContextManager</title>
<g id="a_node2"><a xlink:title="An abstract base class for context managers.">
<polygon fill="white" stroke="black" stroke-width="0.5" points="217,-75 90,-75 90,-56 217,-56 217,-75"/>
<text text-anchor="middle" x="153.5" y="-63" font-family="Vera Sans, DejaVu Sans, Liberation Sans, Arial, Helvetica, sans" font-size="10.00">AbstractContextManager</text>
</a>
</g>
</g>
<!-- ABC&#45;&gt;AbstractContextManager -->
<g id="edge1" class="edge">
<title>ABC&#45;&gt;AbstractContextManager</title>
<path fill="none" stroke="black" stroke-width="0.5" d="M54.1,-65.5C63.19,-65.5 73.85,-65.5 84.74,-65.5"/>
<polygon fill="black" stroke="black" stroke-width="0.5" points="84.76,-67.25 89.76,-65.5 84.76,-63.75 84.76,-67.25"/>
</g>
<!-- ExitStack -->
<g id="node4" class="node">
<title>ExitStack</title>
<g id="a_node4"><a xlink:title="Context manager for dynamic management of a stack of exit callbacks.">
<polygon fill="white" stroke="black" stroke-width="0.5" points="311,-56 253,-56 253,-37 311,-37 311,-56"/>
<text text-anchor="middle" x="282" y="-44" font-family="Vera Sans, DejaVu Sans, Liberation Sans, Arial, Helvetica, sans" font-size="10.00">ExitStack</text>
</a>
</g>
</g>
<!-- AbstractContextManager&#45;&gt;ExitStack -->
<g id="edge4" class="edge">
<title>AbstractContextManager&#45;&gt;ExitStack</title>
<path fill="none" stroke="black" stroke-width="0.5" d="M217.01,-56.11C227.62,-54.52 238.25,-52.92 247.73,-51.5"/>
<polygon fill="black" stroke="black" stroke-width="0.5" points="248.17,-53.2 252.86,-50.73 247.65,-49.74 248.17,-53.2"/>
</g>
<!-- DataFileIO -->
<g id="node3" class="node">
<title>DataFileIO</title>
<g id="a_node3"><a xlink:title="A base class to help access data file contents.">
<polygon fill="white" stroke="black" stroke-width="0.5" points="463.5,-56 399.5,-56 399.5,-37 463.5,-37 463.5,-56"/>
<text text-anchor="middle" x="431.5" y="-44" font-family="Vera Sans, DejaVu Sans, Liberation Sans, Arial, Helvetica, sans" font-size="10.00">DataFileIO</text>
</a>
</g>
</g>
<!-- TableIO -->
<g id="node7" class="node">
<title>TableIO</title>
<g id="a_node7"><a xlink:title="A class to read tables.">
<polygon fill="white" stroke="black" stroke-width="0.5" points="606.5,-56 552.5,-56 552.5,-37 606.5,-37 606.5,-56"/>
<text text-anchor="middle" x="579.5" y="-44" font-family="Vera Sans, DejaVu Sans, Liberation Sans, Arial, Helvetica, sans" font-size="10.00">TableIO</text>
</a>
</g>
</g>
<!-- DataFileIO&#45;&gt;TableIO -->
<g id="edge8" class="edge">
<title>DataFileIO&#45;&gt;TableIO</title>
<path fill="none" stroke="black" stroke-width="0.5" d="M463.82,-46.5C488.38,-46.5 522.41,-46.5 547.02,-46.5"/>
<polygon fill="black" stroke="black" stroke-width="0.5" points="547.12,-48.25 552.12,-46.5 547.12,-44.75 547.12,-48.25"/>
</g>
<!-- NcFileIO -->
<g id="node8" class="node">
<title>NcFileIO</title>
<g id="a_node8"><a xlink:href="../api/tolteca.datamodels.io.NcFileIO.html#tolteca.datamodels.io.NcFileIO" xlink:title="A class to read data from TolTEC netCDF files." target="_top">
<polygon fill="white" stroke="black" stroke-width="0.5" points="607,-19 552,-19 552,0 607,0 607,-19"/>
<text text-anchor="middle" x="579.5" y="-7" font-family="Vera Sans, DejaVu Sans, Liberation Sans, Arial, Helvetica, sans" font-size="10.00">NcFileIO</text>
</a>
</g>
</g>
<!-- DataFileIO&#45;&gt;NcFileIO -->
<g id="edge6" class="edge">
<title>DataFileIO&#45;&gt;NcFileIO</title>
<path fill="none" stroke="black" stroke-width="0.5" d="M463.57,-40.44C479.35,-37.2 498.77,-32.97 516,-28.5 526.1,-25.88 537,-22.69 546.84,-19.68"/>
<polygon fill="black" stroke="black" stroke-width="0.5" points="547.61,-21.27 551.87,-18.13 546.58,-17.93 547.61,-21.27"/>
</g>
<!-- ExitStack&#45;&gt;DataFileIO -->
<g id="edge2" class="edge">
<title>ExitStack&#45;&gt;DataFileIO</title>
<path fill="none" stroke="black" stroke-width="0.5" d="M311.09,-46.5C334.76,-46.5 368.76,-46.5 394.44,-46.5"/>
<polygon fill="black" stroke="black" stroke-width="0.5" points="394.45,-48.25 399.45,-46.5 394.45,-44.75 394.45,-48.25"/>
</g>
<!-- _BaseExitStack -->
<g id="node5" class="node">
<title>_BaseExitStack</title>
<g id="a_node5"><a xlink:title="A base class for ExitStack and AsyncExitStack.">
<polygon fill="white" stroke="black" stroke-width="0.5" points="197,-38 110,-38 110,-19 197,-19 197,-38"/>
<text text-anchor="middle" x="153.5" y="-26" font-family="Vera Sans, DejaVu Sans, Liberation Sans, Arial, Helvetica, sans" font-size="10.00">_BaseExitStack</text>
</a>
</g>
</g>
<!-- _BaseExitStack&#45;&gt;ExitStack -->
<g id="edge3" class="edge">
<title>_BaseExitStack&#45;&gt;ExitStack</title>
<path fill="none" stroke="black" stroke-width="0.5" d="M197.33,-34.59C213.81,-36.94 232.37,-39.58 247.82,-41.78"/>
<polygon fill="black" stroke="black" stroke-width="0.5" points="247.73,-43.53 252.93,-42.51 248.22,-40.07 247.73,-43.53"/>
</g>
<!-- KidsModelParamsIO -->
<g id="node6" class="node">
<title>KidsModelParamsIO</title>
<g id="a_node6"><a xlink:href="../api/tolteca.datamodels.io.KidsModelParamsIO.html#tolteca.datamodels.io.KidsModelParamsIO" xlink:title="&quot;A class to read KIDs model parameters." target="_top">
<polygon fill="white" stroke="black" stroke-width="0.5" points="751,-56 643,-56 643,-37 751,-37 751,-56"/>
<text text-anchor="middle" x="697" y="-44" font-family="Vera Sans, DejaVu Sans, Liberation Sans, Arial, Helvetica, sans" font-size="10.00">KidsModelParamsIO</text>
</a>
</g>
</g>
<!-- TableIO&#45;&gt;KidsModelParamsIO -->
<g id="edge5" class="edge">
<title>TableIO&#45;&gt;KidsModelParamsIO</title>
<path fill="none" stroke="black" stroke-width="0.5" d="M606.71,-46.5C616.06,-46.5 627,-46.5 637.96,-46.5"/>
<polygon fill="black" stroke="black" stroke-width="0.5" points="637.99,-48.25 642.99,-46.5 637.99,-44.75 637.99,-48.25"/>
</g>
<!-- _NcFileIOKidsDataAxisSlicerMixin -->
<g id="node9" class="node">
<title>_NcFileIOKidsDataAxisSlicerMixin</title>
<g id="a_node9"><a xlink:title="A helper class to enable slicer interface to `NcFileIO`.">
<polygon fill="white" stroke="black" stroke-width="0.5" points="516,-19 347,-19 347,0 516,0 516,-19"/>
<text text-anchor="middle" x="431.5" y="-7" font-family="Vera Sans, DejaVu Sans, Liberation Sans, Arial, Helvetica, sans" font-size="10.00">_NcFileIOKidsDataAxisSlicerMixin</text>
</a>
</g>
</g>
<!-- _NcFileIOKidsDataAxisSlicerMixin&#45;&gt;NcFileIO -->
<g id="edge7" class="edge">
<title>_NcFileIOKidsDataAxisSlicerMixin&#45;&gt;NcFileIO</title>
<path fill="none" stroke="black" stroke-width="0.5" d="M516.16,-9.5C526.92,-9.5 537.36,-9.5 546.53,-9.5"/>
<polygon fill="black" stroke="black" stroke-width="0.5" points="546.77,-11.25 551.77,-9.5 546.77,-7.75 546.77,-11.25"/>
</g>
</g>
</svg>
