<?xml version="1.0" encoding="UTF-8" standalone="no"?>
<!DOCTYPE svg PUBLIC "-//W3C//DTD SVG 1.1//EN"
 "http://www.w3.org/Graphics/SVG/1.1/DTD/svg11.dtd">
<!-- Generated by graphviz version 2.47.2 (20210527.0053)
 -->
<!-- Title: inheritance0f3eae9d59 Pages: 1 -->
<svg width="405pt" height="64pt"
 viewBox="0.00 0.00 405.00 64.00" xmlns="http://www.w3.org/2000/svg" xmlns:xlink="http://www.w3.org/1999/xlink">
<g id="graph0" class="graph" transform="scale(1 1) rotate(0) translate(4 60)">
<title>inheritance0f3eae9d59</title>
<!-- ArrayProjModel -->
<g id="node1" class="node">
<title>ArrayProjModel</title>
<g id="a_node1"><a xlink:href="../../api/tolteca.simu.toltec.ArrayProjModel.html#tolteca.simu.toltec.ArrayProjModel" xlink:title="A model that transforms the TolTEC detector locations per array to" target="_top">
<polygon fill="white" stroke="black" stroke-width="0.5" points="397,-37 314,-37 314,-18 397,-18 397,-37"/>
<text text-anchor="middle" x="355.5" y="-25" font-family="Vera Sans, DejaVu Sans, Liberation Sans, Arial, Helvetica, sans" font-size="10.00">ArrayProjModel</text>
</a>
</g>
</g>
<!-- ProjModel -->
<g id="node2" class="node">
<title>ProjModel</title>
<g id="a_node2"><a xlink:title="Base class for models that transform the detector locations.">
<polygon fill="white" stroke="black" stroke-width="0.5" points="278,-37 218,-37 218,-18 278,-18 278,-37"/>
<text text-anchor="middle" x="248" y="-25" font-family="Vera Sans, DejaVu Sans, Liberation Sans, Arial, Helvetica, sans" font-size="10.00">ProjModel</text>
</a>
</g>
</g>
<!-- ProjModel&#45;&gt;ArrayProjModel -->
<g id="edge1" class="edge">
<title>ProjModel&#45;&gt;ArrayProjModel</title>
<path fill="none" stroke="black" stroke-width="0.5" d="M278.11,-27.5C287.54,-27.5 298.25,-27.5 308.6,-27.5"/>
<polygon fill="black" stroke="black" stroke-width="0.5" points="308.64,-29.25 313.64,-27.5 308.64,-25.75 308.64,-29.25"/>
</g>
<!-- Model -->
<g id="node3" class="node">
<title>Model</title>
<g id="a_node3"><a xlink:title="Base class for all models.">
<polygon fill="white" stroke="black" stroke-width="0.5" points="73,-56 19,-56 19,-37 73,-37 73,-56"/>
<text text-anchor="middle" x="46" y="-44" font-family="Vera Sans, DejaVu Sans, Liberation Sans, Arial, Helvetica, sans" font-size="10.00">Model</text>
</a>
</g>
</g>
<!-- _Model -->
<g id="node5" class="node">
<title>_Model</title>
<polygon fill="white" stroke="black" stroke-width="0.5" points="182,-37 128,-37 128,-18 182,-18 182,-37"/>
<text text-anchor="middle" x="155" y="-25" font-family="Vera Sans, DejaVu Sans, Liberation Sans, Arial, Helvetica, sans" font-size="10.00">_Model</text>
</g>
<!-- Model&#45;&gt;_Model -->
<g id="edge3" class="edge">
<title>Model&#45;&gt;_Model</title>
<path fill="none" stroke="black" stroke-width="0.5" d="M73.18,-41.85C88.07,-39.21 106.83,-35.88 122.53,-33.09"/>
<polygon fill="black" stroke="black" stroke-width="0.5" points="123.11,-34.76 127.72,-32.17 122.5,-31.32 123.11,-34.76"/>
</g>
<!-- NamespaceMixin -->
<g id="node4" class="node">
<title>NamespaceMixin</title>
<g id="a_node4"><a xlink:title="A mixin class that allows converting object to and from dict.">
<polygon fill="white" stroke="black" stroke-width="0.5" points="92,-19 0,-19 0,0 92,0 92,-19"/>
<text text-anchor="middle" x="46" y="-7" font-family="Vera Sans, DejaVu Sans, Liberation Sans, Arial, Helvetica, sans" font-size="10.00">NamespaceMixin</text>
</a>
</g>
</g>
<!-- NamespaceMixin&#45;&gt;_Model -->
<g id="edge4" class="edge">
<title>NamespaceMixin&#45;&gt;_Model</title>
<path fill="none" stroke="black" stroke-width="0.5" d="M92.07,-17.08C102.38,-18.82 113.12,-20.62 122.71,-22.24"/>
<polygon fill="black" stroke="black" stroke-width="0.5" points="122.68,-24.01 127.9,-23.11 123.26,-20.55 122.68,-24.01"/>
</g>
<!-- _Model&#45;&gt;ProjModel -->
<g id="edge2" class="edge">
<title>_Model&#45;&gt;ProjModel</title>
<path fill="none" stroke="black" stroke-width="0.5" d="M182.32,-27.5C191.8,-27.5 202.63,-27.5 212.69,-27.5"/>
<polygon fill="black" stroke="black" stroke-width="0.5" points="212.87,-29.25 217.87,-27.5 212.87,-25.75 212.87,-29.25"/>
</g>
</g>
</svg>
