<?xml version="1.0" encoding="UTF-8" standalone="no"?>
<!DOCTYPE svg PUBLIC "-//W3C//DTD SVG 1.1//EN"
 "http://www.w3.org/Graphics/SVG/1.1/DTD/svg11.dtd">
<!-- Generated by graphviz version 2.43.0 (0)
 -->
<!-- Title: inheritancede34af50e5 Pages: 1 -->
<svg width="864pt" height="602pt"
 viewBox="0.00 0.00 863.94 602.00" xmlns="http://www.w3.org/2000/svg" xmlns:xlink="http://www.w3.org/1999/xlink">
<g id="graph0" class="graph" transform="scale(1 1) rotate(0) translate(4 598)">
<title>inheritancede34af50e5</title>
<polygon fill="white" stroke="transparent" points="-4,4 -4,-598 859.94,-598 859.94,4 -4,4"/>
<!-- InstrumentalDetune -->
<g id="node1" class="node">
<title>InstrumentalDetune</title>
<g id="a_node1"><a xlink:href="../../api/tolteca.kidsutils.kidsmodel.InstrumentalDetune.html#tolteca.kidsutils.kidsmodel.InstrumentalDetune" xlink:title="Model that describes the detuning in terms of the probe tone and" target="_top">
<polygon fill="none" stroke="black" stroke-width="0.5" points="433.25,-234 329.71,-234 329.71,-216 433.25,-216 433.25,-234"/>
<text text-anchor="middle" x="381.48" y="-222" font-family="Vera Sans, DejaVu Sans, Liberation Sans, Arial, Helvetica, sans" font-size="10.00">InstrumentalDetune</text>
</a>
</g>
</g>
<!-- _Model -->
<g id="node2" class="node">
<title>_Model</title>
<g id="a_node2"><a xlink:title="Subclass of astropy.modeling.Model that support complex type.">
<polygon fill="none" stroke="black" stroke-width="0.5" points="202.9,-234 148.9,-234 148.9,-216 202.9,-216 202.9,-234"/>
<text text-anchor="middle" x="175.9" y="-222" font-family="Vera Sans, DejaVu Sans, Liberation Sans, Arial, Helvetica, sans" font-size="10.00">_Model</text>
</a>
</g>
</g>
<!-- _Model&#45;&gt;InstrumentalDetune -->
<g id="edge1" class="edge">
<title>_Model&#45;&gt;InstrumentalDetune</title>
<path fill="none" stroke="black" stroke-width="0.5" d="M203.1,-225C233.62,-225 284.92,-225 324.53,-225"/>
<polygon fill="black" stroke="black" stroke-width="0.5" points="324.79,-226.75 329.79,-225 324.79,-223.25 324.79,-226.75"/>
</g>
<!-- OpticalDetune -->
<g id="node13" class="node">
<title>OpticalDetune</title>
<g id="a_node13"><a xlink:href="../../api/tolteca.kidsutils.kidsmodel.OpticalDetune.html#tolteca.kidsutils.kidsmodel.OpticalDetune" xlink:title="Model that describes detuning of KIDs in response to incident" target="_top">
<polygon fill="none" stroke="black" stroke-width="0.5" points="421.35,-270 341.61,-270 341.61,-252 421.35,-252 421.35,-270"/>
<text text-anchor="middle" x="381.48" y="-258" font-family="Vera Sans, DejaVu Sans, Liberation Sans, Arial, Helvetica, sans" font-size="10.00">OpticalDetune</text>
</a>
</g>
</g>
<!-- _Model&#45;&gt;OpticalDetune -->
<g id="edge14" class="edge">
<title>_Model&#45;&gt;OpticalDetune</title>
<path fill="none" stroke="black" stroke-width="0.5" d="M203.1,-229.63C236.71,-235.58 295.5,-245.97 336.13,-253.16"/>
<polygon fill="black" stroke="black" stroke-width="0.5" points="336.27,-254.96 341.49,-254.11 336.87,-251.51 336.27,-254.96"/>
</g>
<!-- _ComposableModelBase -->
<g id="node16" class="node">
<title>_ComposableModelBase</title>
<g id="a_node16"><a xlink:title="Base class that setup itself with mixin classes.">
<polygon fill="none" stroke="black" stroke-width="0.5" points="445.21,-306 317.75,-306 317.75,-288 445.21,-288 445.21,-306"/>
<text text-anchor="middle" x="381.48" y="-294" font-family="Vera Sans, DejaVu Sans, Liberation Sans, Arial, Helvetica, sans" font-size="10.00">_ComposableModelBase</text>
</a>
</g>
</g>
<!-- _Model&#45;&gt;_ComposableModelBase -->
<g id="edge43" class="edge">
<title>_Model&#45;&gt;_ComposableModelBase</title>
<path fill="none" stroke="black" stroke-width="0.5" d="M194.07,-234.03C217.12,-245.83 259.58,-266.45 297.8,-279 306.83,-281.97 316.58,-284.58 326.11,-286.84"/>
<polygon fill="black" stroke="black" stroke-width="0.5" points="325.8,-288.56 331.07,-287.98 326.59,-285.15 325.8,-288.56"/>
</g>
<!-- ResonanceCircle -->
<g id="node19" class="node">
<title>ResonanceCircle</title>
<g id="a_node19"><a xlink:href="../../api/tolteca.kidsutils.kidsmodel.ResonanceCircle.html#tolteca.kidsutils.kidsmodel.ResonanceCircle" xlink:title="Same as `ResonanceCircleComplex`, but with separate real and imaginary" target="_top">
<polygon fill="none" stroke="black" stroke-width="0.5" points="427.63,-342 335.33,-342 335.33,-324 427.63,-324 427.63,-342"/>
<text text-anchor="middle" x="381.48" y="-330" font-family="Vera Sans, DejaVu Sans, Liberation Sans, Arial, Helvetica, sans" font-size="10.00">ResonanceCircle</text>
</a>
</g>
</g>
<!-- _Model&#45;&gt;ResonanceCircle -->
<g id="edge20" class="edge">
<title>_Model&#45;&gt;ResonanceCircle</title>
<path fill="none" stroke="black" stroke-width="0.5" d="M186.02,-234.01C205.05,-252.28 251.12,-293.75 297.8,-315 307.89,-319.59 319.21,-323.04 330.16,-325.62"/>
<polygon fill="black" stroke="black" stroke-width="0.5" points="329.9,-327.36 335.17,-326.75 330.67,-323.94 329.9,-327.36"/>
</g>
<!-- ResonanceCircleComplex -->
<g id="node21" class="node">
<title>ResonanceCircleComplex</title>
<g id="a_node21"><a xlink:href="../../api/tolteca.kidsutils.kidsmodel.ResonanceCircleComplex.html#tolteca.kidsutils.kidsmodel.ResonanceCircleComplex" xlink:title="Model that describes the resonance circle of KIDs in complex plane." target="_top">
<polygon fill="none" stroke="black" stroke-width="0.5" points="447.09,-18 315.87,-18 315.87,0 447.09,0 447.09,-18"/>
<text text-anchor="middle" x="381.48" y="-6" font-family="Vera Sans, DejaVu Sans, Liberation Sans, Arial, Helvetica, sans" font-size="10.00">ResonanceCircleComplex</text>
</a>
</g>
</g>
<!-- _Model&#45;&gt;ResonanceCircleComplex -->
<g id="edge22" class="edge">
<title>_Model&#45;&gt;ResonanceCircleComplex</title>
<path fill="none" stroke="black" stroke-width="0.5" d="M185.62,-215.84C202.22,-198.01 238.8,-156.87 261.8,-117 283.33,-79.69 264.92,-54.83 297.8,-27 301.75,-23.65 306.19,-20.89 310.89,-18.61"/>
<polygon fill="black" stroke="black" stroke-width="0.5" points="311.82,-20.11 315.68,-16.48 310.4,-16.91 311.82,-20.11"/>
</g>
<!-- ResonanceCircleComplexInv -->
<g id="node23" class="node">
<title>ResonanceCircleComplexInv</title>
<g id="a_node23"><a xlink:href="../../api/tolteca.kidsutils.kidsmodel.ResonanceCircleComplexInv.html#tolteca.kidsutils.kidsmodel.ResonanceCircleComplexInv" xlink:title="Inversion of `ResonanceCircleComplex`." target="_top">
<polygon fill="none" stroke="black" stroke-width="0.5" points="453.92,-162 309.03,-162 309.03,-144 453.92,-144 453.92,-162"/>
<text text-anchor="middle" x="381.48" y="-150" font-family="Vera Sans, DejaVu Sans, Liberation Sans, Arial, Helvetica, sans" font-size="10.00">ResonanceCircleComplexInv</text>
</a>
</g>
</g>
<!-- _Model&#45;&gt;ResonanceCircleComplexInv -->
<g id="edge24" class="edge">
<title>_Model&#45;&gt;ResonanceCircleComplexInv</title>
<path fill="none" stroke="black" stroke-width="0.5" d="M194.07,-215.97C217.12,-204.17 259.58,-183.55 297.8,-171 306.83,-168.03 316.58,-165.42 326.11,-163.16"/>
<polygon fill="black" stroke="black" stroke-width="0.5" points="326.59,-164.85 331.07,-162.02 325.8,-161.44 326.59,-164.85"/>
</g>
<!-- ResonanceCircleInv -->
<g id="node24" class="node">
<title>ResonanceCircleInv</title>
<g id="a_node24"><a xlink:href="../../api/tolteca.kidsutils.kidsmodel.ResonanceCircleInv.html#tolteca.kidsutils.kidsmodel.ResonanceCircleInv" xlink:title="Inversion of `ResonanceCircle`." target="_top">
<polygon fill="none" stroke="black" stroke-width="0.5" points="434.47,-378 328.49,-378 328.49,-360 434.47,-360 434.47,-378"/>
<text text-anchor="middle" x="381.48" y="-366" font-family="Vera Sans, DejaVu Sans, Liberation Sans, Arial, Helvetica, sans" font-size="10.00">ResonanceCircleInv</text>
</a>
</g>
</g>
<!-- _Model&#45;&gt;ResonanceCircleInv -->
<g id="edge26" class="edge">
<title>_Model&#45;&gt;ResonanceCircleInv</title>
<path fill="none" stroke="black" stroke-width="0.5" d="M182.7,-234.05C198.23,-257.5 243.3,-320.5 297.8,-351 305.7,-355.42 314.58,-358.75 323.52,-361.27"/>
<polygon fill="black" stroke="black" stroke-width="0.5" points="323.2,-363 328.48,-362.58 324.1,-359.61 323.2,-363"/>
</g>
<!-- ResonanceCircleQr -->
<g id="node27" class="node">
<title>ResonanceCircleQr</title>
<g id="a_node27"><a xlink:href="../../api/tolteca.kidsutils.kidsmodel.ResonanceCircleQr.html#tolteca.kidsutils.kidsmodel.ResonanceCircleQr" xlink:title="Model that describes the relation of `r` and `Qr`." target="_top">
<polygon fill="none" stroke="black" stroke-width="0.5" points="433.24,-126 329.72,-126 329.72,-108 433.24,-108 433.24,-126"/>
<text text-anchor="middle" x="381.48" y="-114" font-family="Vera Sans, DejaVu Sans, Liberation Sans, Arial, Helvetica, sans" font-size="10.00">ResonanceCircleQr</text>
</a>
</g>
</g>
<!-- _Model&#45;&gt;ResonanceCircleQr -->
<g id="edge34" class="edge">
<title>_Model&#45;&gt;ResonanceCircleQr</title>
<path fill="none" stroke="black" stroke-width="0.5" d="M186.02,-215.99C205.05,-197.72 251.12,-156.25 297.8,-135 306.15,-131.2 315.34,-128.18 324.47,-125.79"/>
<polygon fill="black" stroke="black" stroke-width="0.5" points="325.11,-127.44 329.53,-124.53 324.26,-124.04 325.11,-127.44"/>
</g>
<!-- ResonanceCircleQrInv -->
<g id="node28" class="node">
<title>ResonanceCircleQrInv</title>
<g id="a_node28"><a xlink:href="../../api/tolteca.kidsutils.kidsmodel.ResonanceCircleQrInv.html#tolteca.kidsutils.kidsmodel.ResonanceCircleQrInv" xlink:title="Inversion of `ResonanceCircleQr`" target="_top">
<polygon fill="none" stroke="black" stroke-width="0.5" points="439.58,-90 323.38,-90 323.38,-72 439.58,-72 439.58,-90"/>
<text text-anchor="middle" x="381.48" y="-78" font-family="Vera Sans, DejaVu Sans, Liberation Sans, Arial, Helvetica, sans" font-size="10.00">ResonanceCircleQrInv</text>
</a>
</g>
</g>
<!-- _Model&#45;&gt;ResonanceCircleQrInv -->
<g id="edge36" class="edge">
<title>_Model&#45;&gt;ResonanceCircleQrInv</title>
<path fill="none" stroke="black" stroke-width="0.5" d="M182.7,-215.95C198.23,-192.5 243.3,-129.5 297.8,-99 304.15,-95.44 311.15,-92.59 318.29,-90.3"/>
<polygon fill="black" stroke="black" stroke-width="0.5" points="318.98,-91.92 323.26,-88.8 317.97,-88.57 318.98,-91.92"/>
</g>
<!-- KidsProbeGainWithGeometry -->
<g id="node3" class="node">
<title>KidsProbeGainWithGeometry</title>
<g id="a_node3"><a xlink:href="../../api/tolteca.kidsutils.kidsmodel.KidsProbeGainWithGeometry.html#tolteca.kidsutils.kidsmodel.KidsProbeGainWithGeometry" xlink:title="Model that describes the S21 probed at fixed frequencies with" target="_top">
<polygon fill="none" stroke="black" stroke-width="0.5" points="854.08,-414 706.75,-414 706.75,-396 854.08,-396 854.08,-414"/>
<text text-anchor="middle" x="780.41" y="-402" font-family="Vera Sans, DejaVu Sans, Liberation Sans, Arial, Helvetica, sans" font-size="10.00">KidsProbeGainWithGeometry</text>
</a>
</g>
</g>
<!-- _KidsReadoutMixin -->
<g id="node4" class="node">
<title>_KidsReadoutMixin</title>
<g id="a_node4"><a xlink:title="Mixin class that defines some utility functions for readout models.">
<polygon fill="none" stroke="black" stroke-width="0.5" points="636.18,-414 533.87,-414 533.87,-396 636.18,-396 636.18,-414"/>
<text text-anchor="middle" x="585.02" y="-402" font-family="Vera Sans, DejaVu Sans, Liberation Sans, Arial, Helvetica, sans" font-size="10.00">_KidsReadoutMixin</text>
</a>
</g>
</g>
<!-- _KidsReadoutMixin&#45;&gt;KidsProbeGainWithGeometry -->
<g id="edge2" class="edge">
<title>_KidsReadoutMixin&#45;&gt;KidsProbeGainWithGeometry</title>
<path fill="none" stroke="black" stroke-width="0.5" d="M636.33,-405C656.22,-405 679.55,-405 701.53,-405"/>
<polygon fill="black" stroke="black" stroke-width="0.5" points="701.78,-406.75 706.78,-405 701.78,-403.25 701.78,-406.75"/>
</g>
<!-- KidsProbeGainWithLinTrend -->
<g id="node7" class="node">
<title>KidsProbeGainWithLinTrend</title>
<g id="a_node7"><a xlink:href="../../api/tolteca.kidsutils.kidsmodel.KidsProbeGainWithLinTrend.html#tolteca.kidsutils.kidsmodel.KidsProbeGainWithLinTrend" xlink:title="Model that describes the S21 probed at fixed frequencies with" target="_top">
<polygon fill="none" stroke="black" stroke-width="0.5" points="851.78,-378 709.05,-378 709.05,-360 851.78,-360 851.78,-378"/>
<text text-anchor="middle" x="780.41" y="-366" font-family="Vera Sans, DejaVu Sans, Liberation Sans, Arial, Helvetica, sans" font-size="10.00">KidsProbeGainWithLinTrend</text>
</a>
</g>
</g>
<!-- _KidsReadoutMixin&#45;&gt;KidsProbeGainWithLinTrend -->
<g id="edge5" class="edge">
<title>_KidsReadoutMixin&#45;&gt;KidsProbeGainWithLinTrend</title>
<path fill="none" stroke="black" stroke-width="0.5" d="M634.82,-395.92C662.53,-390.76 697.25,-384.3 725.72,-378.99"/>
<polygon fill="black" stroke="black" stroke-width="0.5" points="726.37,-380.65 730.96,-378.02 725.73,-377.21 726.37,-380.65"/>
</g>
<!-- KidsSweepGainWithGeometry -->
<g id="node9" class="node">
<title>KidsSweepGainWithGeometry</title>
<g id="a_node9"><a xlink:href="../../api/tolteca.kidsutils.kidsmodel.KidsSweepGainWithGeometry.html#tolteca.kidsutils.kidsmodel.KidsSweepGainWithGeometry" xlink:title="Model that describes the S21 for frequency sweep with the geometry" target="_top">
<polygon fill="none" stroke="black" stroke-width="0.5" points="855.97,-486 704.86,-486 704.86,-468 855.97,-468 855.97,-486"/>
<text text-anchor="middle" x="780.41" y="-474" font-family="Vera Sans, DejaVu Sans, Liberation Sans, Arial, Helvetica, sans" font-size="10.00">KidsSweepGainWithGeometry</text>
</a>
</g>
</g>
<!-- _KidsReadoutMixin&#45;&gt;KidsSweepGainWithGeometry -->
<g id="edge8" class="edge">
<title>_KidsReadoutMixin&#45;&gt;KidsSweepGainWithGeometry</title>
<path fill="none" stroke="black" stroke-width="0.5" d="M636.31,-411.13C647.48,-413.78 658.94,-417.57 668.89,-423 688.75,-433.84 685.15,-447.93 704.89,-459 709.97,-461.85 715.49,-464.25 721.15,-466.27"/>
<polygon fill="black" stroke="black" stroke-width="0.5" points="720.63,-467.95 725.93,-467.88 721.75,-464.63 720.63,-467.95"/>
</g>
<!-- KidsSweepGainWithLinTrend -->
<g id="node11" class="node">
<title>KidsSweepGainWithLinTrend</title>
<g id="a_node11"><a xlink:href="../../api/tolteca.kidsutils.kidsmodel.KidsSweepGainWithLinTrend.html#tolteca.kidsutils.kidsmodel.KidsSweepGainWithLinTrend" xlink:title="Model that describes the S21 for frequency sweep with" target="_top">
<polygon fill="none" stroke="black" stroke-width="0.5" points="853.67,-450 707.16,-450 707.16,-432 853.67,-432 853.67,-450"/>
<text text-anchor="middle" x="780.41" y="-438" font-family="Vera Sans, DejaVu Sans, Liberation Sans, Arial, Helvetica, sans" font-size="10.00">KidsSweepGainWithLinTrend</text>
</a>
</g>
</g>
<!-- _KidsReadoutMixin&#45;&gt;KidsSweepGainWithLinTrend -->
<g id="edge11" class="edge">
<title>_KidsReadoutMixin&#45;&gt;KidsSweepGainWithLinTrend</title>
<path fill="none" stroke="black" stroke-width="0.5" d="M634.82,-414.08C662.53,-419.24 697.25,-425.7 725.72,-431.01"/>
<polygon fill="black" stroke="black" stroke-width="0.5" points="725.73,-432.79 730.96,-431.98 726.37,-429.35 725.73,-432.79"/>
</g>
<!-- _ReadoutGainWithGeometryMixin -->
<g id="node5" class="node">
<title>_ReadoutGainWithGeometryMixin</title>
<g id="a_node5"><a xlink:title="Mixin class that defines readout transform of S21 using the">
<polygon fill="none" stroke="black" stroke-width="0.5" points="668.75,-522 501.29,-522 501.29,-504 668.75,-504 668.75,-522"/>
<text text-anchor="middle" x="585.02" y="-510" font-family="Vera Sans, DejaVu Sans, Liberation Sans, Arial, Helvetica, sans" font-size="10.00">_ReadoutGainWithGeometryMixin</text>
</a>
</g>
</g>
<!-- _ReadoutGainWithGeometryMixin&#45;&gt;KidsProbeGainWithGeometry -->
<g id="edge3" class="edge">
<title>_ReadoutGainWithGeometryMixin&#45;&gt;KidsProbeGainWithGeometry</title>
<path fill="none" stroke="black" stroke-width="0.5" d="M653.52,-503.9C659.02,-501.54 664.24,-498.61 668.89,-495 697.14,-473.05 676.89,-445.27 704.89,-423 708.18,-420.38 711.8,-418.13 715.61,-416.2"/>
<polygon fill="black" stroke="black" stroke-width="0.5" points="716.37,-417.78 720.16,-414.09 714.89,-414.61 716.37,-417.78"/>
</g>
<!-- _ReadoutGainWithGeometryMixin&#45;&gt;KidsSweepGainWithGeometry -->
<g id="edge9" class="edge">
<title>_ReadoutGainWithGeometryMixin&#45;&gt;KidsSweepGainWithGeometry</title>
<path fill="none" stroke="black" stroke-width="0.5" d="M634.82,-503.92C662.53,-498.76 697.25,-492.3 725.72,-486.99"/>
<polygon fill="black" stroke="black" stroke-width="0.5" points="726.37,-488.65 730.96,-486.02 725.73,-485.21 726.37,-488.65"/>
</g>
<!-- ResonanceCircleProbeComplex -->
<g id="node6" class="node">
<title>ResonanceCircleProbeComplex</title>
<g id="a_node6"><a xlink:href="../../api/tolteca.kidsutils.kidsmodel.ResonanceCircleProbeComplex.html#tolteca.kidsutils.kidsmodel.ResonanceCircleProbeComplex" xlink:title="The same as `ResonanceCircleProbe`, but the result is the complex S21." target="_top">
<polygon fill="none" stroke="black" stroke-width="0.5" points="664.31,-342 505.73,-342 505.73,-324 664.31,-324 664.31,-342"/>
<text text-anchor="middle" x="585.02" y="-330" font-family="Vera Sans, DejaVu Sans, Liberation Sans, Arial, Helvetica, sans" font-size="10.00">ResonanceCircleProbeComplex</text>
</a>
</g>
</g>
<!-- ResonanceCircleProbeComplex&#45;&gt;KidsProbeGainWithGeometry -->
<g id="edge4" class="edge">
<title>ResonanceCircleProbeComplex&#45;&gt;KidsProbeGainWithGeometry</title>
<path fill="none" stroke="black" stroke-width="0.5" d="M647.22,-342.09C654.76,-344.41 662.17,-347.33 668.89,-351 688.75,-361.84 685.15,-375.93 704.89,-387 709.97,-389.85 715.49,-392.25 721.15,-394.27"/>
<polygon fill="black" stroke="black" stroke-width="0.5" points="720.63,-395.95 725.93,-395.88 721.75,-392.63 720.63,-395.95"/>
</g>
<!-- ResonanceCircleProbeComplex&#45;&gt;KidsProbeGainWithLinTrend -->
<g id="edge7" class="edge">
<title>ResonanceCircleProbeComplex&#45;&gt;KidsProbeGainWithLinTrend</title>
<path fill="none" stroke="black" stroke-width="0.5" d="M634.82,-342.08C662.53,-347.24 697.25,-353.7 725.72,-359.01"/>
<polygon fill="black" stroke="black" stroke-width="0.5" points="725.73,-360.79 730.96,-359.98 726.37,-357.35 725.73,-360.79"/>
</g>
<!-- _ReadoutGainWithLinTrendMixin -->
<g id="node8" class="node">
<title>_ReadoutGainWithLinTrendMixin</title>
<g id="a_node8"><a xlink:title="Mixin class that defines readout transform of S21 using an effective">
<polygon fill="none" stroke="black" stroke-width="0.5" points="666.45,-486 503.59,-486 503.59,-468 666.45,-468 666.45,-486"/>
<text text-anchor="middle" x="585.02" y="-474" font-family="Vera Sans, DejaVu Sans, Liberation Sans, Arial, Helvetica, sans" font-size="10.00">_ReadoutGainWithLinTrendMixin</text>
</a>
</g>
</g>
<!-- _ReadoutGainWithLinTrendMixin&#45;&gt;KidsProbeGainWithLinTrend -->
<g id="edge6" class="edge">
<title>_ReadoutGainWithLinTrendMixin&#45;&gt;KidsProbeGainWithLinTrend</title>
<path fill="none" stroke="black" stroke-width="0.5" d="M653.52,-467.9C659.02,-465.54 664.24,-462.61 668.89,-459 697.14,-437.05 676.89,-409.27 704.89,-387 708.18,-384.38 711.8,-382.13 715.61,-380.2"/>
<polygon fill="black" stroke="black" stroke-width="0.5" points="716.37,-381.78 720.16,-378.09 714.89,-378.61 716.37,-381.78"/>
</g>
<!-- _ReadoutGainWithLinTrendMixin&#45;&gt;KidsSweepGainWithLinTrend -->
<g id="edge12" class="edge">
<title>_ReadoutGainWithLinTrendMixin&#45;&gt;KidsSweepGainWithLinTrend</title>
<path fill="none" stroke="black" stroke-width="0.5" d="M634.82,-467.92C662.53,-462.76 697.25,-456.3 725.72,-450.99"/>
<polygon fill="black" stroke="black" stroke-width="0.5" points="726.37,-452.65 730.96,-450.02 725.73,-449.21 726.37,-452.65"/>
</g>
<!-- ResonanceCircleSweepComplex -->
<g id="node10" class="node">
<title>ResonanceCircleSweepComplex</title>
<g id="a_node10"><a xlink:href="../../api/tolteca.kidsutils.kidsmodel.ResonanceCircleSweepComplex.html#tolteca.kidsutils.kidsmodel.ResonanceCircleSweepComplex" xlink:title="The same as `ResonanceCircleSweep`, but the result is the complex S21." target="_top">
<polygon fill="none" stroke="black" stroke-width="0.5" points="666.2,-450 503.84,-450 503.84,-432 666.2,-432 666.2,-450"/>
<text text-anchor="middle" x="585.02" y="-438" font-family="Vera Sans, DejaVu Sans, Liberation Sans, Arial, Helvetica, sans" font-size="10.00">ResonanceCircleSweepComplex</text>
</a>
</g>
</g>
<!-- ResonanceCircleSweepComplex&#45;&gt;KidsSweepGainWithGeometry -->
<g id="edge10" class="edge">
<title>ResonanceCircleSweepComplex&#45;&gt;KidsSweepGainWithGeometry</title>
<path fill="none" stroke="black" stroke-width="0.5" d="M634.82,-450.08C662.53,-455.24 697.25,-461.7 725.72,-467.01"/>
<polygon fill="black" stroke="black" stroke-width="0.5" points="725.73,-468.79 730.96,-467.98 726.37,-465.35 725.73,-468.79"/>
</g>
<!-- ResonanceCircleSweepComplex&#45;&gt;KidsSweepGainWithLinTrend -->
<g id="edge13" class="edge">
<title>ResonanceCircleSweepComplex&#45;&gt;KidsSweepGainWithLinTrend</title>
<path fill="none" stroke="black" stroke-width="0.5" d="M666.36,-441C678.16,-441 690.3,-441 702.05,-441"/>
<polygon fill="black" stroke="black" stroke-width="0.5" points="702.05,-442.75 707.05,-441 702.05,-439.25 702.05,-442.75"/>
</g>
<!-- Model -->
<g id="node12" class="node">
<title>Model</title>
<g id="a_node12"><a xlink:title="Base class for all models.">
<polygon fill="none" stroke="black" stroke-width="0.5" points="54,-234 0,-234 0,-216 54,-216 54,-234"/>
<text text-anchor="middle" x="27" y="-222" font-family="Vera Sans, DejaVu Sans, Liberation Sans, Arial, Helvetica, sans" font-size="10.00">Model</text>
</a>
</g>
</g>
<!-- Model&#45;&gt;_Model -->
<g id="edge44" class="edge">
<title>Model&#45;&gt;_Model</title>
<path fill="none" stroke="black" stroke-width="0.5" d="M54.26,-225C79.33,-225 117.11,-225 143.7,-225"/>
<polygon fill="black" stroke="black" stroke-width="0.5" points="143.86,-226.75 148.86,-225 143.86,-223.25 143.86,-226.75"/>
</g>
<!-- ReadoutComplexToIQ -->
<g id="node14" class="node">
<title>ReadoutComplexToIQ</title>
<g id="a_node14"><a xlink:href="../../api/tolteca.kidsutils.kidsmodel.ReadoutComplexToIQ.html#tolteca.kidsutils.kidsmodel.ReadoutComplexToIQ" xlink:title="Utility model to convert from complex S21 to (I, Q)." target="_top">
<polygon fill="none" stroke="black" stroke-width="0.5" points="642.41,-252 527.64,-252 527.64,-234 642.41,-234 642.41,-252"/>
<text text-anchor="middle" x="585.02" y="-240" font-family="Vera Sans, DejaVu Sans, Liberation Sans, Arial, Helvetica, sans" font-size="10.00">ReadoutComplexToIQ</text>
</a>
</g>
</g>
<!-- _ReadoutRepr2Mixin -->
<g id="node15" class="node">
<title>_ReadoutRepr2Mixin</title>
<g id="a_node15"><a xlink:title="Mixin class that sets the output to use separate I and Q.">
<polygon fill="none" stroke="black" stroke-width="0.5" points="436.42,-54 326.54,-54 326.54,-36 436.42,-36 436.42,-54"/>
<text text-anchor="middle" x="381.48" y="-42" font-family="Vera Sans, DejaVu Sans, Liberation Sans, Arial, Helvetica, sans" font-size="10.00">_ReadoutRepr2Mixin</text>
</a>
</g>
</g>
<!-- _ReadoutRepr2Mixin&#45;&gt;ReadoutComplexToIQ -->
<g id="edge15" class="edge">
<title>_ReadoutRepr2Mixin&#45;&gt;ReadoutComplexToIQ</title>
<path fill="none" stroke="black" stroke-width="0.5" d="M436.59,-47.88C447.15,-50.73 457.35,-55.43 465.16,-63 512.51,-108.93 458.51,-156.67 501.16,-207 511.09,-218.72 525.55,-226.74 539.62,-232.18"/>
<polygon fill="black" stroke="black" stroke-width="0.5" points="539.07,-233.84 544.37,-233.92 540.28,-230.56 539.07,-233.84"/>
</g>
<!-- ResonanceCircleProbe -->
<g id="node25" class="node">
<title>ResonanceCircleProbe</title>
<g id="a_node25"><a xlink:href="../../api/tolteca.kidsutils.kidsmodel.ResonanceCircleProbe.html#tolteca.kidsutils.kidsmodel.ResonanceCircleProbe" xlink:title="Model that describes the probing of The resonance circle." target="_top">
<polygon fill="none" stroke="black" stroke-width="0.5" points="644.35,-198 525.69,-198 525.69,-180 644.35,-180 644.35,-198"/>
<text text-anchor="middle" x="585.02" y="-186" font-family="Vera Sans, DejaVu Sans, Liberation Sans, Arial, Helvetica, sans" font-size="10.00">ResonanceCircleProbe</text>
</a>
</g>
</g>
<!-- _ReadoutRepr2Mixin&#45;&gt;ResonanceCircleProbe -->
<g id="edge28" class="edge">
<title>_ReadoutRepr2Mixin&#45;&gt;ResonanceCircleProbe</title>
<path fill="none" stroke="black" stroke-width="0.5" d="M436.69,-51.91C446.55,-54.51 456.46,-58.08 465.16,-63 516.14,-91.82 558.34,-149.7 575.62,-175.76"/>
<polygon fill="black" stroke="black" stroke-width="0.5" points="574.16,-176.72 578.36,-179.95 577.09,-174.81 574.16,-176.72"/>
</g>
<!-- ResonanceCircleSweep -->
<g id="node29" class="node">
<title>ResonanceCircleSweep</title>
<g id="a_node29"><a xlink:href="../../api/tolteca.kidsutils.kidsmodel.ResonanceCircleSweep.html#tolteca.kidsutils.kidsmodel.ResonanceCircleSweep" xlink:title="Model that describes the frequency sweep of The resonance circle." target="_top">
<polygon fill="none" stroke="black" stroke-width="0.5" points="646.25,-306 523.8,-306 523.8,-288 646.25,-288 646.25,-306"/>
<text text-anchor="middle" x="585.02" y="-294" font-family="Vera Sans, DejaVu Sans, Liberation Sans, Arial, Helvetica, sans" font-size="10.00">ResonanceCircleSweep</text>
</a>
</g>
</g>
<!-- _ReadoutRepr2Mixin&#45;&gt;ResonanceCircleSweep -->
<g id="edge38" class="edge">
<title>_ReadoutRepr2Mixin&#45;&gt;ResonanceCircleSweep</title>
<path fill="none" stroke="black" stroke-width="0.5" d="M436.55,-47.39C447.24,-50.25 457.5,-55.08 465.16,-63 527.3,-127.33 445.59,-190.92 501.16,-261 510.45,-272.71 524.3,-280.69 538.04,-286.1"/>
<polygon fill="black" stroke="black" stroke-width="0.5" points="537.79,-287.87 543.08,-287.97 539.01,-284.59 537.79,-287.87"/>
</g>
<!-- _ComposableModelBase&#45;&gt;ResonanceCircleProbeComplex -->
<g id="edge32" class="edge">
<title>_ComposableModelBase&#45;&gt;ResonanceCircleProbeComplex</title>
<path fill="none" stroke="black" stroke-width="0.5" d="M433.08,-306.04C462.07,-311.22 498.49,-317.72 528.3,-323.05"/>
<polygon fill="black" stroke="black" stroke-width="0.5" points="528.17,-324.8 533.4,-323.96 528.79,-321.36 528.17,-324.8"/>
</g>
<!-- _ComposableModelBase&#45;&gt;ResonanceCircleSweepComplex -->
<g id="edge42" class="edge">
<title>_ComposableModelBase&#45;&gt;ResonanceCircleSweepComplex</title>
<path fill="none" stroke="black" stroke-width="0.5" d="M445.48,-303.35C452.69,-306.12 459.47,-309.9 465.16,-315 502.8,-348.81 463.5,-389.2 501.16,-423 503.75,-425.32 506.56,-427.37 509.54,-429.17"/>
<polygon fill="black" stroke="black" stroke-width="0.5" points="509.13,-430.94 514.35,-431.81 510.81,-427.87 509.13,-430.94"/>
</g>
<!-- _ComposableModelBase&#45;&gt;ReadoutComplexToIQ -->
<g id="edge16" class="edge">
<title>_ComposableModelBase&#45;&gt;ReadoutComplexToIQ</title>
<path fill="none" stroke="black" stroke-width="0.5" d="M427.26,-287.93C439.59,-285.25 452.93,-282.18 465.16,-279 494.58,-271.36 527.64,-261.21 551.41,-253.64"/>
<polygon fill="black" stroke="black" stroke-width="0.5" points="552.11,-255.26 556.34,-252.07 551.04,-251.92 552.11,-255.26"/>
</g>
<!-- ReadoutIQToComplex -->
<g id="node17" class="node">
<title>ReadoutIQToComplex</title>
<g id="a_node17"><a xlink:href="../../api/tolteca.kidsutils.kidsmodel.ReadoutIQToComplex.html#tolteca.kidsutils.kidsmodel.ReadoutIQToComplex" xlink:title="Utility model to convert from (I, Q) to complex S21." target="_top">
<polygon fill="none" stroke="black" stroke-width="0.5" points="642.41,-378 527.64,-378 527.64,-360 642.41,-360 642.41,-378"/>
<text text-anchor="middle" x="585.02" y="-366" font-family="Vera Sans, DejaVu Sans, Liberation Sans, Arial, Helvetica, sans" font-size="10.00">ReadoutIQToComplex</text>
</a>
</g>
</g>
<!-- _ComposableModelBase&#45;&gt;ReadoutIQToComplex -->
<g id="edge18" class="edge">
<title>_ComposableModelBase&#45;&gt;ReadoutIQToComplex</title>
<path fill="none" stroke="black" stroke-width="0.5" d="M443.54,-306.1C451.06,-308.42 458.45,-311.34 465.16,-315 485.02,-325.85 481.3,-340.16 501.16,-351 507.77,-354.61 515.05,-357.5 522.47,-359.8"/>
<polygon fill="black" stroke="black" stroke-width="0.5" points="522.33,-361.59 527.62,-361.31 523.32,-358.23 522.33,-361.59"/>
</g>
<!-- _ComposableModelBase&#45;&gt;ResonanceCircleProbe -->
<g id="edge29" class="edge">
<title>_ComposableModelBase&#45;&gt;ResonanceCircleProbe</title>
<path fill="none" stroke="black" stroke-width="0.5" d="M445.57,-288.68C452.51,-286.22 459.21,-283.06 465.16,-279 488.99,-262.75 479.03,-243.5 501.16,-225 514.57,-213.79 532.02,-205.51 547.44,-199.74"/>
<polygon fill="black" stroke="black" stroke-width="0.5" points="548.05,-201.38 552.15,-198.03 546.85,-198.09 548.05,-201.38"/>
</g>
<!-- _ComposableModelBase&#45;&gt;ResonanceCircleSweep -->
<g id="edge39" class="edge">
<title>_ComposableModelBase&#45;&gt;ResonanceCircleSweep</title>
<path fill="none" stroke="black" stroke-width="0.5" d="M445.42,-297C468.61,-297 494.93,-297 518.36,-297"/>
<polygon fill="black" stroke="black" stroke-width="0.5" points="518.63,-298.75 523.63,-297 518.63,-295.25 518.63,-298.75"/>
</g>
<!-- _ReadoutReprComplexMixin -->
<g id="node18" class="node">
<title>_ReadoutReprComplexMixin</title>
<g id="a_node18"><a xlink:title="Mixin class that sets the output to use complex S21.">
<polygon fill="none" stroke="black" stroke-width="0.5" points="453.32,-450 309.64,-450 309.64,-432 453.32,-432 453.32,-450"/>
<text text-anchor="middle" x="381.48" y="-438" font-family="Vera Sans, DejaVu Sans, Liberation Sans, Arial, Helvetica, sans" font-size="10.00">_ReadoutReprComplexMixin</text>
</a>
</g>
</g>
<!-- _ReadoutReprComplexMixin&#45;&gt;ResonanceCircleProbeComplex -->
<g id="edge31" class="edge">
<title>_ReadoutReprComplexMixin&#45;&gt;ResonanceCircleProbeComplex</title>
<path fill="none" stroke="black" stroke-width="0.5" d="M449.83,-431.88C455.31,-429.52 460.52,-426.61 465.16,-423 493.41,-401.04 472.91,-372.95 501.16,-351 504.5,-348.4 508.14,-346.16 511.96,-344.23"/>
<polygon fill="black" stroke="black" stroke-width="0.5" points="512.73,-345.8 516.53,-342.1 511.26,-342.63 512.73,-345.8"/>
</g>
<!-- _ReadoutReprComplexMixin&#45;&gt;ResonanceCircleSweepComplex -->
<g id="edge41" class="edge">
<title>_ReadoutReprComplexMixin&#45;&gt;ResonanceCircleSweepComplex</title>
<path fill="none" stroke="black" stroke-width="0.5" d="M453.54,-441C468.1,-441 483.57,-441 498.57,-441"/>
<polygon fill="black" stroke="black" stroke-width="0.5" points="498.64,-442.75 503.64,-441 498.64,-439.25 498.64,-442.75"/>
</g>
<!-- _ReadoutReprComplexMixin&#45;&gt;ReadoutIQToComplex -->
<g id="edge17" class="edge">
<title>_ReadoutReprComplexMixin&#45;&gt;ReadoutIQToComplex</title>
<path fill="none" stroke="black" stroke-width="0.5" d="M443.54,-431.9C451.06,-429.58 458.45,-426.66 465.16,-423 485.02,-412.15 481.3,-397.84 501.16,-387 507.77,-383.39 515.05,-380.5 522.47,-378.2"/>
<polygon fill="black" stroke="black" stroke-width="0.5" points="523.32,-379.77 527.62,-376.69 522.33,-376.41 523.32,-379.77"/>
</g>
<!-- _ResonanceCircleTransform2Mixin -->
<g id="node20" class="node">
<title>_ResonanceCircleTransform2Mixin</title>
<g id="a_node20"><a xlink:title="Mixin class that defines basic resonance circle transform for">
<polygon fill="none" stroke="black" stroke-width="0.5" points="261.7,-360 90.1,-360 90.1,-342 261.7,-342 261.7,-360"/>
<text text-anchor="middle" x="175.9" y="-348" font-family="Vera Sans, DejaVu Sans, Liberation Sans, Arial, Helvetica, sans" font-size="10.00">_ResonanceCircleTransform2Mixin</text>
</a>
</g>
</g>
<!-- _ResonanceCircleTransform2Mixin&#45;&gt;ResonanceCircle -->
<g id="edge19" class="edge">
<title>_ResonanceCircleTransform2Mixin&#45;&gt;ResonanceCircle</title>
<path fill="none" stroke="black" stroke-width="0.5" d="M261.76,-343.5C285,-341.44 309.44,-339.28 330.07,-337.46"/>
<polygon fill="black" stroke="black" stroke-width="0.5" points="330.4,-339.18 335.23,-337 330.09,-335.7 330.4,-339.18"/>
</g>
<!-- _ResonanceCircleTransform2Mixin&#45;&gt;ResonanceCircleInv -->
<g id="edge25" class="edge">
<title>_ResonanceCircleTransform2Mixin&#45;&gt;ResonanceCircleInv</title>
<path fill="none" stroke="black" stroke-width="0.5" d="M261.76,-358.5C282.5,-360.34 304.21,-362.26 323.31,-363.95"/>
<polygon fill="black" stroke="black" stroke-width="0.5" points="323.49,-365.72 328.62,-364.41 323.8,-362.23 323.49,-365.72"/>
</g>
<!-- _ResonanceCircleTransformMixin -->
<g id="node22" class="node">
<title>_ResonanceCircleTransformMixin</title>
<g id="a_node22"><a xlink:title="Mixin class that defines basic resonance circle transform.">
<polygon fill="none" stroke="black" stroke-width="0.5" points="259.14,-108 92.66,-108 92.66,-90 259.14,-90 259.14,-108"/>
<text text-anchor="middle" x="175.9" y="-96" font-family="Vera Sans, DejaVu Sans, Liberation Sans, Arial, Helvetica, sans" font-size="10.00">_ResonanceCircleTransformMixin</text>
</a>
</g>
</g>
<!-- _ResonanceCircleTransformMixin&#45;&gt;ResonanceCircleComplex -->
<g id="edge21" class="edge">
<title>_ResonanceCircleTransformMixin&#45;&gt;ResonanceCircleComplex</title>
<path fill="none" stroke="black" stroke-width="0.5" d="M189.25,-89.78C210.38,-74.46 255.3,-43.76 297.8,-27 305.38,-24.01 313.56,-21.47 321.72,-19.32"/>
<polygon fill="black" stroke="black" stroke-width="0.5" points="322.38,-20.96 326.8,-18.04 321.52,-17.57 322.38,-20.96"/>
</g>
<!-- _ResonanceCircleTransformMixin&#45;&gt;ResonanceCircleComplexInv -->
<g id="edge23" class="edge">
<title>_ResonanceCircleTransformMixin&#45;&gt;ResonanceCircleComplexInv</title>
<path fill="none" stroke="black" stroke-width="0.5" d="M205.07,-108.04C229.47,-115.71 265.77,-126.76 297.8,-135 308.53,-137.76 320.12,-140.46 331.13,-142.89"/>
<polygon fill="black" stroke="black" stroke-width="0.5" points="330.88,-144.63 336.14,-143.99 331.63,-141.21 330.88,-144.63"/>
</g>
<!-- _ResonanceCircleTransformMixin&#45;&gt;ResonanceCircleQr -->
<g id="edge33" class="edge">
<title>_ResonanceCircleTransformMixin&#45;&gt;ResonanceCircleQr</title>
<path fill="none" stroke="black" stroke-width="0.5" d="M259.12,-106.27C281.09,-108.21 304.33,-110.27 324.53,-112.05"/>
<polygon fill="black" stroke="black" stroke-width="0.5" points="324.46,-113.8 329.59,-112.5 324.77,-110.32 324.46,-113.8"/>
</g>
<!-- _ResonanceCircleTransformMixin&#45;&gt;ResonanceCircleQrInv -->
<g id="edge35" class="edge">
<title>_ResonanceCircleTransformMixin&#45;&gt;ResonanceCircleQrInv</title>
<path fill="none" stroke="black" stroke-width="0.5" d="M259.12,-91.73C278.79,-89.99 299.47,-88.16 318.08,-86.52"/>
<polygon fill="black" stroke="black" stroke-width="0.5" points="318.44,-88.24 323.27,-86.06 318.13,-84.76 318.44,-88.24"/>
</g>
<!-- _ResonanceCircleProbeMixin -->
<g id="node26" class="node">
<title>_ResonanceCircleProbeMixin</title>
<g id="a_node26"><a xlink:title="Mixin class that sets up the probing model.">
<polygon fill="none" stroke="black" stroke-width="0.5" points="455.21,-198 307.75,-198 307.75,-180 455.21,-180 455.21,-198"/>
<text text-anchor="middle" x="381.48" y="-186" font-family="Vera Sans, DejaVu Sans, Liberation Sans, Arial, Helvetica, sans" font-size="10.00">_ResonanceCircleProbeMixin</text>
</a>
</g>
</g>
<!-- _ResonanceCircleProbeMixin&#45;&gt;ResonanceCircleProbeComplex -->
<g id="edge30" class="edge">
<title>_ResonanceCircleProbeMixin&#45;&gt;ResonanceCircleProbeComplex</title>
<path fill="none" stroke="black" stroke-width="0.5" d="M451.6,-198.01C456.51,-200.41 461.11,-203.37 465.16,-207 502.8,-240.81 463.5,-281.2 501.16,-315 503.75,-317.32 506.56,-319.37 509.54,-321.17"/>
<polygon fill="black" stroke="black" stroke-width="0.5" points="509.13,-322.94 514.35,-323.81 510.81,-319.87 509.13,-322.94"/>
</g>
<!-- _ResonanceCircleProbeMixin&#45;&gt;ResonanceCircleProbe -->
<g id="edge27" class="edge">
<title>_ResonanceCircleProbeMixin&#45;&gt;ResonanceCircleProbe</title>
<path fill="none" stroke="black" stroke-width="0.5" d="M455.24,-189C476.55,-189 499.67,-189 520.37,-189"/>
<polygon fill="black" stroke="black" stroke-width="0.5" points="520.58,-190.75 525.58,-189 520.58,-187.25 520.58,-190.75"/>
</g>
<!-- _ResonanceCircleSweepMixin -->
<g id="node30" class="node">
<title>_ResonanceCircleSweepMixin</title>
<g id="a_node30"><a xlink:title="Mixin class that sets up the frequency sweep model.">
<polygon fill="none" stroke="black" stroke-width="0.5" points="457.1,-414 305.86,-414 305.86,-396 457.1,-396 457.1,-414"/>
<text text-anchor="middle" x="381.48" y="-402" font-family="Vera Sans, DejaVu Sans, Liberation Sans, Arial, Helvetica, sans" font-size="10.00">_ResonanceCircleSweepMixin</text>
</a>
</g>
</g>
<!-- _ResonanceCircleSweepMixin&#45;&gt;ResonanceCircleSweepComplex -->
<g id="edge40" class="edge">
<title>_ResonanceCircleSweepMixin&#45;&gt;ResonanceCircleSweepComplex</title>
<path fill="none" stroke="black" stroke-width="0.5" d="M433.08,-414.04C462.07,-419.22 498.49,-425.72 528.3,-431.05"/>
<polygon fill="black" stroke="black" stroke-width="0.5" points="528.17,-432.8 533.4,-431.96 528.79,-429.36 528.17,-432.8"/>
</g>
<!-- _ResonanceCircleSweepMixin&#45;&gt;ResonanceCircleSweep -->
<g id="edge37" class="edge">
<title>_ResonanceCircleSweepMixin&#45;&gt;ResonanceCircleSweep</title>
<path fill="none" stroke="black" stroke-width="0.5" d="M449.83,-395.88C455.31,-393.52 460.52,-390.61 465.16,-387 493.41,-365.04 472.91,-336.95 501.16,-315 506.44,-310.9 512.45,-307.68 518.78,-305.17"/>
<polygon fill="black" stroke="black" stroke-width="0.5" points="519.57,-306.75 523.67,-303.39 518.37,-303.46 519.57,-306.75"/>
</g>
<!-- _ReadoutGainParamsMixin -->
<g id="node31" class="node">
<title>_ReadoutGainParamsMixin</title>
<g id="a_node31"><a xlink:title="Mixin class that defines some general gain parameters.">
<polygon fill="none" stroke="black" stroke-width="0.5" points="450.76,-522 312.2,-522 312.2,-504 450.76,-504 450.76,-522"/>
<text text-anchor="middle" x="381.48" y="-510" font-family="Vera Sans, DejaVu Sans, Liberation Sans, Arial, Helvetica, sans" font-size="10.00">_ReadoutGainParamsMixin</text>
</a>
</g>
</g>
<!-- _ReadoutGainParamsMixin&#45;&gt;_ReadoutGainWithGeometryMixin -->
<g id="edge45" class="edge">
<title>_ReadoutGainParamsMixin&#45;&gt;_ReadoutGainWithGeometryMixin</title>
<path fill="none" stroke="black" stroke-width="0.5" d="M450.71,-513C465.28,-513 480.87,-513 496.06,-513"/>
<polygon fill="black" stroke="black" stroke-width="0.5" points="496.19,-514.75 501.19,-513 496.19,-511.25 496.19,-514.75"/>
</g>
<!-- _ReadoutGainParamsMixin&#45;&gt;_ReadoutGainWithLinTrendMixin -->
<g id="edge48" class="edge">
<title>_ReadoutGainParamsMixin&#45;&gt;_ReadoutGainWithLinTrendMixin</title>
<path fill="none" stroke="black" stroke-width="0.5" d="M433.08,-503.96C462.07,-498.78 498.49,-492.28 528.3,-486.95"/>
<polygon fill="black" stroke="black" stroke-width="0.5" points="528.79,-488.64 533.4,-486.04 528.17,-485.2 528.79,-488.64"/>
</g>
<!-- _ReadoutGeometryParamsMixin -->
<g id="node32" class="node">
<title>_ReadoutGeometryParamsMixin</title>
<g id="a_node32"><a xlink:title="Mixin class that defines the KIDs parameters related to the">
<polygon fill="none" stroke="black" stroke-width="0.5" points="462.04,-594 300.92,-594 300.92,-576 462.04,-576 462.04,-594"/>
<text text-anchor="middle" x="381.48" y="-582" font-family="Vera Sans, DejaVu Sans, Liberation Sans, Arial, Helvetica, sans" font-size="10.00">_ReadoutGeometryParamsMixin</text>
</a>
</g>
</g>
<!-- _ReadoutGeometryParamsMixin&#45;&gt;_ReadoutGainWithGeometryMixin -->
<g id="edge46" class="edge">
<title>_ReadoutGeometryParamsMixin&#45;&gt;_ReadoutGainWithGeometryMixin</title>
<path fill="none" stroke="black" stroke-width="0.5" d="M432.35,-575.93C443.28,-573.45 454.7,-570.47 465.16,-567 500.45,-555.29 539.33,-536.41 562.7,-524.36"/>
<polygon fill="black" stroke="black" stroke-width="0.5" points="563.53,-525.9 567.16,-522.05 561.92,-522.79 563.53,-525.9"/>
</g>
<!-- _ReadoutTransformComplexMixin -->
<g id="node33" class="node">
<title>_ReadoutTransformComplexMixin</title>
<g id="a_node33"><a xlink:title="Mixin class that setup the transformation of (I + jQ) due to readout.">
<polygon fill="none" stroke="black" stroke-width="0.5" points="465.34,-558 297.62,-558 297.62,-540 465.34,-540 465.34,-558"/>
<text text-anchor="middle" x="381.48" y="-546" font-family="Vera Sans, DejaVu Sans, Liberation Sans, Arial, Helvetica, sans" font-size="10.00">_ReadoutTransformComplexMixin</text>
</a>
</g>
</g>
<!-- _ReadoutTransformComplexMixin&#45;&gt;_ReadoutGainWithGeometryMixin -->
<g id="edge47" class="edge">
<title>_ReadoutTransformComplexMixin&#45;&gt;_ReadoutGainWithGeometryMixin</title>
<path fill="none" stroke="black" stroke-width="0.5" d="M433.08,-539.96C462.07,-534.78 498.49,-528.28 528.3,-522.95"/>
<polygon fill="black" stroke="black" stroke-width="0.5" points="528.79,-524.64 533.4,-522.04 528.17,-521.2 528.79,-524.64"/>
</g>
<!-- _ReadoutTransformComplexMixin&#45;&gt;_ReadoutGainWithLinTrendMixin -->
<g id="edge50" class="edge">
<title>_ReadoutTransformComplexMixin&#45;&gt;_ReadoutGainWithLinTrendMixin</title>
<path fill="none" stroke="black" stroke-width="0.5" d="M443.54,-539.9C451.06,-537.58 458.45,-534.66 465.16,-531 485.02,-520.15 481.3,-505.84 501.16,-495 506.41,-492.13 512.08,-489.73 517.9,-487.7"/>
<polygon fill="black" stroke="black" stroke-width="0.5" points="518.62,-489.31 522.83,-486.09 517.53,-485.98 518.62,-489.31"/>
</g>
<!-- _ReadoutLinTrendParamsMixin -->
<g id="node34" class="node">
<title>_ReadoutLinTrendParamsMixin</title>
<g id="a_node34"><a xlink:title="Mixin class that defines parameters that describes a">
<polygon fill="none" stroke="black" stroke-width="0.5" points="459.74,-486 303.22,-486 303.22,-468 459.74,-468 459.74,-486"/>
<text text-anchor="middle" x="381.48" y="-474" font-family="Vera Sans, DejaVu Sans, Liberation Sans, Arial, Helvetica, sans" font-size="10.00">_ReadoutLinTrendParamsMixin</text>
</a>
</g>
</g>
<!-- _ReadoutLinTrendParamsMixin&#45;&gt;_ReadoutGainWithLinTrendMixin -->
<g id="edge49" class="edge">
<title>_ReadoutLinTrendParamsMixin&#45;&gt;_ReadoutGainWithLinTrendMixin</title>
<path fill="none" stroke="black" stroke-width="0.5" d="M459.82,-477C472.47,-477 485.63,-477 498.46,-477"/>
<polygon fill="black" stroke="black" stroke-width="0.5" points="498.54,-478.75 503.54,-477 498.54,-475.25 498.54,-478.75"/>
</g>
</g>
</svg>
