<?xml version="1.0" encoding="UTF-8" standalone="no"?>
<!DOCTYPE svg PUBLIC "-//W3C//DTD SVG 1.1//EN"
 "http://www.w3.org/Graphics/SVG/1.1/DTD/svg11.dtd">
<!-- Generated by graphviz version 2.49.3 (20211023.0002)
 -->
<!-- Title: inheritance23243cd12f Pages: 1 -->
<svg width="605pt" height="147pt"
 viewBox="0.00 0.00 605.00 147.00" xmlns="http://www.w3.org/2000/svg" xmlns:xlink="http://www.w3.org/1999/xlink">
<g id="graph0" class="graph" transform="scale(1 1) rotate(0) translate(4 143)">
<title>inheritance23243cd12f</title>
<!-- CatalogSourceModel -->
<g id="node1" class="node">
<title>CatalogSourceModel</title>
<g id="a_node1"><a xlink:href="../api/tolteca.simu.sources.CatalogSourceModel.html#tolteca.simu.sources.CatalogSourceModel" xlink:title="The class for simulator source specified by catalog." target="_top">
<polygon fill="white" stroke="black" stroke-width="0.5" points="569,-56 459,-56 459,-37 569,-37 569,-56"/>
<text text-anchor="middle" x="514" y="-44" font-family="Vera Sans, DejaVu Sans, Liberation Sans, Arial, Helvetica, sans" font-size="10.00">CatalogSourceModel</text>
</a>
</g>
</g>
<!-- SurfaceBrightnessModel -->
<g id="node2" class="node">
<title>SurfaceBrightnessModel</title>
<g id="a_node2"><a xlink:title="The base class for simulator source specified as surface brightness.">
<polygon fill="white" stroke="black" stroke-width="0.5" points="395,-38 270,-38 270,-19 395,-19 395,-38"/>
<text text-anchor="middle" x="332.5" y="-26" font-family="Vera Sans, DejaVu Sans, Liberation Sans, Arial, Helvetica, sans" font-size="10.00">SurfaceBrightnessModel</text>
</a>
</g>
</g>
<!-- SurfaceBrightnessModel&#45;&gt;CatalogSourceModel -->
<g id="edge1" class="edge">
<title>SurfaceBrightnessModel&#45;&gt;CatalogSourceModel</title>
<path fill="none" stroke="black" stroke-width="0.5" d="M395.02,-34.67C413.95,-36.57 434.74,-38.65 453.52,-40.54"/>
<polygon fill="black" stroke="black" stroke-width="0.5" points="453.61,-42.3 458.76,-41.06 453.96,-38.82 453.61,-42.3"/>
</g>
<!-- ImageSourceModel -->
<g id="node6" class="node">
<title>ImageSourceModel</title>
<g id="a_node6"><a xlink:href="../api/tolteca.simu.sources.ImageSourceModel.html#tolteca.simu.sources.ImageSourceModel" xlink:title="The class for simulator source from FITS image." target="_top">
<polygon fill="white" stroke="black" stroke-width="0.5" points="565.5,-19 462.5,-19 462.5,0 565.5,0 565.5,-19"/>
<text text-anchor="middle" x="514" y="-7" font-family="Vera Sans, DejaVu Sans, Liberation Sans, Arial, Helvetica, sans" font-size="10.00">ImageSourceModel</text>
</a>
</g>
</g>
<!-- SurfaceBrightnessModel&#45;&gt;ImageSourceModel -->
<g id="edge4" class="edge">
<title>SurfaceBrightnessModel&#45;&gt;ImageSourceModel</title>
<path fill="none" stroke="black" stroke-width="0.5" d="M395.02,-21.99C415.15,-19.86 437.38,-17.5 457.06,-15.42"/>
<polygon fill="black" stroke="black" stroke-width="0.5" points="457.49,-17.14 462.28,-14.87 457.12,-13.65 457.49,-17.14"/>
</g>
<!-- DataclassNamespace -->
<g id="node3" class="node">
<title>DataclassNamespace</title>
<g id="a_node3"><a xlink:title="A subclass of `tollan.utils.namespace.Namespace`">
<polygon fill="white" stroke="black" stroke-width="0.5" points="389.5,-107 275.5,-107 275.5,-88 389.5,-88 389.5,-107"/>
<text text-anchor="middle" x="332.5" y="-95" font-family="Vera Sans, DejaVu Sans, Liberation Sans, Arial, Helvetica, sans" font-size="10.00">DataclassNamespace</text>
</a>
</g>
</g>
<!-- ImageSourceConfig -->
<g id="node5" class="node">
<title>ImageSourceConfig</title>
<g id="a_node5"><a xlink:href="../api/tolteca.simu.sources.ImageSourceConfig.html#tolteca.simu.sources.ImageSourceConfig" xlink:title="The config class for image source model created from FITS image file." target="_top">
<polygon fill="white" stroke="black" stroke-width="0.5" points="566.5,-139 461.5,-139 461.5,-120 566.5,-120 566.5,-139"/>
<text text-anchor="middle" x="514" y="-127" font-family="Vera Sans, DejaVu Sans, Liberation Sans, Arial, Helvetica, sans" font-size="10.00">ImageSourceConfig</text>
</a>
</g>
</g>
<!-- DataclassNamespace&#45;&gt;ImageSourceConfig -->
<g id="edge3" class="edge">
<title>DataclassNamespace&#45;&gt;ImageSourceConfig</title>
<path fill="none" stroke="black" stroke-width="0.5" d="M386.87,-107.01C408.78,-110.92 434.16,-115.45 456.39,-119.41"/>
<polygon fill="black" stroke="black" stroke-width="0.5" points="456.15,-121.14 461.38,-120.3 456.76,-117.7 456.15,-121.14"/>
</g>
<!-- PointSourceCatalogSourceConfig -->
<g id="node10" class="node">
<title>PointSourceCatalogSourceConfig</title>
<g id="a_node10"><a xlink:href="../api/tolteca.simu.sources.PointSourceCatalogSourceConfig.html#tolteca.simu.sources.PointSourceCatalogSourceConfig" xlink:title="The config class for point source catalog source model created from" target="_top">
<polygon fill="white" stroke="black" stroke-width="0.5" points="597,-102 431,-102 431,-83 597,-83 597,-102"/>
<text text-anchor="middle" x="514" y="-90" font-family="Vera Sans, DejaVu Sans, Liberation Sans, Arial, Helvetica, sans" font-size="10.00">PointSourceCatalogSourceConfig</text>
</a>
</g>
</g>
<!-- DataclassNamespace&#45;&gt;PointSourceCatalogSourceConfig -->
<g id="edge7" class="edge">
<title>DataclassNamespace&#45;&gt;PointSourceCatalogSourceConfig</title>
<path fill="none" stroke="black" stroke-width="0.5" d="M389.8,-95.93C401.23,-95.61 413.5,-95.27 425.71,-94.93"/>
<polygon fill="black" stroke="black" stroke-width="0.5" points="425.98,-96.67 430.93,-94.79 425.88,-93.18 425.98,-96.67"/>
</g>
<!-- Namespace -->
<g id="node4" class="node">
<title>Namespace</title>
<g id="a_node4"><a xlink:title="A convenient class that manages a set of attributes.">
<polygon fill="white" stroke="black" stroke-width="0.5" points="220,-107 150,-107 150,-88 220,-88 220,-107"/>
<text text-anchor="middle" x="185" y="-95" font-family="Vera Sans, DejaVu Sans, Liberation Sans, Arial, Helvetica, sans" font-size="10.00">Namespace</text>
</a>
</g>
</g>
<!-- Namespace&#45;&gt;DataclassNamespace -->
<g id="edge2" class="edge">
<title>Namespace&#45;&gt;DataclassNamespace</title>
<path fill="none" stroke="black" stroke-width="0.5" d="M220.11,-97.5C235.03,-97.5 253.01,-97.5 270.12,-97.5"/>
<polygon fill="black" stroke="black" stroke-width="0.5" points="270.4,-99.25 275.4,-97.5 270.4,-95.75 270.4,-99.25"/>
</g>
<!-- Model -->
<g id="node7" class="node">
<title>Model</title>
<g id="a_node7"><a xlink:title="Base class for all models.">
<polygon fill="white" stroke="black" stroke-width="0.5" points="77,-38 23,-38 23,-19 77,-19 77,-38"/>
<text text-anchor="middle" x="50" y="-26" font-family="Vera Sans, DejaVu Sans, Liberation Sans, Arial, Helvetica, sans" font-size="10.00">Model</text>
</a>
</g>
</g>
<!-- SourceModelBase -->
<g id="node11" class="node">
<title>SourceModelBase</title>
<polygon fill="white" stroke="black" stroke-width="0.5" points="234,-38 136,-38 136,-19 234,-19 234,-38"/>
<text text-anchor="middle" x="185" y="-26" font-family="Vera Sans, DejaVu Sans, Liberation Sans, Arial, Helvetica, sans" font-size="10.00">SourceModelBase</text>
</g>
<!-- Model&#45;&gt;SourceModelBase -->
<g id="edge8" class="edge">
<title>Model&#45;&gt;SourceModelBase</title>
<path fill="none" stroke="black" stroke-width="0.5" d="M77.28,-28.5C92.57,-28.5 112.41,-28.5 130.82,-28.5"/>
<polygon fill="black" stroke="black" stroke-width="0.5" points="130.98,-30.25 135.98,-28.5 130.98,-26.75 130.98,-30.25"/>
</g>
<!-- NamespaceMixin -->
<g id="node8" class="node">
<title>NamespaceMixin</title>
<g id="a_node8"><a xlink:title="A mixin class that allows converting object to and from dict.">
<polygon fill="white" stroke="black" stroke-width="0.5" points="96.5,-112 3.5,-112 3.5,-93 96.5,-93 96.5,-112"/>
<text text-anchor="middle" x="50" y="-100" font-family="Vera Sans, DejaVu Sans, Liberation Sans, Arial, Helvetica, sans" font-size="10.00">NamespaceMixin</text>
</a>
</g>
</g>
<!-- NamespaceMixin&#45;&gt;Namespace -->
<g id="edge5" class="edge">
<title>NamespaceMixin&#45;&gt;Namespace</title>
<path fill="none" stroke="black" stroke-width="0.5" d="M96.77,-100.78C112.43,-100.19 129.8,-99.54 144.89,-98.97"/>
<polygon fill="black" stroke="black" stroke-width="0.5" points="144.98,-100.72 149.91,-98.78 144.85,-97.22 144.98,-100.72"/>
</g>
<!-- SimpleNamespace -->
<g id="node9" class="node">
<title>SimpleNamespace</title>
<g id="a_node9"><a xlink:title="A simple attribute&#45;based namespace.">
<polygon fill="white" stroke="black" stroke-width="0.5" points="100,-75 0,-75 0,-56 100,-56 100,-75"/>
<text text-anchor="middle" x="50" y="-63" font-family="Vera Sans, DejaVu Sans, Liberation Sans, Arial, Helvetica, sans" font-size="10.00">SimpleNamespace</text>
</a>
</g>
</g>
<!-- SimpleNamespace&#45;&gt;Namespace -->
<g id="edge6" class="edge">
<title>SimpleNamespace&#45;&gt;Namespace</title>
<path fill="none" stroke="black" stroke-width="0.5" d="M90.54,-75.01C107.62,-79.12 127.54,-83.92 144.59,-88.02"/>
<polygon fill="black" stroke="black" stroke-width="0.5" points="144.52,-89.8 149.79,-89.27 145.34,-86.4 144.52,-89.8"/>
</g>
<!-- SourceModelBase&#45;&gt;SurfaceBrightnessModel -->
<g id="edge9" class="edge">
<title>SourceModelBase&#45;&gt;SurfaceBrightnessModel</title>
<path fill="none" stroke="black" stroke-width="0.5" d="M234.05,-28.5C243.86,-28.5 254.36,-28.5 264.7,-28.5"/>
<polygon fill="black" stroke="black" stroke-width="0.5" points="264.75,-30.25 269.75,-28.5 264.75,-26.75 264.75,-30.25"/>
</g>
</g>
</svg>
