<?xml version="1.0" encoding="UTF-8" standalone="no"?>
<!DOCTYPE svg PUBLIC "-//W3C//DTD SVG 1.1//EN"
 "http://www.w3.org/Graphics/SVG/1.1/DTD/svg11.dtd">
<!-- Generated by graphviz version 2.47.2 (20210527.0053)
 -->
<!-- Title: inheritance1312917b84 Pages: 1 -->
<svg width="461pt" height="101pt"
 viewBox="0.00 0.00 461.00 101.00" xmlns="http://www.w3.org/2000/svg" xmlns:xlink="http://www.w3.org/1999/xlink">
<g id="graph0" class="graph" transform="scale(1 1) rotate(0) translate(4 97)">
<title>inheritance1312917b84</title>
<!-- Model -->
<g id="node1" class="node">
<title>Model</title>
<g id="a_node1"><a xlink:title="Base class for all models.">
<polygon fill="white" stroke="black" stroke-width="0.5" points="73,-93 19,-93 19,-74 73,-74 73,-93"/>
<text text-anchor="middle" x="46" y="-81" font-family="Vera Sans, DejaVu Sans, Liberation Sans, Arial, Helvetica, sans" font-size="10.00">Model</text>
</a>
</g>
</g>
<!-- _Model -->
<g id="node4" class="node">
<title>_Model</title>
<polygon fill="white" stroke="black" stroke-width="0.5" points="182,-74 128,-74 128,-55 182,-55 182,-74"/>
<text text-anchor="middle" x="155" y="-62" font-family="Vera Sans, DejaVu Sans, Liberation Sans, Arial, Helvetica, sans" font-size="10.00">_Model</text>
</g>
<!-- Model&#45;&gt;_Model -->
<g id="edge6" class="edge">
<title>Model&#45;&gt;_Model</title>
<path fill="none" stroke="black" stroke-width="0.5" d="M73.18,-78.85C88.07,-76.21 106.83,-72.88 122.53,-70.09"/>
<polygon fill="black" stroke="black" stroke-width="0.5" points="123.11,-71.76 127.72,-69.17 122.5,-68.32 123.11,-71.76"/>
</g>
<!-- NamespaceMixin -->
<g id="node2" class="node">
<title>NamespaceMixin</title>
<g id="a_node2"><a xlink:title="A mixin class that allows converting object to and from dict.">
<polygon fill="white" stroke="black" stroke-width="0.5" points="92,-56 0,-56 0,-37 92,-37 92,-56"/>
<text text-anchor="middle" x="46" y="-44" font-family="Vera Sans, DejaVu Sans, Liberation Sans, Arial, Helvetica, sans" font-size="10.00">NamespaceMixin</text>
</a>
</g>
</g>
<!-- NamespaceMixin&#45;&gt;_Model -->
<g id="edge7" class="edge">
<title>NamespaceMixin&#45;&gt;_Model</title>
<path fill="none" stroke="black" stroke-width="0.5" d="M92.07,-54.08C102.38,-55.82 113.12,-57.62 122.71,-59.24"/>
<polygon fill="black" stroke="black" stroke-width="0.5" points="122.68,-61.01 127.9,-60.11 123.26,-57.55 122.68,-61.01"/>
</g>
<!-- ProjModel -->
<g id="node3" class="node">
<title>ProjModel</title>
<g id="a_node3"><a xlink:title="Base class for models that transform the detector locations.">
<polygon fill="white" stroke="black" stroke-width="0.5" points="287.5,-93 227.5,-93 227.5,-74 287.5,-74 287.5,-93"/>
<text text-anchor="middle" x="257.5" y="-81" font-family="Vera Sans, DejaVu Sans, Liberation Sans, Arial, Helvetica, sans" font-size="10.00">ProjModel</text>
</a>
</g>
</g>
<!-- WyattProjModel -->
<g id="node7" class="node">
<title>WyattProjModel</title>
<g id="a_node7"><a xlink:href="../../api/tolteca.simu.toltec.wyatt.WyattProjModel.html#tolteca.simu.toltec.wyatt.WyattProjModel" xlink:title="A projection model for the Wyatt robot arm." target="_top">
<polygon fill="white" stroke="black" stroke-width="0.5" points="436,-93 350,-93 350,-74 436,-74 436,-93"/>
<text text-anchor="middle" x="393" y="-81" font-family="Vera Sans, DejaVu Sans, Liberation Sans, Arial, Helvetica, sans" font-size="10.00">WyattProjModel</text>
</a>
</g>
</g>
<!-- ProjModel&#45;&gt;WyattProjModel -->
<g id="edge4" class="edge">
<title>ProjModel&#45;&gt;WyattProjModel</title>
<path fill="none" stroke="black" stroke-width="0.5" d="M287.8,-83.5C304.42,-83.5 325.64,-83.5 344.58,-83.5"/>
<polygon fill="black" stroke="black" stroke-width="0.5" points="344.85,-85.25 349.85,-83.5 344.85,-81.75 344.85,-85.25"/>
</g>
<!-- _Model&#45;&gt;ProjModel -->
<g id="edge1" class="edge">
<title>_Model&#45;&gt;ProjModel</title>
<path fill="none" stroke="black" stroke-width="0.5" d="M182.14,-69.44C194.36,-71.75 209.08,-74.53 222.18,-77.01"/>
<polygon fill="black" stroke="black" stroke-width="0.5" points="222.06,-78.77 227.3,-77.98 222.71,-75.33 222.06,-78.77"/>
</g>
<!-- SkyMapModel -->
<g id="node5" class="node">
<title>SkyMapModel</title>
<g id="a_node5"><a xlink:title="A model that describes mapping patterns on the sky.">
<polygon fill="white" stroke="black" stroke-width="0.5" points="297,-56 218,-56 218,-37 297,-37 297,-56"/>
<text text-anchor="middle" x="257.5" y="-44" font-family="Vera Sans, DejaVu Sans, Liberation Sans, Arial, Helvetica, sans" font-size="10.00">SkyMapModel</text>
</a>
</g>
</g>
<!-- _Model&#45;&gt;SkyMapModel -->
<g id="edge2" class="edge">
<title>_Model&#45;&gt;SkyMapModel</title>
<path fill="none" stroke="black" stroke-width="0.5" d="M182.14,-59.82C191.54,-58.13 202.41,-56.19 212.89,-54.31"/>
<polygon fill="black" stroke="black" stroke-width="0.5" points="213.38,-56 217.99,-53.4 212.76,-52.56 213.38,-56"/>
</g>
<!-- WyattLissajousModel -->
<g id="node6" class="node">
<title>WyattLissajousModel</title>
<g id="a_node6"><a xlink:href="../../api/tolteca.simu.toltec.wyatt.WyattLissajousModel.html#tolteca.simu.toltec.wyatt.WyattLissajousModel" xlink:title="WyattLissajousModel" target="_top">
<polygon fill="white" stroke="black" stroke-width="0.5" points="448,-56 338,-56 338,-37 448,-37 448,-56"/>
<text text-anchor="middle" x="393" y="-44" font-family="Vera Sans, DejaVu Sans, Liberation Sans, Arial, Helvetica, sans" font-size="10.00">WyattLissajousModel</text>
</a>
</g>
</g>
<!-- SkyMapModel&#45;&gt;WyattLissajousModel -->
<g id="edge3" class="edge">
<title>SkyMapModel&#45;&gt;WyattLissajousModel</title>
<path fill="none" stroke="black" stroke-width="0.5" d="M297.11,-46.5C308.16,-46.5 320.47,-46.5 332.47,-46.5"/>
<polygon fill="black" stroke="black" stroke-width="0.5" points="332.59,-48.25 337.59,-46.5 332.59,-44.75 332.59,-48.25"/>
</g>
<!-- WyattRasterScanModel -->
<g id="node8" class="node">
<title>WyattRasterScanModel</title>
<g id="a_node8"><a xlink:href="../../api/tolteca.simu.toltec.wyatt.WyattRasterScanModel.html#tolteca.simu.toltec.wyatt.WyattRasterScanModel" xlink:title="WyattRasterScanModel" target="_top">
<polygon fill="white" stroke="black" stroke-width="0.5" points="453,-19 333,-19 333,0 453,0 453,-19"/>
<text text-anchor="middle" x="393" y="-7" font-family="Vera Sans, DejaVu Sans, Liberation Sans, Arial, Helvetica, sans" font-size="10.00">WyattRasterScanModel</text>
</a>
</g>
</g>
<!-- SkyMapModel&#45;&gt;WyattRasterScanModel -->
<g id="edge5" class="edge">
<title>SkyMapModel&#45;&gt;WyattRasterScanModel</title>
<path fill="none" stroke="black" stroke-width="0.5" d="M292.88,-36.97C310.96,-31.96 333.22,-25.79 352.06,-20.57"/>
<polygon fill="black" stroke="black" stroke-width="0.5" points="352.92,-22.15 357.27,-19.12 351.99,-18.77 352.92,-22.15"/>
</g>
</g>
</svg>
