<?xml version="1.0" encoding="UTF-8" standalone="no"?>
<!DOCTYPE svg PUBLIC "-//W3C//DTD SVG 1.1//EN"
 "http://www.w3.org/Graphics/SVG/1.1/DTD/svg11.dtd">
<!-- Generated by graphviz version 2.49.3 (20211023.0002)
 -->
<!-- Title: inheritance8c6136b5ca Pages: 1 -->
<svg width="364pt" height="64pt"
 viewBox="0.00 0.00 364.00 64.00" xmlns="http://www.w3.org/2000/svg" xmlns:xlink="http://www.w3.org/1999/xlink">
<g id="graph0" class="graph" transform="scale(1 1) rotate(0) translate(4 60)">
<title>inheritance8c6136b5ca</title>
<!-- Enum -->
<g id="node1" class="node">
<title>Enum</title>
<g id="a_node1"><a xlink:title="Generic enumeration.">
<polygon fill="white" stroke="black" stroke-width="0.5" points="54,-19 0,-19 0,0 54,0 54,-19"/>
<text text-anchor="middle" x="27" y="-7" font-family="Vera Sans, DejaVu Sans, Liberation Sans, Arial, Helvetica, sans" font-size="10.00">Enum</text>
</a>
</g>
</g>
<!-- Flag -->
<g id="node2" class="node">
<title>Flag</title>
<g id="a_node2"><a xlink:title="Support for flags">
<polygon fill="white" stroke="black" stroke-width="0.5" points="166.5,-19 112.5,-19 112.5,0 166.5,0 166.5,-19"/>
<text text-anchor="middle" x="139.5" y="-7" font-family="Vera Sans, DejaVu Sans, Liberation Sans, Arial, Helvetica, sans" font-size="10.00">Flag</text>
</a>
</g>
</g>
<!-- Enum&#45;&gt;Flag -->
<g id="edge1" class="edge">
<title>Enum&#45;&gt;Flag</title>
<path fill="none" stroke="black" stroke-width="0.5" d="M54.19,-9.5C70.03,-9.5 90.34,-9.5 107.06,-9.5"/>
<polygon fill="black" stroke="black" stroke-width="0.5" points="107.12,-11.25 112.12,-9.5 107.12,-7.75 107.12,-11.25"/>
</g>
<!-- PatternKind -->
<g id="node6" class="node">
<title>PatternKind</title>
<g id="a_node6"><a xlink:href="../api/tolteca.simu.mapping.PatternKind.html#tolteca.simu.mapping.PatternKind" xlink:title="The available pattern kinds." target="_top">
<polygon fill="white" stroke="black" stroke-width="0.5" points="325,-19 256,-19 256,0 325,0 325,-19"/>
<text text-anchor="middle" x="290.5" y="-7" font-family="Vera Sans, DejaVu Sans, Liberation Sans, Arial, Helvetica, sans" font-size="10.00">PatternKind</text>
</a>
</g>
</g>
<!-- Flag&#45;&gt;PatternKind -->
<g id="edge3" class="edge">
<title>Flag&#45;&gt;PatternKind</title>
<path fill="none" stroke="black" stroke-width="0.5" d="M166.8,-9.5C190.06,-9.5 224.31,-9.5 250.72,-9.5"/>
<polygon fill="black" stroke="black" stroke-width="0.5" points="250.89,-11.25 255.89,-9.5 250.89,-7.75 250.89,-11.25"/>
</g>
<!-- LmtTcsTrajMappingModel -->
<g id="node3" class="node">
<title>LmtTcsTrajMappingModel</title>
<g id="a_node3"><a xlink:href="../api/tolteca.simu.mapping.LmtTcsTrajMappingModel.html#tolteca.simu.mapping.LmtTcsTrajMappingModel" xlink:title="The class for to describe trajectories loaded from LMT TCS ``tel.nc``" target="_top">
<polygon fill="white" stroke="black" stroke-width="0.5" points="356,-56 225,-56 225,-37 356,-37 356,-56"/>
<text text-anchor="middle" x="290.5" y="-44" font-family="Vera Sans, DejaVu Sans, Liberation Sans, Arial, Helvetica, sans" font-size="10.00">LmtTcsTrajMappingModel</text>
</a>
</g>
</g>
<!-- TrajMappingModel -->
<g id="node4" class="node">
<title>TrajMappingModel</title>
<g id="a_node4"><a xlink:title="The base class for mapping models in absolute coordinates.">
<polygon fill="white" stroke="black" stroke-width="0.5" points="189,-56 90,-56 90,-37 189,-37 189,-56"/>
<text text-anchor="middle" x="139.5" y="-44" font-family="Vera Sans, DejaVu Sans, Liberation Sans, Arial, Helvetica, sans" font-size="10.00">TrajMappingModel</text>
</a>
</g>
</g>
<!-- TrajMappingModel&#45;&gt;LmtTcsTrajMappingModel -->
<g id="edge2" class="edge">
<title>TrajMappingModel&#45;&gt;LmtTcsTrajMappingModel</title>
<path fill="none" stroke="black" stroke-width="0.5" d="M189.29,-46.5C199.06,-46.5 209.51,-46.5 219.83,-46.5"/>
<polygon fill="black" stroke="black" stroke-width="0.5" points="219.88,-48.25 224.88,-46.5 219.88,-44.75 219.88,-48.25"/>
</g>
<!-- Model -->
<g id="node5" class="node">
<title>Model</title>
<g id="a_node5"><a xlink:title="Base class for all models.">
<polygon fill="white" stroke="black" stroke-width="0.5" points="54,-56 0,-56 0,-37 54,-37 54,-56"/>
<text text-anchor="middle" x="27" y="-44" font-family="Vera Sans, DejaVu Sans, Liberation Sans, Arial, Helvetica, sans" font-size="10.00">Model</text>
</a>
</g>
</g>
<!-- Model&#45;&gt;TrajMappingModel -->
<g id="edge4" class="edge">
<title>Model&#45;&gt;TrajMappingModel</title>
<path fill="none" stroke="black" stroke-width="0.5" d="M54.19,-46.5C63.4,-46.5 74.12,-46.5 84.77,-46.5"/>
<polygon fill="black" stroke="black" stroke-width="0.5" points="84.98,-48.25 89.98,-46.5 84.98,-44.75 84.98,-48.25"/>
</g>
</g>
</svg>
