<?xml version="1.0" encoding="UTF-8" standalone="no"?>
<!DOCTYPE svg PUBLIC "-//W3C//DTD SVG 1.1//EN"
 "http://www.w3.org/Graphics/SVG/1.1/DTD/svg11.dtd">
<!-- Generated by graphviz version 2.49.3 (20211023.0002)
 -->
<!-- Title: inheritance5bfcabf972 Pages: 1 -->
<svg width="490pt" height="138pt"
 viewBox="0.00 0.00 490.00 138.00" xmlns="http://www.w3.org/2000/svg" xmlns:xlink="http://www.w3.org/1999/xlink">
<g id="graph0" class="graph" transform="scale(1 1) rotate(0) translate(4 134)">
<title>inheritance5bfcabf972</title>
<!-- Citlali -->
<g id="node1" class="node">
<title>Citlali</title>
<g id="a_node1"><a xlink:href="../api/tolteca.reduce.engines.Citlali.html#tolteca.reduce.engines.Citlali" xlink:title="A wrapper class of Citlali, the TolTEC data reduction pipeline" target="_top">
<polygon fill="white" stroke="black" stroke-width="0.5" points="198,-19 144,-19 144,0 198,0 198,-19"/>
<text text-anchor="middle" x="171" y="-7" font-family="Vera Sans, DejaVu Sans, Liberation Sans, Arial, Helvetica, sans" font-size="10.00">Citlali</text>
</a>
</g>
</g>
<!-- PipelineEngine -->
<g id="node2" class="node">
<title>PipelineEngine</title>
<g id="a_node2"><a xlink:title="Base class for pipeline engine.">
<polygon fill="white" stroke="black" stroke-width="0.5" points="91.5,-19 8.5,-19 8.5,0 91.5,0 91.5,-19"/>
<text text-anchor="middle" x="50" y="-7" font-family="Vera Sans, DejaVu Sans, Liberation Sans, Arial, Helvetica, sans" font-size="10.00">PipelineEngine</text>
</a>
</g>
</g>
<!-- PipelineEngine&#45;&gt;Citlali -->
<g id="edge1" class="edge">
<title>PipelineEngine&#45;&gt;Citlali</title>
<path fill="none" stroke="black" stroke-width="0.5" d="M91.62,-9.5C106.97,-9.5 124.19,-9.5 138.58,-9.5"/>
<polygon fill="black" stroke="black" stroke-width="0.5" points="138.74,-11.25 143.74,-9.5 138.74,-7.75 138.74,-11.25"/>
</g>
<!-- CitlaliConfig -->
<g id="node3" class="node">
<title>CitlaliConfig</title>
<g id="a_node3"><a xlink:href="../api/tolteca.reduce.engines.CitlaliConfig.html#tolteca.reduce.engines.CitlaliConfig" xlink:title="The high&#45;level config for Citlali." target="_top">
<polygon fill="white" stroke="black" stroke-width="0.5" points="85,-56 15,-56 15,-37 85,-37 85,-56"/>
<text text-anchor="middle" x="50" y="-44" font-family="Vera Sans, DejaVu Sans, Liberation Sans, Arial, Helvetica, sans" font-size="10.00">CitlaliConfig</text>
</a>
</g>
</g>
<!-- CitlaliStepConfig -->
<g id="node4" class="node">
<title>CitlaliStepConfig</title>
<g id="a_node4"><a xlink:href="../api/tolteca.reduce.engines.CitlaliStepConfig.html#tolteca.reduce.engines.CitlaliStepConfig" xlink:title="The config class for reduction with Citlali." target="_top">
<polygon fill="white" stroke="black" stroke-width="0.5" points="482,-111 392,-111 392,-92 482,-92 482,-111"/>
<text text-anchor="middle" x="437" y="-99" font-family="Vera Sans, DejaVu Sans, Liberation Sans, Arial, Helvetica, sans" font-size="10.00">CitlaliStepConfig</text>
</a>
</g>
</g>
<!-- DataclassNamespace -->
<g id="node5" class="node">
<title>DataclassNamespace</title>
<g id="a_node5"><a xlink:title="A subclass of `tollan.utils.namespace.Namespace`">
<polygon fill="white" stroke="black" stroke-width="0.5" points="356,-111 242,-111 242,-92 356,-92 356,-111"/>
<text text-anchor="middle" x="299" y="-99" font-family="Vera Sans, DejaVu Sans, Liberation Sans, Arial, Helvetica, sans" font-size="10.00">DataclassNamespace</text>
</a>
</g>
</g>
<!-- DataclassNamespace&#45;&gt;CitlaliStepConfig -->
<g id="edge2" class="edge">
<title>DataclassNamespace&#45;&gt;CitlaliStepConfig</title>
<path fill="none" stroke="black" stroke-width="0.5" d="M356.1,-101.5C366.2,-101.5 376.65,-101.5 386.54,-101.5"/>
<polygon fill="black" stroke="black" stroke-width="0.5" points="386.65,-103.25 391.65,-101.5 386.65,-99.75 386.65,-103.25"/>
</g>
<!-- Namespace -->
<g id="node6" class="node">
<title>Namespace</title>
<g id="a_node6"><a xlink:title="A convenient class that manages a set of attributes.">
<polygon fill="white" stroke="black" stroke-width="0.5" points="206,-111 136,-111 136,-92 206,-92 206,-111"/>
<text text-anchor="middle" x="171" y="-99" font-family="Vera Sans, DejaVu Sans, Liberation Sans, Arial, Helvetica, sans" font-size="10.00">Namespace</text>
</a>
</g>
</g>
<!-- Namespace&#45;&gt;DataclassNamespace -->
<g id="edge3" class="edge">
<title>Namespace&#45;&gt;DataclassNamespace</title>
<path fill="none" stroke="black" stroke-width="0.5" d="M206.1,-101.5C215.49,-101.5 225.98,-101.5 236.42,-101.5"/>
<polygon fill="black" stroke="black" stroke-width="0.5" points="236.53,-103.25 241.53,-101.5 236.53,-99.75 236.53,-103.25"/>
</g>
<!-- NamespaceMixin -->
<g id="node7" class="node">
<title>NamespaceMixin</title>
<g id="a_node7"><a xlink:title="A mixin class that allows converting object to and from dict.">
<polygon fill="white" stroke="black" stroke-width="0.5" points="96.5,-130 3.5,-130 3.5,-111 96.5,-111 96.5,-130"/>
<text text-anchor="middle" x="50" y="-118" font-family="Vera Sans, DejaVu Sans, Liberation Sans, Arial, Helvetica, sans" font-size="10.00">NamespaceMixin</text>
</a>
</g>
</g>
<!-- NamespaceMixin&#45;&gt;Namespace -->
<g id="edge4" class="edge">
<title>NamespaceMixin&#45;&gt;Namespace</title>
<path fill="none" stroke="black" stroke-width="0.5" d="M96.67,-113.21C107.82,-111.43 119.66,-109.54 130.5,-107.81"/>
<polygon fill="black" stroke="black" stroke-width="0.5" points="131.07,-109.49 135.73,-106.97 130.52,-106.03 131.07,-109.49"/>
</g>
<!-- SimpleNamespace -->
<g id="node8" class="node">
<title>SimpleNamespace</title>
<g id="a_node8"><a xlink:title="A simple attribute&#45;based namespace.">
<polygon fill="white" stroke="black" stroke-width="0.5" points="100,-93 0,-93 0,-74 100,-74 100,-93"/>
<text text-anchor="middle" x="50" y="-81" font-family="Vera Sans, DejaVu Sans, Liberation Sans, Arial, Helvetica, sans" font-size="10.00">SimpleNamespace</text>
</a>
</g>
</g>
<!-- SimpleNamespace&#45;&gt;Namespace -->
<g id="edge5" class="edge">
<title>SimpleNamespace&#45;&gt;Namespace</title>
<path fill="none" stroke="black" stroke-width="0.5" d="M100.09,-90.93C110.34,-92.48 121.01,-94.09 130.85,-95.58"/>
<polygon fill="black" stroke="black" stroke-width="0.5" points="130.7,-97.33 135.9,-96.34 131.22,-93.86 130.7,-97.33"/>
</g>
</g>
</svg>
