<?xml version="1.0" encoding="UTF-8" standalone="no"?>
<!DOCTYPE svg PUBLIC "-//W3C//DTD SVG 1.1//EN"
 "http://www.w3.org/Graphics/SVG/1.1/DTD/svg11.dtd">
<!-- Generated by graphviz version 2.49.3 (20211023.0002)
 -->
<!-- Title: inheritance621a6b74ea Pages: 1 -->
<svg width="239pt" height="101pt"
 viewBox="0.00 0.00 239.00 101.00" xmlns="http://www.w3.org/2000/svg" xmlns:xlink="http://www.w3.org/1999/xlink">
<g id="graph0" class="graph" transform="scale(1 1) rotate(0) translate(4 97)">
<title>inheritance621a6b74ea</title>
<!-- RuntimeBase -->
<g id="node1" class="node">
<title>RuntimeBase</title>
<g id="a_node1"><a xlink:href="../api/tolteca.utils.RuntimeBase.html#tolteca.utils.RuntimeBase" xlink:title="A base class that consumes `RuntimeContext`." target="_top">
<polygon fill="white" stroke="black" stroke-width="0.5" points="88,-19 11,-19 11,0 88,0 88,-19"/>
<text text-anchor="middle" x="49.5" y="-7" font-family="Vera Sans, DejaVu Sans, Liberation Sans, Arial, Helvetica, sans" font-size="10.00">RuntimeBase</text>
</a>
</g>
</g>
<!-- WebRuntime -->
<g id="node4" class="node">
<title>WebRuntime</title>
<g id="a_node4"><a xlink:href="../api/tolteca.web.WebRuntime.html#tolteca.web.WebRuntime" xlink:title="A class that manages the runtime context of web apps." target="_top">
<polygon fill="white" stroke="black" stroke-width="0.5" points="220,-19 146,-19 146,0 220,0 220,-19"/>
<text text-anchor="middle" x="183" y="-7" font-family="Vera Sans, DejaVu Sans, Liberation Sans, Arial, Helvetica, sans" font-size="10.00">WebRuntime</text>
</a>
</g>
</g>
<!-- RuntimeBase&#45;&gt;WebRuntime -->
<g id="edge1" class="edge">
<title>RuntimeBase&#45;&gt;WebRuntime</title>
<path fill="none" stroke="black" stroke-width="0.5" d="M88.18,-9.5C104.55,-9.5 123.78,-9.5 140.55,-9.5"/>
<polygon fill="black" stroke="black" stroke-width="0.5" points="140.67,-11.25 145.67,-9.5 140.67,-7.75 140.67,-11.25"/>
</g>
<!-- RuntimeBaseError -->
<g id="node2" class="node">
<title>RuntimeBaseError</title>
<g id="a_node2"><a xlink:href="../api/tolteca.utils.RuntimeBaseError.html#tolteca.utils.RuntimeBaseError" xlink:title="RuntimeBaseError" target="_top">
<polygon fill="white" stroke="black" stroke-width="0.5" points="99,-56 0,-56 0,-37 99,-37 99,-56"/>
<text text-anchor="middle" x="49.5" y="-44" font-family="Vera Sans, DejaVu Sans, Liberation Sans, Arial, Helvetica, sans" font-size="10.00">RuntimeBaseError</text>
</a>
</g>
</g>
<!-- WebRuntimeError -->
<g id="node5" class="node">
<title>WebRuntimeError</title>
<g id="a_node5"><a xlink:href="../api/tolteca.web.WebRuntimeError.html#tolteca.web.WebRuntimeError" xlink:title="WebRuntimeError" target="_top">
<polygon fill="white" stroke="black" stroke-width="0.5" points="231,-56 135,-56 135,-37 231,-37 231,-56"/>
<text text-anchor="middle" x="183" y="-44" font-family="Vera Sans, DejaVu Sans, Liberation Sans, Arial, Helvetica, sans" font-size="10.00">WebRuntimeError</text>
</a>
</g>
</g>
<!-- RuntimeBaseError&#45;&gt;WebRuntimeError -->
<g id="edge2" class="edge">
<title>RuntimeBaseError&#45;&gt;WebRuntimeError</title>
<path fill="none" stroke="black" stroke-width="0.5" d="M99.09,-46.5C109.06,-46.5 119.59,-46.5 129.69,-46.5"/>
<polygon fill="black" stroke="black" stroke-width="0.5" points="129.92,-48.25 134.92,-46.5 129.92,-44.75 129.92,-48.25"/>
</g>
<!-- WebConfig -->
<g id="node3" class="node">
<title>WebConfig</title>
<g id="a_node3"><a xlink:href="../api/tolteca.web.WebConfig.html#tolteca.web.WebConfig" xlink:title="The config for `tolteca.web`." target="_top">
<polygon fill="white" stroke="black" stroke-width="0.5" points="82.5,-93 16.5,-93 16.5,-74 82.5,-74 82.5,-93"/>
<text text-anchor="middle" x="49.5" y="-81" font-family="Vera Sans, DejaVu Sans, Liberation Sans, Arial, Helvetica, sans" font-size="10.00">WebConfig</text>
</a>
</g>
</g>
</g>
</svg>
