<?xml version="1.0" encoding="UTF-8" standalone="no"?>
<!DOCTYPE svg PUBLIC "-//W3C//DTD SVG 1.1//EN"
 "http://www.w3.org/Graphics/SVG/1.1/DTD/svg11.dtd">
<!-- Generated by graphviz version 2.49.3 (20211023.0002)
 -->
<!-- Title: inheritance9b4124b82f Pages: 1 -->
<svg width="501pt" height="64pt"
 viewBox="0.00 0.00 501.00 64.00" xmlns="http://www.w3.org/2000/svg" xmlns:xlink="http://www.w3.org/1999/xlink">
<g id="graph0" class="graph" transform="scale(1 1) rotate(0) translate(4 60)">
<title>inheritance9b4124b82f</title>
<!-- DataclassNamespace -->
<g id="node1" class="node">
<title>DataclassNamespace</title>
<g id="a_node1"><a xlink:title="A subclass of `tollan.utils.namespace.Namespace`">
<polygon fill="white" stroke="black" stroke-width="0.5" points="356,-37 242,-37 242,-18 356,-18 356,-37"/>
<text text-anchor="middle" x="299" y="-25" font-family="Vera Sans, DejaVu Sans, Liberation Sans, Arial, Helvetica, sans" font-size="10.00">DataclassNamespace</text>
</a>
</g>
</g>
<!-- MappingPlotConfig -->
<g id="node3" class="node">
<title>MappingPlotConfig</title>
<g id="a_node3"><a xlink:href="../api/tolteca.simu.plots.MappingPlotConfig.html#tolteca.simu.plots.MappingPlotConfig" xlink:title="The config class for mapping trajectory plot." target="_top">
<polygon fill="white" stroke="black" stroke-width="0.5" points="493,-56 392,-56 392,-37 493,-37 493,-56"/>
<text text-anchor="middle" x="442.5" y="-44" font-family="Vera Sans, DejaVu Sans, Liberation Sans, Arial, Helvetica, sans" font-size="10.00">MappingPlotConfig</text>
</a>
</g>
</g>
<!-- DataclassNamespace&#45;&gt;MappingPlotConfig -->
<g id="edge2" class="edge">
<title>DataclassNamespace&#45;&gt;MappingPlotConfig</title>
<path fill="none" stroke="black" stroke-width="0.5" d="M356.33,-35.06C366.31,-36.4 376.68,-37.8 386.62,-39.13"/>
<polygon fill="black" stroke="black" stroke-width="0.5" points="386.58,-40.89 391.77,-39.82 387.05,-37.42 386.58,-40.89"/>
</g>
<!-- VisibilityPlotConfig -->
<g id="node6" class="node">
<title>VisibilityPlotConfig</title>
<g id="a_node6"><a xlink:href="../api/tolteca.simu.plots.VisibilityPlotConfig.html#tolteca.simu.plots.VisibilityPlotConfig" xlink:title="The config class for visibility plot." target="_top">
<polygon fill="white" stroke="black" stroke-width="0.5" points="492,-19 393,-19 393,0 492,0 492,-19"/>
<text text-anchor="middle" x="442.5" y="-7" font-family="Vera Sans, DejaVu Sans, Liberation Sans, Arial, Helvetica, sans" font-size="10.00">VisibilityPlotConfig</text>
</a>
</g>
</g>
<!-- DataclassNamespace&#45;&gt;VisibilityPlotConfig -->
<g id="edge5" class="edge">
<title>DataclassNamespace&#45;&gt;VisibilityPlotConfig</title>
<path fill="none" stroke="black" stroke-width="0.5" d="M356.33,-20.33C366.66,-19.02 377.42,-17.65 387.68,-16.35"/>
<polygon fill="black" stroke="black" stroke-width="0.5" points="387.93,-18.08 392.67,-15.71 387.49,-14.61 387.93,-18.08"/>
</g>
<!-- Namespace -->
<g id="node2" class="node">
<title>Namespace</title>
<g id="a_node2"><a xlink:title="A convenient class that manages a set of attributes.">
<polygon fill="white" stroke="black" stroke-width="0.5" points="206,-37 136,-37 136,-18 206,-18 206,-37"/>
<text text-anchor="middle" x="171" y="-25" font-family="Vera Sans, DejaVu Sans, Liberation Sans, Arial, Helvetica, sans" font-size="10.00">Namespace</text>
</a>
</g>
</g>
<!-- Namespace&#45;&gt;DataclassNamespace -->
<g id="edge1" class="edge">
<title>Namespace&#45;&gt;DataclassNamespace</title>
<path fill="none" stroke="black" stroke-width="0.5" d="M206.1,-27.5C215.49,-27.5 225.98,-27.5 236.42,-27.5"/>
<polygon fill="black" stroke="black" stroke-width="0.5" points="236.53,-29.25 241.53,-27.5 236.53,-25.75 236.53,-29.25"/>
</g>
<!-- NamespaceMixin -->
<g id="node4" class="node">
<title>NamespaceMixin</title>
<g id="a_node4"><a xlink:title="A mixin class that allows converting object to and from dict.">
<polygon fill="white" stroke="black" stroke-width="0.5" points="96.5,-56 3.5,-56 3.5,-37 96.5,-37 96.5,-56"/>
<text text-anchor="middle" x="50" y="-44" font-family="Vera Sans, DejaVu Sans, Liberation Sans, Arial, Helvetica, sans" font-size="10.00">NamespaceMixin</text>
</a>
</g>
</g>
<!-- NamespaceMixin&#45;&gt;Namespace -->
<g id="edge3" class="edge">
<title>NamespaceMixin&#45;&gt;Namespace</title>
<path fill="none" stroke="black" stroke-width="0.5" d="M96.67,-39.21C107.82,-37.43 119.66,-35.54 130.5,-33.81"/>
<polygon fill="black" stroke="black" stroke-width="0.5" points="131.07,-35.49 135.73,-32.97 130.52,-32.03 131.07,-35.49"/>
</g>
<!-- SimpleNamespace -->
<g id="node5" class="node">
<title>SimpleNamespace</title>
<g id="a_node5"><a xlink:title="A simple attribute&#45;based namespace.">
<polygon fill="white" stroke="black" stroke-width="0.5" points="100,-19 0,-19 0,0 100,0 100,-19"/>
<text text-anchor="middle" x="50" y="-7" font-family="Vera Sans, DejaVu Sans, Liberation Sans, Arial, Helvetica, sans" font-size="10.00">SimpleNamespace</text>
</a>
</g>
</g>
<!-- SimpleNamespace&#45;&gt;Namespace -->
<g id="edge4" class="edge">
<title>SimpleNamespace&#45;&gt;Namespace</title>
<path fill="none" stroke="black" stroke-width="0.5" d="M100.09,-16.93C110.34,-18.48 121.01,-20.09 130.85,-21.58"/>
<polygon fill="black" stroke="black" stroke-width="0.5" points="130.7,-23.33 135.9,-22.34 131.22,-19.86 130.7,-23.33"/>
</g>
</g>
</svg>
