<?xml version="1.0" encoding="UTF-8" standalone="no"?>
<!DOCTYPE svg PUBLIC "-//W3C//DTD SVG 1.1//EN"
 "http://www.w3.org/Graphics/SVG/1.1/DTD/svg11.dtd">
<!-- Generated by graphviz version 2.47.2 (20210527.0053)
 -->
<!-- Title: inheritancee6fdc17545 Pages: 1 -->
<svg width="758pt" height="83pt"
 viewBox="0.00 0.00 758.00 83.00" xmlns="http://www.w3.org/2000/svg" xmlns:xlink="http://www.w3.org/1999/xlink">
<g id="graph0" class="graph" transform="scale(1 1) rotate(0) translate(4 79)">
<title>inheritancee6fdc17545</title>
<!-- ABC -->
<g id="node1" class="node">
<title>ABC</title>
<g id="a_node1"><a xlink:title="Helper class that provides a standard way to create an ABC using">
<polygon fill="white" stroke="black" stroke-width="0.5" points="54,-75 0,-75 0,-56 54,-56 54,-75"/>
<text text-anchor="middle" x="27" y="-63" font-family="Vera Sans, DejaVu Sans, Liberation Sans, Arial, Helvetica, sans" font-size="10.00">ABC</text>
</a>
</g>
</g>
<!-- AbstractContextManager -->
<g id="node2" class="node">
<title>AbstractContextManager</title>
<g id="a_node2"><a xlink:title="An abstract base class for context managers.">
<polygon fill="white" stroke="black" stroke-width="0.5" points="215,-75 90,-75 90,-56 215,-56 215,-75"/>
<text text-anchor="middle" x="152.5" y="-63" font-family="Vera Sans, DejaVu Sans, Liberation Sans, Arial, Helvetica, sans" font-size="10.00">AbstractContextManager</text>
</a>
</g>
</g>
<!-- ABC&#45;&gt;AbstractContextManager -->
<g id="edge1" class="edge">
<title>ABC&#45;&gt;AbstractContextManager</title>
<path fill="none" stroke="black" stroke-width="0.5" d="M54.19,-65.5C63.2,-65.5 73.73,-65.5 84.48,-65.5"/>
<polygon fill="black" stroke="black" stroke-width="0.5" points="84.77,-67.25 89.77,-65.5 84.77,-63.75 84.77,-67.25"/>
</g>
<!-- ExitStack -->
<g id="node4" class="node">
<title>ExitStack</title>
<g id="a_node4"><a xlink:title="Context manager for dynamic management of a stack of exit callbacks.">
<polygon fill="white" stroke="black" stroke-width="0.5" points="310,-56 251,-56 251,-37 310,-37 310,-56"/>
<text text-anchor="middle" x="280.5" y="-44" font-family="Vera Sans, DejaVu Sans, Liberation Sans, Arial, Helvetica, sans" font-size="10.00">ExitStack</text>
</a>
</g>
</g>
<!-- AbstractContextManager&#45;&gt;ExitStack -->
<g id="edge4" class="edge">
<title>AbstractContextManager&#45;&gt;ExitStack</title>
<path fill="none" stroke="black" stroke-width="0.5" d="M215.02,-56.22C225.57,-54.63 236.16,-53.04 245.63,-51.61"/>
<polygon fill="black" stroke="black" stroke-width="0.5" points="246.09,-53.31 250.77,-50.83 245.57,-49.85 246.09,-53.31"/>
</g>
<!-- DataFileIO -->
<g id="node3" class="node">
<title>DataFileIO</title>
<g id="a_node3"><a xlink:title="A base class to help access data file contents.">
<polygon fill="white" stroke="black" stroke-width="0.5" points="462.5,-56 398.5,-56 398.5,-37 462.5,-37 462.5,-56"/>
<text text-anchor="middle" x="430.5" y="-44" font-family="Vera Sans, DejaVu Sans, Liberation Sans, Arial, Helvetica, sans" font-size="10.00">DataFileIO</text>
</a>
</g>
</g>
<!-- TableIO -->
<g id="node7" class="node">
<title>TableIO</title>
<g id="a_node7"><a xlink:title="A class to read tables.">
<polygon fill="white" stroke="black" stroke-width="0.5" points="606,-56 552,-56 552,-37 606,-37 606,-56"/>
<text text-anchor="middle" x="579" y="-44" font-family="Vera Sans, DejaVu Sans, Liberation Sans, Arial, Helvetica, sans" font-size="10.00">TableIO</text>
</a>
</g>
</g>
<!-- DataFileIO&#45;&gt;TableIO -->
<g id="edge8" class="edge">
<title>DataFileIO&#45;&gt;TableIO</title>
<path fill="none" stroke="black" stroke-width="0.5" d="M462.57,-46.5C487.35,-46.5 521.9,-46.5 546.73,-46.5"/>
<polygon fill="black" stroke="black" stroke-width="0.5" points="546.87,-48.25 551.87,-46.5 546.87,-44.75 546.87,-48.25"/>
</g>
<!-- NcFileIO -->
<g id="node8" class="node">
<title>NcFileIO</title>
<g id="a_node8"><a xlink:href="../../api/tolteca.datamodels.io.NcFileIO.html#tolteca.datamodels.io.NcFileIO" xlink:title="A class to read data from TolTEC netCDF files." target="_top">
<polygon fill="white" stroke="black" stroke-width="0.5" points="607,-19 551,-19 551,0 607,0 607,-19"/>
<text text-anchor="middle" x="579" y="-7" font-family="Vera Sans, DejaVu Sans, Liberation Sans, Arial, Helvetica, sans" font-size="10.00">NcFileIO</text>
</a>
</g>
</g>
<!-- DataFileIO&#45;&gt;NcFileIO -->
<g id="edge6" class="edge">
<title>DataFileIO&#45;&gt;NcFileIO</title>
<path fill="none" stroke="black" stroke-width="0.5" d="M462.57,-40.42C478.35,-37.18 497.77,-32.95 515,-28.5 525.08,-25.9 535.96,-22.74 545.81,-19.75"/>
<polygon fill="black" stroke="black" stroke-width="0.5" points="546.58,-21.35 550.85,-18.21 545.55,-18 546.58,-21.35"/>
</g>
<!-- ExitStack&#45;&gt;DataFileIO -->
<g id="edge2" class="edge">
<title>ExitStack&#45;&gt;DataFileIO</title>
<path fill="none" stroke="black" stroke-width="0.5" d="M310.04,-46.5C333.82,-46.5 367.83,-46.5 393.48,-46.5"/>
<polygon fill="black" stroke="black" stroke-width="0.5" points="393.5,-48.25 398.5,-46.5 393.5,-44.75 393.5,-48.25"/>
</g>
<!-- _BaseExitStack -->
<g id="node5" class="node">
<title>_BaseExitStack</title>
<g id="a_node5"><a xlink:title="A base class for ExitStack and AsyncExitStack.">
<polygon fill="white" stroke="black" stroke-width="0.5" points="196,-38 109,-38 109,-19 196,-19 196,-38"/>
<text text-anchor="middle" x="152.5" y="-26" font-family="Vera Sans, DejaVu Sans, Liberation Sans, Arial, Helvetica, sans" font-size="10.00">_BaseExitStack</text>
</a>
</g>
</g>
<!-- _BaseExitStack&#45;&gt;ExitStack -->
<g id="edge3" class="edge">
<title>_BaseExitStack&#45;&gt;ExitStack</title>
<path fill="none" stroke="black" stroke-width="0.5" d="M196.16,-34.59C212.32,-36.9 230.49,-39.5 245.72,-41.67"/>
<polygon fill="black" stroke="black" stroke-width="0.5" points="245.57,-43.42 250.77,-42.4 246.07,-39.96 245.57,-43.42"/>
</g>
<!-- KidsModelParamsIO -->
<g id="node6" class="node">
<title>KidsModelParamsIO</title>
<g id="a_node6"><a xlink:href="../../api/tolteca.datamodels.io.KidsModelParamsIO.html#tolteca.datamodels.io.KidsModelParamsIO" xlink:title="&quot;A class to read KIDs model parameters." target="_top">
<polygon fill="white" stroke="black" stroke-width="0.5" points="750,-56 643,-56 643,-37 750,-37 750,-56"/>
<text text-anchor="middle" x="696.5" y="-44" font-family="Vera Sans, DejaVu Sans, Liberation Sans, Arial, Helvetica, sans" font-size="10.00">KidsModelParamsIO</text>
</a>
</g>
</g>
<!-- TableIO&#45;&gt;KidsModelParamsIO -->
<g id="edge5" class="edge">
<title>TableIO&#45;&gt;KidsModelParamsIO</title>
<path fill="none" stroke="black" stroke-width="0.5" d="M606.21,-46.5C615.67,-46.5 626.77,-46.5 637.86,-46.5"/>
<polygon fill="black" stroke="black" stroke-width="0.5" points="637.95,-48.25 642.95,-46.5 637.95,-44.75 637.95,-48.25"/>
</g>
<!-- _NcFileIOKidsDataAxisSlicerMixin -->
<g id="node9" class="node">
<title>_NcFileIOKidsDataAxisSlicerMixin</title>
<g id="a_node9"><a xlink:title="A helper class to enable slicer interface to `NcFileIO`.">
<polygon fill="white" stroke="black" stroke-width="0.5" points="515,-19 346,-19 346,0 515,0 515,-19"/>
<text text-anchor="middle" x="430.5" y="-7" font-family="Vera Sans, DejaVu Sans, Liberation Sans, Arial, Helvetica, sans" font-size="10.00">_NcFileIOKidsDataAxisSlicerMixin</text>
</a>
</g>
</g>
<!-- _NcFileIOKidsDataAxisSlicerMixin&#45;&gt;NcFileIO -->
<g id="edge7" class="edge">
<title>_NcFileIOKidsDataAxisSlicerMixin&#45;&gt;NcFileIO</title>
<path fill="none" stroke="black" stroke-width="0.5" d="M515.02,-9.5C525.97,-9.5 536.61,-9.5 545.93,-9.5"/>
<polygon fill="black" stroke="black" stroke-width="0.5" points="545.97,-11.25 550.97,-9.5 545.97,-7.75 545.97,-11.25"/>
</g>
</g>
</svg>
