<?xml version="1.0" encoding="UTF-8" standalone="no"?>
<!DOCTYPE svg PUBLIC "-//W3C//DTD SVG 1.1//EN"
 "http://www.w3.org/Graphics/SVG/1.1/DTD/svg11.dtd">
<!-- Generated by graphviz version 2.47.2 (20210527.0053)
 -->
<!-- Title: inheritance21c3577534 Pages: 1 -->
<svg width="372pt" height="64pt"
 viewBox="0.00 0.00 372.00 64.00" xmlns="http://www.w3.org/2000/svg" xmlns:xlink="http://www.w3.org/1999/xlink">
<g id="graph0" class="graph" transform="scale(1 1) rotate(0) translate(4 60)">
<title>inheritance21c3577534</title>
<!-- DirConfError -->
<g id="node1" class="node">
<title>DirConfError</title>
<g id="a_node1"><a xlink:title="Raise when errors occur in `DirConfig`.">
<polygon fill="white" stroke="black" stroke-width="0.5" points="72.5,-19 1.5,-19 1.5,0 72.5,0 72.5,-19"/>
<text text-anchor="middle" x="37" y="-7" font-family="Vera Sans, DejaVu Sans, Liberation Sans, Arial, Helvetica, sans" font-size="10.00">DirConfError</text>
</a>
</g>
</g>
<!-- RuntimeContextError -->
<g id="node6" class="node">
<title>RuntimeContextError</title>
<g id="a_node6"><a xlink:href="../../api/tolteca.utils.RuntimeContextError.html#tolteca.utils.RuntimeContextError" xlink:title="Raise when errors occur in `RuntimeContext`." target="_top">
<polygon fill="white" stroke="black" stroke-width="0.5" points="219,-19 110,-19 110,0 219,0 219,-19"/>
<text text-anchor="middle" x="164.5" y="-7" font-family="Vera Sans, DejaVu Sans, Liberation Sans, Arial, Helvetica, sans" font-size="10.00">RuntimeContextError</text>
</a>
</g>
</g>
<!-- DirConfError&#45;&gt;RuntimeContextError -->
<g id="edge4" class="edge">
<title>DirConfError&#45;&gt;RuntimeContextError</title>
<path fill="none" stroke="black" stroke-width="0.5" d="M72.63,-9.5C82.57,-9.5 93.69,-9.5 104.66,-9.5"/>
<polygon fill="black" stroke="black" stroke-width="0.5" points="104.69,-11.25 109.69,-9.5 104.69,-7.75 104.69,-11.25"/>
</g>
<!-- DirConfMixin -->
<g id="node2" class="node">
<title>DirConfMixin</title>
<g id="a_node2"><a xlink:title="A mix&#45;in class for managing configuration files stored in a directory.">
<polygon fill="white" stroke="black" stroke-width="0.5" points="74,-56 0,-56 0,-37 74,-37 74,-56"/>
<text text-anchor="middle" x="37" y="-44" font-family="Vera Sans, DejaVu Sans, Liberation Sans, Arial, Helvetica, sans" font-size="10.00">DirConfMixin</text>
</a>
</g>
</g>
<!-- RuntimeContext -->
<g id="node4" class="node">
<title>RuntimeContext</title>
<g id="a_node4"><a xlink:href="../../api/tolteca.utils.RuntimeContext.html#tolteca.utils.RuntimeContext" xlink:title="A class to manage runtime contexts." target="_top">
<polygon fill="white" stroke="black" stroke-width="0.5" points="208.5,-56 120.5,-56 120.5,-37 208.5,-37 208.5,-56"/>
<text text-anchor="middle" x="164.5" y="-44" font-family="Vera Sans, DejaVu Sans, Liberation Sans, Arial, Helvetica, sans" font-size="10.00">RuntimeContext</text>
</a>
</g>
</g>
<!-- DirConfMixin&#45;&gt;RuntimeContext -->
<g id="edge3" class="edge">
<title>DirConfMixin&#45;&gt;RuntimeContext</title>
<path fill="none" stroke="black" stroke-width="0.5" d="M74.3,-46.5C86.95,-46.5 101.36,-46.5 114.86,-46.5"/>
<polygon fill="black" stroke="black" stroke-width="0.5" points="115.18,-48.25 120.18,-46.5 115.18,-44.75 115.18,-48.25"/>
</g>
<!-- PipelineRuntime -->
<g id="node3" class="node">
<title>PipelineRuntime</title>
<g id="a_node3"><a xlink:href="../../api/tolteca.reduce.PipelineRuntime.html#tolteca.reduce.PipelineRuntime" xlink:title="A class that manages the runtime of the reduction pipeline." target="_top">
<polygon fill="white" stroke="black" stroke-width="0.5" points="353.5,-56 265.5,-56 265.5,-37 353.5,-37 353.5,-56"/>
<text text-anchor="middle" x="309.5" y="-44" font-family="Vera Sans, DejaVu Sans, Liberation Sans, Arial, Helvetica, sans" font-size="10.00">PipelineRuntime</text>
</a>
</g>
</g>
<!-- RuntimeContext&#45;&gt;PipelineRuntime -->
<g id="edge1" class="edge">
<title>RuntimeContext&#45;&gt;PipelineRuntime</title>
<path fill="none" stroke="black" stroke-width="0.5" d="M208.79,-46.5C225.03,-46.5 243.59,-46.5 260.25,-46.5"/>
<polygon fill="black" stroke="black" stroke-width="0.5" points="260.35,-48.25 265.35,-46.5 260.35,-44.75 260.35,-48.25"/>
</g>
<!-- PipelineRuntimeError -->
<g id="node5" class="node">
<title>PipelineRuntimeError</title>
<g id="a_node5"><a xlink:href="../../api/tolteca.reduce.PipelineRuntimeError.html#tolteca.reduce.PipelineRuntimeError" xlink:title="Raise when errors occur in `PipelineRuntime`." target="_top">
<polygon fill="white" stroke="black" stroke-width="0.5" points="364,-19 255,-19 255,0 364,0 364,-19"/>
<text text-anchor="middle" x="309.5" y="-7" font-family="Vera Sans, DejaVu Sans, Liberation Sans, Arial, Helvetica, sans" font-size="10.00">PipelineRuntimeError</text>
</a>
</g>
</g>
<!-- RuntimeContextError&#45;&gt;PipelineRuntimeError -->
<g id="edge2" class="edge">
<title>RuntimeContextError&#45;&gt;PipelineRuntimeError</title>
<path fill="none" stroke="black" stroke-width="0.5" d="M219.15,-9.5C229.01,-9.5 239.34,-9.5 249.35,-9.5"/>
<polygon fill="black" stroke="black" stroke-width="0.5" points="249.54,-11.25 254.54,-9.5 249.54,-7.75 249.54,-11.25"/>
</g>
</g>
</svg>
