<?xml version="1.0" encoding="UTF-8" standalone="no"?>
<!DOCTYPE svg PUBLIC "-//W3C//DTD SVG 1.1//EN"
 "http://www.w3.org/Graphics/SVG/1.1/DTD/svg11.dtd">
<!-- Generated by graphviz version 2.47.2 (20210527.0053)
 -->
<!-- Title: inheritance42f19b9446 Pages: 1 -->
<svg width="349pt" height="64pt"
 viewBox="0.00 0.00 349.00 64.00" xmlns="http://www.w3.org/2000/svg" xmlns:xlink="http://www.w3.org/1999/xlink">
<g id="graph0" class="graph" transform="scale(1 1) rotate(0) translate(4 60)">
<title>inheritance42f19b9446</title>
<!-- LmtAtmosphereModel -->
<g id="node1" class="node">
<title>LmtAtmosphereModel</title>
<g id="a_node1"><a xlink:href="../../api/tolteca.simu.toltec.lmt.LmtAtmosphereModel.html#tolteca.simu.toltec.lmt.LmtAtmosphereModel" xlink:title="A model of the LMT atmosphere." target="_top">
<polygon fill="white" stroke="black" stroke-width="0.5" points="335.5,-56 223.5,-56 223.5,-37 335.5,-37 335.5,-56"/>
<text text-anchor="middle" x="279.5" y="-44" font-family="Vera Sans, DejaVu Sans, Liberation Sans, Arial, Helvetica, sans" font-size="10.00">LmtAtmosphereModel</text>
</a>
</g>
</g>
<!-- _Model -->
<g id="node2" class="node">
<title>_Model</title>
<polygon fill="white" stroke="black" stroke-width="0.5" points="182,-37 128,-37 128,-18 182,-18 182,-37"/>
<text text-anchor="middle" x="155" y="-25" font-family="Vera Sans, DejaVu Sans, Liberation Sans, Arial, Helvetica, sans" font-size="10.00">_Model</text>
</g>
<!-- _Model&#45;&gt;LmtAtmosphereModel -->
<g id="edge1" class="edge">
<title>_Model&#45;&gt;LmtAtmosphereModel</title>
<path fill="none" stroke="black" stroke-width="0.5" d="M182.28,-31.58C192.89,-33.22 205.61,-35.19 218.27,-37.16"/>
<polygon fill="black" stroke="black" stroke-width="0.5" points="218.1,-38.9 223.31,-37.94 218.63,-35.44 218.1,-38.9"/>
</g>
<!-- LmtAtmosphereTxModel -->
<g id="node3" class="node">
<title>LmtAtmosphereTxModel</title>
<g id="a_node3"><a xlink:href="../../api/tolteca.simu.toltec.lmt.LmtAtmosphereTxModel.html#tolteca.simu.toltec.lmt.LmtAtmosphereTxModel" xlink:title="A model of the LMT atmosphere transmission." target="_top">
<polygon fill="white" stroke="black" stroke-width="0.5" points="341,-19 218,-19 218,0 341,0 341,-19"/>
<text text-anchor="middle" x="279.5" y="-7" font-family="Vera Sans, DejaVu Sans, Liberation Sans, Arial, Helvetica, sans" font-size="10.00">LmtAtmosphereTxModel</text>
</a>
</g>
</g>
<!-- _Model&#45;&gt;LmtAtmosphereTxModel -->
<g id="edge2" class="edge">
<title>_Model&#45;&gt;LmtAtmosphereTxModel</title>
<path fill="none" stroke="black" stroke-width="0.5" d="M182.28,-23.64C191.36,-22.3 201.99,-20.74 212.8,-19.15"/>
<polygon fill="black" stroke="black" stroke-width="0.5" points="213.09,-20.88 217.78,-18.42 212.58,-17.42 213.09,-20.88"/>
</g>
<!-- Model -->
<g id="node4" class="node">
<title>Model</title>
<g id="a_node4"><a xlink:title="Base class for all models.">
<polygon fill="white" stroke="black" stroke-width="0.5" points="73,-56 19,-56 19,-37 73,-37 73,-56"/>
<text text-anchor="middle" x="46" y="-44" font-family="Vera Sans, DejaVu Sans, Liberation Sans, Arial, Helvetica, sans" font-size="10.00">Model</text>
</a>
</g>
</g>
<!-- Model&#45;&gt;_Model -->
<g id="edge3" class="edge">
<title>Model&#45;&gt;_Model</title>
<path fill="none" stroke="black" stroke-width="0.5" d="M73.18,-41.85C88.07,-39.21 106.83,-35.88 122.53,-33.09"/>
<polygon fill="black" stroke="black" stroke-width="0.5" points="123.11,-34.76 127.72,-32.17 122.5,-31.32 123.11,-34.76"/>
</g>
<!-- NamespaceMixin -->
<g id="node5" class="node">
<title>NamespaceMixin</title>
<g id="a_node5"><a xlink:title="A mixin class that allows converting object to and from dict.">
<polygon fill="white" stroke="black" stroke-width="0.5" points="92,-19 0,-19 0,0 92,0 92,-19"/>
<text text-anchor="middle" x="46" y="-7" font-family="Vera Sans, DejaVu Sans, Liberation Sans, Arial, Helvetica, sans" font-size="10.00">NamespaceMixin</text>
</a>
</g>
</g>
<!-- NamespaceMixin&#45;&gt;_Model -->
<g id="edge4" class="edge">
<title>NamespaceMixin&#45;&gt;_Model</title>
<path fill="none" stroke="black" stroke-width="0.5" d="M92.07,-17.08C102.38,-18.82 113.12,-20.62 122.71,-22.24"/>
<polygon fill="black" stroke="black" stroke-width="0.5" points="122.68,-24.01 127.9,-23.11 123.26,-20.55 122.68,-24.01"/>
</g>
</g>
</svg>
