<?xml version="1.0" encoding="UTF-8" standalone="no"?>
<!DOCTYPE svg PUBLIC "-//W3C//DTD SVG 1.1//EN"
 "http://www.w3.org/Graphics/SVG/1.1/DTD/svg11.dtd">
<!-- Generated by graphviz version 2.49.3 (20211023.0002)
 -->
<!-- Title: inheritance93b99dbc43 Pages: 1 -->
<svg width="514pt" height="101pt"
 viewBox="0.00 0.00 514.00 101.00" xmlns="http://www.w3.org/2000/svg" xmlns:xlink="http://www.w3.org/1999/xlink">
<g id="graph0" class="graph" transform="scale(1 1) rotate(0) translate(4 97)">
<title>inheritance93b99dbc43</title>
<!-- DataclassNamespace -->
<g id="node1" class="node">
<title>DataclassNamespace</title>
<g id="a_node1"><a xlink:title="A subclass of `tollan.utils.namespace.Namespace`">
<polygon fill="white" stroke="black" stroke-width="0.5" points="356,-37 242,-37 242,-18 356,-18 356,-37"/>
<text text-anchor="middle" x="299" y="-25" font-family="Vera Sans, DejaVu Sans, Liberation Sans, Arial, Helvetica, sans" font-size="10.00">DataclassNamespace</text>
</a>
</g>
</g>
<!-- LmtOTExporterConfig -->
<g id="node4" class="node">
<title>LmtOTExporterConfig</title>
<g id="a_node4"><a xlink:href="../api/tolteca.simu.exports.LmtOTExporterConfig.html#tolteca.simu.exports.LmtOTExporterConfig" xlink:title="The config class for LMT OT script exporter." target="_top">
<polygon fill="white" stroke="black" stroke-width="0.5" points="506,-37 392,-37 392,-18 506,-18 506,-37"/>
<text text-anchor="middle" x="449" y="-25" font-family="Vera Sans, DejaVu Sans, Liberation Sans, Arial, Helvetica, sans" font-size="10.00">LmtOTExporterConfig</text>
</a>
</g>
</g>
<!-- DataclassNamespace&#45;&gt;LmtOTExporterConfig -->
<g id="edge2" class="edge">
<title>DataclassNamespace&#45;&gt;LmtOTExporterConfig</title>
<path fill="none" stroke="black" stroke-width="0.5" d="M356.37,-27.5C366.25,-27.5 376.58,-27.5 386.58,-27.5"/>
<polygon fill="black" stroke="black" stroke-width="0.5" points="386.78,-29.25 391.78,-27.5 386.78,-25.75 386.78,-29.25"/>
</g>
<!-- Namespace -->
<g id="node2" class="node">
<title>Namespace</title>
<g id="a_node2"><a xlink:title="A convenient class that manages a set of attributes.">
<polygon fill="white" stroke="black" stroke-width="0.5" points="206,-37 136,-37 136,-18 206,-18 206,-37"/>
<text text-anchor="middle" x="171" y="-25" font-family="Vera Sans, DejaVu Sans, Liberation Sans, Arial, Helvetica, sans" font-size="10.00">Namespace</text>
</a>
</g>
</g>
<!-- Namespace&#45;&gt;DataclassNamespace -->
<g id="edge1" class="edge">
<title>Namespace&#45;&gt;DataclassNamespace</title>
<path fill="none" stroke="black" stroke-width="0.5" d="M206.1,-27.5C215.49,-27.5 225.98,-27.5 236.42,-27.5"/>
<polygon fill="black" stroke="black" stroke-width="0.5" points="236.53,-29.25 241.53,-27.5 236.53,-25.75 236.53,-29.25"/>
</g>
<!-- LmtOTComposer -->
<g id="node3" class="node">
<title>LmtOTComposer</title>
<g id="a_node3"><a xlink:href="../api/tolteca.simu.exports.LmtOTComposer.html#tolteca.simu.exports.LmtOTComposer" xlink:title="A class to create LMT OT scripts." target="_top">
<polygon fill="white" stroke="black" stroke-width="0.5" points="96.5,-93 3.5,-93 3.5,-74 96.5,-74 96.5,-93"/>
<text text-anchor="middle" x="50" y="-81" font-family="Vera Sans, DejaVu Sans, Liberation Sans, Arial, Helvetica, sans" font-size="10.00">LmtOTComposer</text>
</a>
</g>
</g>
<!-- NamespaceMixin -->
<g id="node5" class="node">
<title>NamespaceMixin</title>
<g id="a_node5"><a xlink:title="A mixin class that allows converting object to and from dict.">
<polygon fill="white" stroke="black" stroke-width="0.5" points="96.5,-56 3.5,-56 3.5,-37 96.5,-37 96.5,-56"/>
<text text-anchor="middle" x="50" y="-44" font-family="Vera Sans, DejaVu Sans, Liberation Sans, Arial, Helvetica, sans" font-size="10.00">NamespaceMixin</text>
</a>
</g>
</g>
<!-- NamespaceMixin&#45;&gt;Namespace -->
<g id="edge3" class="edge">
<title>NamespaceMixin&#45;&gt;Namespace</title>
<path fill="none" stroke="black" stroke-width="0.5" d="M96.67,-39.21C107.82,-37.43 119.66,-35.54 130.5,-33.81"/>
<polygon fill="black" stroke="black" stroke-width="0.5" points="131.07,-35.49 135.73,-32.97 130.52,-32.03 131.07,-35.49"/>
</g>
<!-- SimpleNamespace -->
<g id="node6" class="node">
<title>SimpleNamespace</title>
<g id="a_node6"><a xlink:title="A simple attribute&#45;based namespace.">
<polygon fill="white" stroke="black" stroke-width="0.5" points="100,-19 0,-19 0,0 100,0 100,-19"/>
<text text-anchor="middle" x="50" y="-7" font-family="Vera Sans, DejaVu Sans, Liberation Sans, Arial, Helvetica, sans" font-size="10.00">SimpleNamespace</text>
</a>
</g>
</g>
<!-- SimpleNamespace&#45;&gt;Namespace -->
<g id="edge4" class="edge">
<title>SimpleNamespace&#45;&gt;Namespace</title>
<path fill="none" stroke="black" stroke-width="0.5" d="M100.09,-16.93C110.34,-18.48 121.01,-20.09 130.85,-21.58"/>
<polygon fill="black" stroke="black" stroke-width="0.5" points="130.7,-23.33 135.9,-22.34 131.22,-19.86 130.7,-23.33"/>
</g>
</g>
</svg>
