<?xml version="1.0" encoding="UTF-8" standalone="no"?>
<!DOCTYPE svg PUBLIC "-//W3C//DTD SVG 1.1//EN"
 "http://www.w3.org/Graphics/SVG/1.1/DTD/svg11.dtd">
<!-- Generated by graphviz version 2.43.0 (0)
 -->
<!-- Title: inheritance125f4f113a Pages: 1 -->
<svg width="249pt" height="98pt"
 viewBox="0.00 0.00 249.44 98.00" xmlns="http://www.w3.org/2000/svg" xmlns:xlink="http://www.w3.org/1999/xlink">
<g id="graph0" class="graph" transform="scale(1 1) rotate(0) translate(4 94)">
<title>inheritance125f4f113a</title>
<polygon fill="white" stroke="transparent" points="-4,4 -4,-94 245.44,-94 245.44,4 -4,4"/>
<!-- ConfigMixin -->
<g id="node1" class="node">
<title>ConfigMixin</title>
<g id="a_node1"><a xlink:href="../../api/tolteca.db.ConfigMixin.html#tolteca.db.ConfigMixin" xlink:title="ConfigMixin" target="_top">
<polygon fill="none" stroke="black" stroke-width="0.5" points="88.94,-18 20.46,-18 20.46,0 88.94,0 88.94,-18"/>
<text text-anchor="middle" x="54.7" y="-6" font-family="Vera Sans, DejaVu Sans, Liberation Sans, Arial, Helvetica, sans" font-size="10.00">ConfigMixin</text>
</a>
</g>
</g>
<!-- DatabaseRuntime -->
<g id="node4" class="node">
<title>DatabaseRuntime</title>
<g id="a_node4"><a xlink:href="../../api/tolteca.db.DatabaseRuntime.html#tolteca.db.DatabaseRuntime" xlink:title="Class to hold database related states." target="_top">
<polygon fill="none" stroke="black" stroke-width="0.5" points="241.46,-18 145.38,-18 145.38,0 241.46,0 241.46,-18"/>
<text text-anchor="middle" x="193.42" y="-6" font-family="Vera Sans, DejaVu Sans, Liberation Sans, Arial, Helvetica, sans" font-size="10.00">DatabaseRuntime</text>
</a>
</g>
</g>
<!-- ConfigMixin&#45;&gt;DatabaseRuntime -->
<g id="edge1" class="edge">
<title>ConfigMixin&#45;&gt;DatabaseRuntime</title>
<path fill="none" stroke="black" stroke-width="0.5" d="M89.14,-9C104.48,-9 123.01,-9 140.12,-9"/>
<polygon fill="black" stroke="black" stroke-width="0.5" points="140.38,-10.75 145.38,-9 140.38,-7.25 140.38,-10.75"/>
</g>
<!-- ConfigValidator -->
<g id="node2" class="node">
<title>ConfigValidator</title>
<g id="a_node2"><a xlink:href="../../api/tolteca.db.ConfigValidator.html#tolteca.db.ConfigValidator" xlink:title="ConfigValidator" target="_top">
<polygon fill="none" stroke="black" stroke-width="0.5" points="96.34,-54 13.06,-54 13.06,-36 96.34,-36 96.34,-54"/>
<text text-anchor="middle" x="54.7" y="-42" font-family="Vera Sans, DejaVu Sans, Liberation Sans, Arial, Helvetica, sans" font-size="10.00">ConfigValidator</text>
</a>
</g>
</g>
<!-- DatabaseConnection -->
<g id="node3" class="node">
<title>DatabaseConnection</title>
<g id="a_node3"><a xlink:href="../../api/tolteca.db.DatabaseConnection.html#tolteca.db.DatabaseConnection" xlink:title="DatabaseConnection" target="_top">
<polygon fill="none" stroke="black" stroke-width="0.5" points="109.6,-90 -0.2,-90 -0.2,-72 109.6,-72 109.6,-90"/>
<text text-anchor="middle" x="54.7" y="-78" font-family="Vera Sans, DejaVu Sans, Liberation Sans, Arial, Helvetica, sans" font-size="10.00">DatabaseConnection</text>
</a>
</g>
</g>
</g>
</svg>
