<?xml version="1.0" encoding="UTF-8" standalone="no"?>
<!DOCTYPE svg PUBLIC "-//W3C//DTD SVG 1.1//EN"
 "http://www.w3.org/Graphics/SVG/1.1/DTD/svg11.dtd">
<!-- Generated by graphviz version 2.42.3 (20191010.1750)
 -->
<!-- Title: inheritance05e428fedb Pages: 1 -->
<svg width="918pt" height="242pt"
 viewBox="0.00 0.00 917.56 242.00" xmlns="http://www.w3.org/2000/svg" xmlns:xlink="http://www.w3.org/1999/xlink">
<g id="graph0" class="graph" transform="scale(1 1) rotate(0) translate(4 238)">
<title>inheritance05e428fedb</title>
<!-- AnimatedItemDelegate -->
<g id="node1" class="node">
<title>AnimatedItemDelegate</title>
<g id="a_node1"><a xlink:href="../../api/tolteca.gui.AnimatedItemDelegate.html#tolteca.gui.AnimatedItemDelegate" xlink:title="AnimatedItemDelegate" target="_top">
<polygon fill="white" stroke="black" stroke-width="0.5" points="742.94,-126 625.49,-126 625.49,-108 742.94,-108 742.94,-126"/>
<text text-anchor="middle" x="684.22" y="-114" font-family="Vera Sans, DejaVu Sans, Liberation Sans, Arial, Helvetica, sans" font-size="10.00">AnimatedItemDelegate</text>
</a>
</g>
</g>
<!-- QStyledItemDelegate -->
<g id="node2" class="node">
<title>QStyledItemDelegate</title>
<g id="a_node2"><a xlink:title="QStyledItemDelegate(parent: QObject = None)">
<polygon fill="white" stroke="black" stroke-width="0.5" points="588.27,-126 477.18,-126 477.18,-108 588.27,-108 588.27,-126"/>
<text text-anchor="middle" x="532.73" y="-114" font-family="Vera Sans, DejaVu Sans, Liberation Sans, Arial, Helvetica, sans" font-size="10.00">QStyledItemDelegate</text>
</a>
</g>
</g>
<!-- QStyledItemDelegate&#45;&gt;AnimatedItemDelegate -->
<g id="edge1" class="edge">
<title>QStyledItemDelegate&#45;&gt;AnimatedItemDelegate</title>
<path fill="none" stroke="black" stroke-width="0.5" d="M588.54,-117C598.85,-117 609.71,-117 620.25,-117"/>
<polygon fill="black" stroke="black" stroke-width="0.5" points="620.39,-118.75 625.39,-117 620.39,-115.25 620.39,-118.75"/>
</g>
<!-- DBStatusPanel -->
<g id="node3" class="node">
<title>DBStatusPanel</title>
<g id="a_node3"><a xlink:href="../../api/tolteca.gui.DBStatusPanel.html#tolteca.gui.DBStatusPanel" xlink:title="DBStatusPanel" target="_top">
<polygon fill="white" stroke="black" stroke-width="0.5" points="574.54,-234 490.91,-234 490.91,-216 574.54,-216 574.54,-234"/>
<text text-anchor="middle" x="532.73" y="-222" font-family="Vera Sans, DejaVu Sans, Liberation Sans, Arial, Helvetica, sans" font-size="10.00">DBStatusPanel</text>
</a>
</g>
</g>
<!-- QWidget -->
<g id="node4" class="node">
<title>QWidget</title>
<g id="a_node4"><a xlink:title="QWidget(parent: QWidget = None, flags: Union[Qt.WindowFlags, Qt.WindowType] = Qt.WindowFlags())">
<polygon fill="white" stroke="black" stroke-width="0.5" points="407.53,-198 352.73,-198 352.73,-180 407.53,-180 407.53,-198"/>
<text text-anchor="middle" x="380.13" y="-186" font-family="Vera Sans, DejaVu Sans, Liberation Sans, Arial, Helvetica, sans" font-size="10.00">QWidget</text>
</a>
</g>
</g>
<!-- QWidget&#45;&gt;DBStatusPanel -->
<g id="edge2" class="edge">
<title>QWidget&#45;&gt;DBStatusPanel</title>
<path fill="none" stroke="black" stroke-width="0.5" d="M407.71,-195.35C430.11,-200.71 462.6,-208.47 488.7,-214.71"/>
<polygon fill="black" stroke="black" stroke-width="0.5" points="488.56,-216.48 493.83,-215.94 489.37,-213.08 488.56,-216.48"/>
</g>
<!-- DataFilesView -->
<g id="node11" class="node">
<title>DataFilesView</title>
<g id="a_node11"><a xlink:href="../../api/tolteca.gui.DataFilesView.html#tolteca.gui.DataFilesView" xlink:title="DataFilesView" target="_top">
<polygon fill="white" stroke="black" stroke-width="0.5" points="572.46,-198 492.99,-198 492.99,-180 572.46,-180 572.46,-198"/>
<text text-anchor="middle" x="532.73" y="-186" font-family="Vera Sans, DejaVu Sans, Liberation Sans, Arial, Helvetica, sans" font-size="10.00">DataFilesView</text>
</a>
</g>
</g>
<!-- QWidget&#45;&gt;DataFilesView -->
<g id="edge6" class="edge">
<title>QWidget&#45;&gt;DataFilesView</title>
<path fill="none" stroke="black" stroke-width="0.5" d="M407.71,-189C429.87,-189 461.91,-189 487.87,-189"/>
<polygon fill="black" stroke="black" stroke-width="0.5" points="487.97,-190.75 492.97,-189 487.97,-187.25 487.97,-190.75"/>
</g>
<!-- QMainWindow -->
<g id="node13" class="node">
<title>QMainWindow</title>
<g id="a_node13"><a xlink:title="QMainWindow(parent: QWidget = None, flags: Union[Qt.WindowFlags, Qt.WindowType] = Qt.WindowFlags())">
<polygon fill="white" stroke="black" stroke-width="0.5" points="573.25,-162 492.21,-162 492.21,-144 573.25,-144 573.25,-162"/>
<text text-anchor="middle" x="532.73" y="-150" font-family="Vera Sans, DejaVu Sans, Liberation Sans, Arial, Helvetica, sans" font-size="10.00">QMainWindow</text>
</a>
</g>
</g>
<!-- QWidget&#45;&gt;QMainWindow -->
<g id="edge14" class="edge">
<title>QWidget&#45;&gt;QMainWindow</title>
<path fill="none" stroke="black" stroke-width="0.5" d="M407.71,-182.65C430.11,-177.29 462.6,-169.53 488.7,-163.29"/>
<polygon fill="black" stroke="black" stroke-width="0.5" points="489.37,-164.92 493.83,-162.06 488.56,-161.52 489.37,-164.92"/>
</g>
<!-- DataFileGroupModel -->
<g id="node5" class="node">
<title>DataFileGroupModel</title>
<g id="a_node5"><a xlink:href="../../api/tolteca.gui.DataFileGroupModel.html#tolteca.gui.DataFileGroupModel" xlink:title="DataFileGroupModel" target="_top">
<polygon fill="white" stroke="black" stroke-width="0.5" points="738.48,-90 629.95,-90 629.95,-72 738.48,-72 738.48,-90"/>
<text text-anchor="middle" x="684.22" y="-78" font-family="Vera Sans, DejaVu Sans, Liberation Sans, Arial, Helvetica, sans" font-size="10.00">DataFileGroupModel</text>
</a>
</g>
</g>
<!-- QFileSystemModel -->
<g id="node6" class="node">
<title>QFileSystemModel</title>
<g id="a_node6"><a xlink:title="QFileSystemModel(parent: QObject = None)">
<polygon fill="white" stroke="black" stroke-width="0.5" points="583.19,-90 482.26,-90 482.26,-72 583.19,-72 583.19,-90"/>
<text text-anchor="middle" x="532.73" y="-78" font-family="Vera Sans, DejaVu Sans, Liberation Sans, Arial, Helvetica, sans" font-size="10.00">QFileSystemModel</text>
</a>
</g>
</g>
<!-- QFileSystemModel&#45;&gt;DataFileGroupModel -->
<g id="edge3" class="edge">
<title>QFileSystemModel&#45;&gt;DataFileGroupModel</title>
<path fill="none" stroke="black" stroke-width="0.5" d="M583.09,-81C596.49,-81 611.14,-81 624.98,-81"/>
<polygon fill="black" stroke="black" stroke-width="0.5" points="625.05,-82.75 630.05,-81 625.05,-79.25 625.05,-82.75"/>
</g>
<!-- DataFileGroupModelFilter -->
<g id="node7" class="node">
<title>DataFileGroupModelFilter</title>
<g id="a_node7"><a xlink:href="../../api/tolteca.gui.DataFileGroupModelFilter.html#tolteca.gui.DataFileGroupModelFilter" xlink:title="DataFileGroupModelFilter" target="_top">
<polygon fill="white" stroke="black" stroke-width="0.5" points="909.81,-18 778.83,-18 778.83,0 909.81,0 909.81,-18"/>
<text text-anchor="middle" x="844.32" y="-6" font-family="Vera Sans, DejaVu Sans, Liberation Sans, Arial, Helvetica, sans" font-size="10.00">DataFileGroupModelFilter</text>
</a>
</g>
</g>
<!-- QSortFilterProxyModel -->
<g id="node8" class="node">
<title>QSortFilterProxyModel</title>
<g id="a_node8"><a xlink:title="QSortFilterProxyModel(parent: QObject = None)">
<polygon fill="white" stroke="black" stroke-width="0.5" points="742.85,-18 625.58,-18 625.58,0 742.85,0 742.85,-18"/>
<text text-anchor="middle" x="684.22" y="-6" font-family="Vera Sans, DejaVu Sans, Liberation Sans, Arial, Helvetica, sans" font-size="10.00">QSortFilterProxyModel</text>
</a>
</g>
</g>
<!-- QSortFilterProxyModel&#45;&gt;DataFileGroupModelFilter -->
<g id="edge4" class="edge">
<title>QSortFilterProxyModel&#45;&gt;DataFileGroupModelFilter</title>
<path fill="none" stroke="black" stroke-width="0.5" d="M743.19,-9C753.19,-9 763.67,-9 773.93,-9"/>
<polygon fill="black" stroke="black" stroke-width="0.5" points="773.95,-10.75 778.95,-9 773.95,-7.25 773.95,-10.75"/>
</g>
<!-- DataFileInfoModel -->
<g id="node9" class="node">
<title>DataFileInfoModel</title>
<g id="a_node9"><a xlink:href="../../api/tolteca.gui.DataFileInfoModel.html#tolteca.gui.DataFileInfoModel" xlink:title="DataFileInfoModel" target="_top">
<polygon fill="white" stroke="black" stroke-width="0.5" points="732.87,-54 635.56,-54 635.56,-36 732.87,-36 732.87,-54"/>
<text text-anchor="middle" x="684.22" y="-42" font-family="Vera Sans, DejaVu Sans, Liberation Sans, Arial, Helvetica, sans" font-size="10.00">DataFileInfoModel</text>
</a>
</g>
</g>
<!-- QAbstractTableModel -->
<g id="node10" class="node">
<title>QAbstractTableModel</title>
<g id="a_node10"><a xlink:title="QAbstractTableModel(parent: QObject = None)">
<polygon fill="white" stroke="black" stroke-width="0.5" points="588.33,-54 477.12,-54 477.12,-36 588.33,-36 588.33,-54"/>
<text text-anchor="middle" x="532.73" y="-42" font-family="Vera Sans, DejaVu Sans, Liberation Sans, Arial, Helvetica, sans" font-size="10.00">QAbstractTableModel</text>
</a>
</g>
</g>
<!-- QAbstractTableModel&#45;&gt;DataFileInfoModel -->
<g id="edge5" class="edge">
<title>QAbstractTableModel&#45;&gt;DataFileInfoModel</title>
<path fill="none" stroke="black" stroke-width="0.5" d="M588.54,-45C602.08,-45 616.55,-45 630.01,-45"/>
<polygon fill="black" stroke="black" stroke-width="0.5" points="630.31,-46.75 635.31,-45 630.31,-43.25 630.31,-46.75"/>
</g>
<!-- Gui -->
<g id="node12" class="node">
<title>Gui</title>
<g id="a_node12"><a xlink:href="../../api/tolteca.gui.Gui.html#tolteca.gui.Gui" xlink:title="Gui" target="_top">
<polygon fill="white" stroke="black" stroke-width="0.5" points="711.22,-162 657.22,-162 657.22,-144 711.22,-144 711.22,-162"/>
<text text-anchor="middle" x="684.22" y="-150" font-family="Vera Sans, DejaVu Sans, Liberation Sans, Arial, Helvetica, sans" font-size="10.00">Gui</text>
</a>
</g>
</g>
<!-- QMainWindow&#45;&gt;Gui -->
<g id="edge7" class="edge">
<title>QMainWindow&#45;&gt;Gui</title>
<path fill="none" stroke="black" stroke-width="0.5" d="M573.39,-153C598,-153 629.17,-153 652.01,-153"/>
<polygon fill="black" stroke="black" stroke-width="0.5" points="652.04,-154.75 657.04,-153 652.04,-151.25 652.04,-154.75"/>
</g>
<!-- GuiRuntime -->
<g id="node14" class="node">
<title>GuiRuntime</title>
<g id="a_node14"><a xlink:href="../../api/tolteca.gui.GuiRuntime.html#tolteca.gui.GuiRuntime" xlink:title="This class manages the runtime resources." target="_top">
<polygon fill="white" stroke="black" stroke-width="0.5" points="414.43,-162 345.83,-162 345.83,-144 414.43,-144 414.43,-162"/>
<text text-anchor="middle" x="380.13" y="-150" font-family="Vera Sans, DejaVu Sans, Liberation Sans, Arial, Helvetica, sans" font-size="10.00">GuiRuntime</text>
</a>
</g>
</g>
<!-- QObject -->
<g id="node15" class="node">
<title>QObject</title>
<g id="a_node15"><a xlink:title="QObject(parent: QObject = None)">
<polygon fill="white" stroke="black" stroke-width="0.5" points="272.59,-161 218.59,-161 218.59,-143 272.59,-143 272.59,-161"/>
<text text-anchor="middle" x="245.59" y="-149" font-family="Vera Sans, DejaVu Sans, Liberation Sans, Arial, Helvetica, sans" font-size="10.00">QObject</text>
</a>
</g>
</g>
<!-- QObject&#45;&gt;QWidget -->
<g id="edge19" class="edge">
<title>QObject&#45;&gt;QWidget</title>
<path fill="none" stroke="black" stroke-width="0.5" d="M272.78,-159.31C294.24,-165.3 324.69,-173.8 347.51,-180.17"/>
<polygon fill="black" stroke="black" stroke-width="0.5" points="347.26,-181.92 352.55,-181.58 348.2,-178.55 347.26,-181.92"/>
</g>
<!-- QObject&#45;&gt;GuiRuntime -->
<g id="edge8" class="edge">
<title>QObject&#45;&gt;GuiRuntime</title>
<path fill="none" stroke="black" stroke-width="0.5" d="M272.78,-152.2C292.05,-152.34 318.58,-152.54 340.31,-152.71"/>
<polygon fill="black" stroke="black" stroke-width="0.5" points="340.43,-154.46 345.44,-152.75 340.46,-150.96 340.43,-154.46"/>
</g>
<!-- QAbstractItemDelegate -->
<g id="node16" class="node">
<title>QAbstractItemDelegate</title>
<g id="a_node16"><a xlink:title="QAbstractItemDelegate(parent: QObject = None)">
<polygon fill="white" stroke="black" stroke-width="0.5" points="440.07,-126 320.19,-126 320.19,-108 440.07,-108 440.07,-126"/>
<text text-anchor="middle" x="380.13" y="-114" font-family="Vera Sans, DejaVu Sans, Liberation Sans, Arial, Helvetica, sans" font-size="10.00">QAbstractItemDelegate</text>
</a>
</g>
</g>
<!-- QObject&#45;&gt;QAbstractItemDelegate -->
<g id="edge9" class="edge">
<title>QObject&#45;&gt;QAbstractItemDelegate</title>
<path fill="none" stroke="black" stroke-width="0.5" d="M272.78,-145.09C292,-140.01 318.42,-133.03 340.12,-127.3"/>
<polygon fill="black" stroke="black" stroke-width="0.5" points="340.57,-128.99 344.95,-126.03 339.67,-125.61 340.57,-128.99"/>
</g>
<!-- QAbstractItemModel -->
<g id="node17" class="node">
<title>QAbstractItemModel</title>
<g id="a_node17"><a xlink:title="QAbstractItemModel(parent: QObject = None)">
<polygon fill="white" stroke="black" stroke-width="0.5" points="433.77,-72 326.49,-72 326.49,-54 433.77,-54 433.77,-72"/>
<text text-anchor="middle" x="380.13" y="-60" font-family="Vera Sans, DejaVu Sans, Liberation Sans, Arial, Helvetica, sans" font-size="10.00">QAbstractItemModel</text>
</a>
</g>
</g>
<!-- QObject&#45;&gt;QAbstractItemModel -->
<g id="edge10" class="edge">
<title>QObject&#45;&gt;QAbstractItemModel</title>
<path fill="none" stroke="black" stroke-width="0.5" d="M258.63,-142.9C273.04,-132.1 298,-113.72 320.16,-99 332.86,-90.56 347.49,-81.63 359,-74.77"/>
<polygon fill="black" stroke="black" stroke-width="0.5" points="360,-76.21 363.41,-72.16 358.21,-73.2 360,-76.21"/>
</g>
<!-- QAbstractItemDelegate&#45;&gt;QStyledItemDelegate -->
<g id="edge18" class="edge">
<title>QAbstractItemDelegate&#45;&gt;QStyledItemDelegate</title>
<path fill="none" stroke="black" stroke-width="0.5" d="M440.22,-117C450.56,-117 461.32,-117 471.69,-117"/>
<polygon fill="black" stroke="black" stroke-width="0.5" points="471.74,-118.75 476.74,-117 471.74,-115.25 471.74,-118.75"/>
</g>
<!-- QAbstractItemModel&#45;&gt;QFileSystemModel -->
<g id="edge13" class="edge">
<title>QAbstractItemModel&#45;&gt;QFileSystemModel</title>
<path fill="none" stroke="black" stroke-width="0.5" d="M433.8,-69.3C447.85,-70.97 463.06,-72.79 477.21,-74.48"/>
<polygon fill="black" stroke="black" stroke-width="0.5" points="477.2,-76.24 482.37,-75.1 477.61,-72.77 477.2,-76.24"/>
</g>
<!-- QAbstractItemModel&#45;&gt;QAbstractTableModel -->
<g id="edge12" class="edge">
<title>QAbstractItemModel&#45;&gt;QAbstractTableModel</title>
<path fill="none" stroke="black" stroke-width="0.5" d="M433.8,-56.7C446.16,-55.23 459.41,-53.64 472.04,-52.13"/>
<polygon fill="black" stroke="black" stroke-width="0.5" points="472.28,-53.87 477.04,-51.54 471.87,-50.39 472.28,-53.87"/>
</g>
<!-- QAbstractProxyModel -->
<g id="node18" class="node">
<title>QAbstractProxyModel</title>
<g id="a_node18"><a xlink:title="QAbstractProxyModel(parent: QObject = None)">
<polygon fill="white" stroke="black" stroke-width="0.5" points="589.48,-18 475.97,-18 475.97,0 589.48,0 589.48,-18"/>
<text text-anchor="middle" x="532.73" y="-6" font-family="Vera Sans, DejaVu Sans, Liberation Sans, Arial, Helvetica, sans" font-size="10.00">QAbstractProxyModel</text>
</a>
</g>
</g>
<!-- QAbstractItemModel&#45;&gt;QAbstractProxyModel -->
<g id="edge11" class="edge">
<title>QAbstractItemModel&#45;&gt;QAbstractProxyModel</title>
<path fill="none" stroke="black" stroke-width="0.5" d="M404.04,-53.95C423.2,-46.47 451.31,-35.7 476.1,-27 483.1,-24.54 490.64,-22.02 497.84,-19.67"/>
<polygon fill="black" stroke="black" stroke-width="0.5" points="498.55,-21.28 502.76,-18.07 497.47,-17.95 498.55,-21.28"/>
</g>
<!-- QAbstractProxyModel&#45;&gt;QSortFilterProxyModel -->
<g id="edge17" class="edge">
<title>QAbstractProxyModel&#45;&gt;QSortFilterProxyModel</title>
<path fill="none" stroke="black" stroke-width="0.5" d="M589.39,-9C599.52,-9 610.15,-9 620.47,-9"/>
<polygon fill="black" stroke="black" stroke-width="0.5" points="620.51,-10.75 625.51,-9 620.51,-7.25 620.51,-10.75"/>
</g>
<!-- wrapper -->
<g id="node19" class="node">
<title>wrapper</title>
<polygon fill="white" stroke="black" stroke-width="0.5" points="171.02,-161 117.02,-161 117.02,-143 171.02,-143 171.02,-161"/>
<text text-anchor="middle" x="144.02" y="-149" font-family="Vera Sans, DejaVu Sans, Liberation Sans, Arial, Helvetica, sans" font-size="10.00">wrapper</text>
</g>
<!-- wrapper&#45;&gt;QObject -->
<g id="edge15" class="edge">
<title>wrapper&#45;&gt;QObject</title>
<path fill="none" stroke="black" stroke-width="0.5" d="M171.18,-152C184,-152 199.54,-152 213.02,-152"/>
<polygon fill="black" stroke="black" stroke-width="0.5" points="213.26,-153.75 218.26,-152 213.26,-150.25 213.26,-153.75"/>
</g>
<!-- QPaintDevice -->
<g id="node20" class="node">
<title>QPaintDevice</title>
<g id="a_node20"><a xlink:title="QPaintDevice()">
<polygon fill="white" stroke="black" stroke-width="0.5" points="284.23,-198 206.96,-198 206.96,-180 284.23,-180 284.23,-198"/>
<text text-anchor="middle" x="245.59" y="-186" font-family="Vera Sans, DejaVu Sans, Liberation Sans, Arial, Helvetica, sans" font-size="10.00">QPaintDevice</text>
</a>
</g>
</g>
<!-- QPaintDevice&#45;&gt;QWidget -->
<g id="edge20" class="edge">
<title>QPaintDevice&#45;&gt;QWidget</title>
<path fill="none" stroke="black" stroke-width="0.5" d="M284.22,-189C304.09,-189 328.21,-189 347.16,-189"/>
<polygon fill="black" stroke="black" stroke-width="0.5" points="347.36,-190.75 352.36,-189 347.36,-187.25 347.36,-190.75"/>
</g>
<!-- simplewrapper -->
<g id="node21" class="node">
<title>simplewrapper</title>
<polygon fill="white" stroke="black" stroke-width="0.5" points="81.04,-179 -0.01,-179 -0.01,-161 81.04,-161 81.04,-179"/>
<text text-anchor="middle" x="40.51" y="-167" font-family="Vera Sans, DejaVu Sans, Liberation Sans, Arial, Helvetica, sans" font-size="10.00">simplewrapper</text>
</g>
<!-- simplewrapper&#45;&gt;wrapper -->
<g id="edge21" class="edge">
<title>simplewrapper&#45;&gt;wrapper</title>
<path fill="none" stroke="black" stroke-width="0.5" d="M81.05,-162.99C91.29,-161.17 102.17,-159.24 111.91,-157.52"/>
<polygon fill="black" stroke="black" stroke-width="0.5" points="112.27,-159.23 116.89,-156.63 111.66,-155.78 112.27,-159.23"/>
</g>
<!-- simplewrapper&#45;&gt;QPaintDevice -->
<g id="edge16" class="edge">
<title>simplewrapper&#45;&gt;QPaintDevice</title>
<path fill="none" stroke="black" stroke-width="0.5" d="M81.15,-173.71C115.81,-176.95 166.02,-181.65 201.63,-184.98"/>
<polygon fill="black" stroke="black" stroke-width="0.5" points="201.63,-186.74 206.77,-185.46 201.96,-183.25 201.63,-186.74"/>
</g>
</g>
</svg>
