<?xml version="1.0" encoding="UTF-8" standalone="no"?>
<!DOCTYPE svg PUBLIC "-//W3C//DTD SVG 1.1//EN"
 "http://www.w3.org/Graphics/SVG/1.1/DTD/svg11.dtd">
<!-- Generated by graphviz version 2.49.3 (20211023.0002)
 -->
<!-- Title: inheritance2d0a8fe33f Pages: 1 -->
<svg width="575pt" height="138pt"
 viewBox="0.00 0.00 575.00 138.00" xmlns="http://www.w3.org/2000/svg" xmlns:xlink="http://www.w3.org/1999/xlink">
<g id="graph0" class="graph" transform="scale(1 1) rotate(0) translate(4 134)">
<title>inheritance2d0a8fe33f</title>
<!-- ABC -->
<g id="node1" class="node">
<title>ABC</title>
<g id="a_node1"><a xlink:title="Helper class that provides a standard way to create an ABC using">
<polygon fill="white" stroke="black" stroke-width="0.5" points="74,-56 20,-56 20,-37 74,-37 74,-56"/>
<text text-anchor="middle" x="47" y="-44" font-family="Vera Sans, DejaVu Sans, Liberation Sans, Arial, Helvetica, sans" font-size="10.00">ABC</text>
</a>
</g>
</g>
<!-- AbstractContextManager -->
<g id="node2" class="node">
<title>AbstractContextManager</title>
<g id="a_node2"><a xlink:title="An abstract base class for context managers.">
<polygon fill="white" stroke="black" stroke-width="0.5" points="257,-56 130,-56 130,-37 257,-37 257,-56"/>
<text text-anchor="middle" x="193.5" y="-44" font-family="Vera Sans, DejaVu Sans, Liberation Sans, Arial, Helvetica, sans" font-size="10.00">AbstractContextManager</text>
</a>
</g>
</g>
<!-- ABC&#45;&gt;AbstractContextManager -->
<g id="edge1" class="edge">
<title>ABC&#45;&gt;AbstractContextManager</title>
<path fill="none" stroke="black" stroke-width="0.5" d="M74.17,-46.5C88.44,-46.5 106.83,-46.5 124.84,-46.5"/>
<polygon fill="black" stroke="black" stroke-width="0.5" points="124.91,-48.25 129.91,-46.5 124.91,-44.75 124.91,-48.25"/>
</g>
<!-- ExitStack -->
<g id="node6" class="node">
<title>ExitStack</title>
<g id="a_node6"><a xlink:title="Context manager for dynamic management of a stack of exit callbacks.">
<polygon fill="white" stroke="black" stroke-width="0.5" points="351,-37 293,-37 293,-18 351,-18 351,-37"/>
<text text-anchor="middle" x="322" y="-25" font-family="Vera Sans, DejaVu Sans, Liberation Sans, Arial, Helvetica, sans" font-size="10.00">ExitStack</text>
</a>
</g>
</g>
<!-- AbstractContextManager&#45;&gt;ExitStack -->
<g id="edge5" class="edge">
<title>AbstractContextManager&#45;&gt;ExitStack</title>
<path fill="none" stroke="black" stroke-width="0.5" d="M257.01,-37.11C267.62,-35.52 278.25,-33.92 287.73,-32.5"/>
<polygon fill="black" stroke="black" stroke-width="0.5" points="288.17,-34.2 292.86,-31.73 287.65,-30.74 288.17,-34.2"/>
</g>
<!-- BasicObsData -->
<g id="node3" class="node">
<title>BasicObsData</title>
<g id="a_node3"><a xlink:href="../api/tolteca.datamodels.toltec.BasicObsData.html#tolteca.datamodels.toltec.BasicObsData" xlink:title="A class that provides unified IO interface to TolTEC basic" target="_top">
<polygon fill="white" stroke="black" stroke-width="0.5" points="567,-37 487,-37 487,-18 567,-18 567,-37"/>
<text text-anchor="middle" x="527" y="-25" font-family="Vera Sans, DejaVu Sans, Liberation Sans, Arial, Helvetica, sans" font-size="10.00">BasicObsData</text>
</a>
</g>
</g>
<!-- DataFileIO -->
<g id="node4" class="node">
<title>DataFileIO</title>
<g id="a_node4"><a xlink:title="A base class to help access data file contents.">
<polygon fill="white" stroke="black" stroke-width="0.5" points="451,-37 387,-37 387,-18 451,-18 451,-37"/>
<text text-anchor="middle" x="419" y="-25" font-family="Vera Sans, DejaVu Sans, Liberation Sans, Arial, Helvetica, sans" font-size="10.00">DataFileIO</text>
</a>
</g>
</g>
<!-- DataFileIO&#45;&gt;BasicObsData -->
<g id="edge2" class="edge">
<title>DataFileIO&#45;&gt;BasicObsData</title>
<path fill="none" stroke="black" stroke-width="0.5" d="M451.23,-27.5C460.69,-27.5 471.28,-27.5 481.44,-27.5"/>
<polygon fill="black" stroke="black" stroke-width="0.5" points="481.71,-29.25 486.71,-27.5 481.71,-25.75 481.71,-29.25"/>
</g>
<!-- BasicObsDataset -->
<g id="node5" class="node">
<title>BasicObsDataset</title>
<g id="a_node5"><a xlink:href="../api/tolteca.datamodels.toltec.BasicObsDataset.html#tolteca.datamodels.toltec.BasicObsDataset" xlink:title="A helper class to access a set of TolTEC basic obs data items." target="_top">
<polygon fill="white" stroke="black" stroke-width="0.5" points="94,-93 0,-93 0,-74 94,-74 94,-93"/>
<text text-anchor="middle" x="47" y="-81" font-family="Vera Sans, DejaVu Sans, Liberation Sans, Arial, Helvetica, sans" font-size="10.00">BasicObsDataset</text>
</a>
</g>
</g>
<!-- ExitStack&#45;&gt;DataFileIO -->
<g id="edge3" class="edge">
<title>ExitStack&#45;&gt;DataFileIO</title>
<path fill="none" stroke="black" stroke-width="0.5" d="M351.25,-27.5C360.75,-27.5 371.49,-27.5 381.53,-27.5"/>
<polygon fill="black" stroke="black" stroke-width="0.5" points="381.71,-29.25 386.71,-27.5 381.71,-25.75 381.71,-29.25"/>
</g>
<!-- _BaseExitStack -->
<g id="node7" class="node">
<title>_BaseExitStack</title>
<g id="a_node7"><a xlink:title="A base class for ExitStack and AsyncExitStack.">
<polygon fill="white" stroke="black" stroke-width="0.5" points="237,-19 150,-19 150,0 237,0 237,-19"/>
<text text-anchor="middle" x="193.5" y="-7" font-family="Vera Sans, DejaVu Sans, Liberation Sans, Arial, Helvetica, sans" font-size="10.00">_BaseExitStack</text>
</a>
</g>
</g>
<!-- _BaseExitStack&#45;&gt;ExitStack -->
<g id="edge4" class="edge">
<title>_BaseExitStack&#45;&gt;ExitStack</title>
<path fill="none" stroke="black" stroke-width="0.5" d="M237.33,-15.59C253.81,-17.94 272.37,-20.58 287.82,-22.78"/>
<polygon fill="black" stroke="black" stroke-width="0.5" points="287.73,-24.53 292.93,-23.51 288.22,-21.07 287.73,-24.53"/>
</g>
<!-- ToltecDataProd -->
<g id="node8" class="node">
<title>ToltecDataProd</title>
<g id="a_node8"><a xlink:href="../api/tolteca.datamodels.toltec.ToltecDataProd.html#tolteca.datamodels.toltec.ToltecDataProd" xlink:title="This class provides access to TolTEC data product info." target="_top">
<polygon fill="white" stroke="black" stroke-width="0.5" points="89.5,-130 4.5,-130 4.5,-111 89.5,-111 89.5,-130"/>
<text text-anchor="middle" x="47" y="-118" font-family="Vera Sans, DejaVu Sans, Liberation Sans, Arial, Helvetica, sans" font-size="10.00">ToltecDataProd</text>
</a>
</g>
</g>
</g>
</svg>
