<?xml version="1.0" encoding="UTF-8" standalone="no"?>
<!DOCTYPE svg PUBLIC "-//W3C//DTD SVG 1.1//EN"
 "http://www.w3.org/Graphics/SVG/1.1/DTD/svg11.dtd">
<!-- Generated by graphviz version 2.42.3 (20191010.1750)
 -->
<!-- Title: inheritancefe5284c951 Pages: 1 -->
<svg width="409pt" height="62pt"
 viewBox="0.00 0.00 409.18 62.00" xmlns="http://www.w3.org/2000/svg" xmlns:xlink="http://www.w3.org/1999/xlink">
<g id="graph0" class="graph" transform="scale(1 1) rotate(0) translate(4 58)">
<title>inheritancefe5284c951</title>
<!-- ABC -->
<g id="node1" class="node">
<title>ABC</title>
<g id="a_node1"><a xlink:title="Helper class that provides a standard way to create an ABC using">
<polygon fill="white" stroke="black" stroke-width="0.5" points="54,-54 0,-54 0,-36 54,-36 54,-54"/>
<text text-anchor="middle" x="27" y="-42" font-family="Vera Sans, DejaVu Sans, Liberation Sans, Arial, Helvetica, sans" font-size="10.00">ABC</text>
</a>
</g>
</g>
<!-- AbstractContextManager -->
<g id="node2" class="node">
<title>AbstractContextManager</title>
<g id="a_node2"><a xlink:title="An abstract base class for context managers.">
<polygon fill="white" stroke="black" stroke-width="0.5" points="216.42,-54 90.19,-54 90.19,-36 216.42,-36 216.42,-54"/>
<text text-anchor="middle" x="153.31" y="-42" font-family="Vera Sans, DejaVu Sans, Liberation Sans, Arial, Helvetica, sans" font-size="10.00">AbstractContextManager</text>
</a>
</g>
</g>
<!-- ABC&#45;&gt;AbstractContextManager -->
<g id="edge1" class="edge">
<title>ABC&#45;&gt;AbstractContextManager</title>
<path fill="none" stroke="black" stroke-width="0.5" d="M54.06,-45C63.26,-45 74.07,-45 85.1,-45"/>
<polygon fill="black" stroke="black" stroke-width="0.5" points="85.17,-46.75 90.17,-45 85.17,-43.25 85.17,-46.75"/>
</g>
<!-- ExitStack -->
<g id="node3" class="node">
<title>ExitStack</title>
<g id="a_node3"><a xlink:title="Context manager for dynamic management of a stack of exit callbacks.">
<polygon fill="white" stroke="black" stroke-width="0.5" points="310.13,-36 252.77,-36 252.77,-18 310.13,-18 310.13,-36"/>
<text text-anchor="middle" x="281.45" y="-24" font-family="Vera Sans, DejaVu Sans, Liberation Sans, Arial, Helvetica, sans" font-size="10.00">ExitStack</text>
</a>
</g>
</g>
<!-- AbstractContextManager&#45;&gt;ExitStack -->
<g id="edge3" class="edge">
<title>AbstractContextManager&#45;&gt;ExitStack</title>
<path fill="none" stroke="black" stroke-width="0.5" d="M216.64,-36.11C227.32,-34.58 238.04,-33.05 247.55,-31.69"/>
<polygon fill="black" stroke="black" stroke-width="0.5" points="248,-33.4 252.7,-30.96 247.51,-29.93 248,-33.4"/>
</g>
<!-- NcFileIO -->
<g id="node5" class="node">
<title>NcFileIO</title>
<g id="a_node5"><a xlink:href="../../api/tolteca.io.NcFileIO.html#tolteca.io.NcFileIO" xlink:title="This class provides methods to access data in netCDF files." target="_top">
<polygon fill="white" stroke="black" stroke-width="0.5" points="401.13,-36 346.34,-36 346.34,-18 401.13,-18 401.13,-36"/>
<text text-anchor="middle" x="373.74" y="-24" font-family="Vera Sans, DejaVu Sans, Liberation Sans, Arial, Helvetica, sans" font-size="10.00">NcFileIO</text>
</a>
</g>
</g>
<!-- ExitStack&#45;&gt;NcFileIO -->
<g id="edge4" class="edge">
<title>ExitStack&#45;&gt;NcFileIO</title>
<path fill="none" stroke="black" stroke-width="0.5" d="M310.52,-27C320.22,-27 331.15,-27 341.11,-27"/>
<polygon fill="black" stroke="black" stroke-width="0.5" points="341.22,-28.75 346.22,-27 341.22,-25.25 341.22,-28.75"/>
</g>
<!-- _BaseExitStack -->
<g id="node4" class="node">
<title>_BaseExitStack</title>
<g id="a_node4"><a xlink:title="A base class for ExitStack and AsyncExitStack.">
<polygon fill="white" stroke="black" stroke-width="0.5" points="196.34,-18 110.27,-18 110.27,0 196.34,0 196.34,-18"/>
<text text-anchor="middle" x="153.31" y="-6" font-family="Vera Sans, DejaVu Sans, Liberation Sans, Arial, Helvetica, sans" font-size="10.00">_BaseExitStack</text>
</a>
</g>
</g>
<!-- _BaseExitStack&#45;&gt;ExitStack -->
<g id="edge2" class="edge">
<title>_BaseExitStack&#45;&gt;ExitStack</title>
<path fill="none" stroke="black" stroke-width="0.5" d="M196.66,-15.04C213.25,-17.41 231.99,-20.09 247.54,-22.3"/>
<polygon fill="black" stroke="black" stroke-width="0.5" points="247.48,-24.06 252.68,-23.04 247.98,-20.6 247.48,-24.06"/>
</g>
</g>
</svg>
