<?xml version="1.0" encoding="UTF-8" standalone="no"?>
<!DOCTYPE svg PUBLIC "-//W3C//DTD SVG 1.1//EN"
 "http://www.w3.org/Graphics/SVG/1.1/DTD/svg11.dtd">
<!-- Generated by graphviz version 2.47.2 (20210527.0053)
 -->
<!-- Title: inheritance9f54455ad4 Pages: 1 -->
<svg width="692pt" height="83pt"
 viewBox="0.00 0.00 692.00 83.00" xmlns="http://www.w3.org/2000/svg" xmlns:xlink="http://www.w3.org/1999/xlink">
<g id="graph0" class="graph" transform="scale(1 1) rotate(0) translate(4 79)">
<title>inheritance9f54455ad4</title>
<!-- ABC -->
<g id="node1" class="node">
<title>ABC</title>
<g id="a_node1"><a xlink:title="Helper class that provides a standard way to create an ABC using">
<polygon fill="white" stroke="black" stroke-width="0.5" points="54,-75 0,-75 0,-56 54,-56 54,-75"/>
<text text-anchor="middle" x="27" y="-63" font-family="Vera Sans, DejaVu Sans, Liberation Sans, Arial, Helvetica, sans" font-size="10.00">ABC</text>
</a>
</g>
</g>
<!-- AbstractContextManager -->
<g id="node2" class="node">
<title>AbstractContextManager</title>
<g id="a_node2"><a xlink:title="An abstract base class for context managers.">
<polygon fill="white" stroke="black" stroke-width="0.5" points="215,-75 90,-75 90,-56 215,-56 215,-75"/>
<text text-anchor="middle" x="152.5" y="-63" font-family="Vera Sans, DejaVu Sans, Liberation Sans, Arial, Helvetica, sans" font-size="10.00">AbstractContextManager</text>
</a>
</g>
</g>
<!-- ABC&#45;&gt;AbstractContextManager -->
<g id="edge1" class="edge">
<title>ABC&#45;&gt;AbstractContextManager</title>
<path fill="none" stroke="black" stroke-width="0.5" d="M54.19,-65.5C63.2,-65.5 73.73,-65.5 84.48,-65.5"/>
<polygon fill="black" stroke="black" stroke-width="0.5" points="84.77,-67.25 89.77,-65.5 84.77,-63.75 84.77,-67.25"/>
</g>
<!-- ExitStack -->
<g id="node4" class="node">
<title>ExitStack</title>
<g id="a_node4"><a xlink:title="Context manager for dynamic management of a stack of exit callbacks.">
<polygon fill="white" stroke="black" stroke-width="0.5" points="310,-56 251,-56 251,-37 310,-37 310,-56"/>
<text text-anchor="middle" x="280.5" y="-44" font-family="Vera Sans, DejaVu Sans, Liberation Sans, Arial, Helvetica, sans" font-size="10.00">ExitStack</text>
</a>
</g>
</g>
<!-- AbstractContextManager&#45;&gt;ExitStack -->
<g id="edge4" class="edge">
<title>AbstractContextManager&#45;&gt;ExitStack</title>
<path fill="none" stroke="black" stroke-width="0.5" d="M215.02,-56.22C225.57,-54.63 236.16,-53.04 245.63,-51.61"/>
<polygon fill="black" stroke="black" stroke-width="0.5" points="246.09,-53.31 250.77,-50.83 245.57,-49.85 246.09,-53.31"/>
</g>
<!-- DataFileIO -->
<g id="node3" class="node">
<title>DataFileIO</title>
<g id="a_node3"><a xlink:title="A base class to help access data file contents.">
<polygon fill="white" stroke="black" stroke-width="0.5" points="432,-56 368,-56 368,-37 432,-37 432,-56"/>
<text text-anchor="middle" x="400" y="-44" font-family="Vera Sans, DejaVu Sans, Liberation Sans, Arial, Helvetica, sans" font-size="10.00">DataFileIO</text>
</a>
</g>
</g>
<!-- SimpleNcFileIO -->
<g id="node7" class="node">
<title>SimpleNcFileIO</title>
<g id="a_node7"><a xlink:title="A class to read netCDF data files.">
<polygon fill="white" stroke="black" stroke-width="0.5" points="576,-37 490,-37 490,-18 576,-18 576,-37"/>
<text text-anchor="middle" x="533" y="-25" font-family="Vera Sans, DejaVu Sans, Liberation Sans, Arial, Helvetica, sans" font-size="10.00">SimpleNcFileIO</text>
</a>
</g>
</g>
<!-- DataFileIO&#45;&gt;SimpleNcFileIO -->
<g id="edge6" class="edge">
<title>DataFileIO&#45;&gt;SimpleNcFileIO</title>
<path fill="none" stroke="black" stroke-width="0.5" d="M432.05,-42C447.68,-39.73 466.97,-36.93 484.43,-34.4"/>
<polygon fill="black" stroke="black" stroke-width="0.5" points="485.08,-36.07 489.78,-33.62 484.58,-32.61 485.08,-36.07"/>
</g>
<!-- ExitStack&#45;&gt;DataFileIO -->
<g id="edge2" class="edge">
<title>ExitStack&#45;&gt;DataFileIO</title>
<path fill="none" stroke="black" stroke-width="0.5" d="M310.24,-46.5C326.01,-46.5 345.71,-46.5 362.54,-46.5"/>
<polygon fill="black" stroke="black" stroke-width="0.5" points="362.67,-48.25 367.67,-46.5 362.67,-44.75 362.67,-48.25"/>
</g>
<!-- _BaseExitStack -->
<g id="node5" class="node">
<title>_BaseExitStack</title>
<g id="a_node5"><a xlink:title="A base class for ExitStack and AsyncExitStack.">
<polygon fill="white" stroke="black" stroke-width="0.5" points="196,-38 109,-38 109,-19 196,-19 196,-38"/>
<text text-anchor="middle" x="152.5" y="-26" font-family="Vera Sans, DejaVu Sans, Liberation Sans, Arial, Helvetica, sans" font-size="10.00">_BaseExitStack</text>
</a>
</g>
</g>
<!-- _BaseExitStack&#45;&gt;ExitStack -->
<g id="edge3" class="edge">
<title>_BaseExitStack&#45;&gt;ExitStack</title>
<path fill="none" stroke="black" stroke-width="0.5" d="M196.16,-34.59C212.32,-36.9 230.49,-39.5 245.72,-41.67"/>
<polygon fill="black" stroke="black" stroke-width="0.5" points="245.57,-43.42 250.77,-42.4 246.07,-39.96 245.57,-43.42"/>
</g>
<!-- LmtTelFileIO -->
<g id="node6" class="node">
<title>LmtTelFileIO</title>
<g id="a_node6"><a xlink:href="../../api/tolteca.simu.toltec.tel.LmtTelFileIO.html#tolteca.simu.toltec.tel.LmtTelFileIO" xlink:title="A class to read the TolTEC dilution fridge data files." target="_top">
<polygon fill="white" stroke="black" stroke-width="0.5" points="684,-37 612,-37 612,-18 684,-18 684,-37"/>
<text text-anchor="middle" x="648" y="-25" font-family="Vera Sans, DejaVu Sans, Liberation Sans, Arial, Helvetica, sans" font-size="10.00">LmtTelFileIO</text>
</a>
</g>
</g>
<!-- SimpleNcFileIO&#45;&gt;LmtTelFileIO -->
<g id="edge5" class="edge">
<title>SimpleNcFileIO&#45;&gt;LmtTelFileIO</title>
<path fill="none" stroke="black" stroke-width="0.5" d="M576.08,-27.5C586.12,-27.5 596.82,-27.5 606.78,-27.5"/>
<polygon fill="black" stroke="black" stroke-width="0.5" points="606.91,-29.25 611.91,-27.5 606.91,-25.75 606.91,-29.25"/>
</g>
<!-- NcNodeMapperMixin -->
<g id="node8" class="node">
<title>NcNodeMapperMixin</title>
<g id="a_node8"><a xlink:title="A mix&#45;in class that help access netCDF4 datasets with mapped names.">
<polygon fill="white" stroke="black" stroke-width="0.5" points="454,-19 346,-19 346,0 454,0 454,-19"/>
<text text-anchor="middle" x="400" y="-7" font-family="Vera Sans, DejaVu Sans, Liberation Sans, Arial, Helvetica, sans" font-size="10.00">NcNodeMapperMixin</text>
</a>
</g>
</g>
<!-- NcNodeMapperMixin&#45;&gt;SimpleNcFileIO -->
<g id="edge7" class="edge">
<title>NcNodeMapperMixin&#45;&gt;SimpleNcFileIO</title>
<path fill="none" stroke="black" stroke-width="0.5" d="M454.28,-16.82C464.3,-18.2 474.7,-19.63 484.53,-20.98"/>
<polygon fill="black" stroke="black" stroke-width="0.5" points="484.41,-22.73 489.6,-21.67 484.89,-19.26 484.41,-22.73"/>
</g>
</g>
</svg>
