<?xml version="1.0" encoding="UTF-8" standalone="no"?>
<!DOCTYPE svg PUBLIC "-//W3C//DTD SVG 1.1//EN"
 "http://www.w3.org/Graphics/SVG/1.1/DTD/svg11.dtd">
<!-- Generated by graphviz version 2.43.0 (0)
 -->
<!-- Title: inheritance74bd01ba04 Pages: 1 -->
<svg width="589pt" height="147pt"
 viewBox="0.00 0.00 588.76 147.00" xmlns="http://www.w3.org/2000/svg" xmlns:xlink="http://www.w3.org/1999/xlink">
<g id="graph0" class="graph" transform="scale(1 1) rotate(0) translate(4 143)">
<title>inheritance74bd01ba04</title>
<polygon fill="white" stroke="transparent" points="-4,4 -4,-143 584.76,-143 584.76,4 -4,4"/>
<!-- NDArithmeticMixin -->
<g id="node1" class="node">
<title>NDArithmeticMixin</title>
<g id="a_node1"><a xlink:title="Mixin class to add arithmetic to an NDData object.">
<polygon fill="none" stroke="black" stroke-width="0.5" points="208.71,-126 110.24,-126 110.24,-108 208.71,-108 208.71,-126"/>
<text text-anchor="middle" x="159.48" y="-114" font-family="Vera Sans, DejaVu Sans, Liberation Sans, Arial, Helvetica, sans" font-size="10.00">NDArithmeticMixin</text>
</a>
</g>
</g>
<!-- NDDataRef -->
<g id="node4" class="node">
<title>NDDataRef</title>
<g id="a_node4"><a xlink:title="Implements `NDData` with all Mixins.">
<polygon fill="none" stroke="black" stroke-width="0.5" points="324.93,-72 257.67,-72 257.67,-54 324.93,-54 324.93,-72"/>
<text text-anchor="middle" x="291.3" y="-60" font-family="Vera Sans, DejaVu Sans, Liberation Sans, Arial, Helvetica, sans" font-size="10.00">NDDataRef</text>
</a>
</g>
</g>
<!-- NDArithmeticMixin&#45;&gt;NDDataRef -->
<g id="edge2" class="edge">
<title>NDArithmeticMixin&#45;&gt;NDDataRef</title>
<path fill="none" stroke="black" stroke-width="0.5" d="M186.15,-107.97C193.46,-105.24 201.4,-102.13 208.59,-99 224.99,-91.86 228.25,-88.28 244.59,-81 249.84,-78.66 255.49,-76.3 260.97,-74.1"/>
<polygon fill="black" stroke="black" stroke-width="0.5" points="261.94,-75.6 265.94,-72.13 260.65,-72.35 261.94,-75.6"/>
</g>
<!-- NDData -->
<g id="node2" class="node">
<title>NDData</title>
<g id="a_node2"><a xlink:title="A container for `numpy.ndarray`&#45;based datasets, using the">
<polygon fill="none" stroke="black" stroke-width="0.5" points="186.48,-90 132.48,-90 132.48,-72 186.48,-72 186.48,-90"/>
<text text-anchor="middle" x="159.48" y="-78" font-family="Vera Sans, DejaVu Sans, Liberation Sans, Arial, Helvetica, sans" font-size="10.00">NDData</text>
</a>
</g>
</g>
<!-- NDData&#45;&gt;NDDataRef -->
<g id="edge5" class="edge">
<title>NDData&#45;&gt;NDDataRef</title>
<path fill="none" stroke="black" stroke-width="0.5" d="M186.75,-77.36C205.68,-74.73 231.51,-71.15 252.63,-68.22"/>
<polygon fill="black" stroke="black" stroke-width="0.5" points="252.9,-69.95 257.61,-67.53 252.42,-66.49 252.9,-69.95"/>
</g>
<!-- NDDataBase -->
<g id="node3" class="node">
<title>NDDataBase</title>
<g id="a_node3"><a xlink:title="Base metaclass that defines the interface for N&#45;dimensional datasets">
<polygon fill="none" stroke="black" stroke-width="0.5" points="74.54,-90 -0.18,-90 -0.18,-72 74.54,-72 74.54,-90"/>
<text text-anchor="middle" x="37.18" y="-78" font-family="Vera Sans, DejaVu Sans, Liberation Sans, Arial, Helvetica, sans" font-size="10.00">NDDataBase</text>
</a>
</g>
</g>
<!-- NDDataBase&#45;&gt;NDData -->
<g id="edge1" class="edge">
<title>NDDataBase&#45;&gt;NDData</title>
<path fill="none" stroke="black" stroke-width="0.5" d="M74.6,-81C91.25,-81 110.79,-81 126.82,-81"/>
<polygon fill="black" stroke="black" stroke-width="0.5" points="127.11,-82.75 132.11,-81 127.11,-79.25 127.11,-82.75"/>
</g>
<!-- TimeStream -->
<g id="node8" class="node">
<title>TimeStream</title>
<g id="a_node8"><a xlink:href="../../api/tolteca.kidsutils.kidsdata.TimeStream.html#tolteca.kidsutils.kidsdata.TimeStream" xlink:title="Container for time stream data." target="_top">
<polygon fill="none" stroke="black" stroke-width="0.5" points="444.14,-105 373.97,-105 373.97,-87 444.14,-87 444.14,-105"/>
<text text-anchor="middle" x="409.06" y="-93" font-family="Vera Sans, DejaVu Sans, Liberation Sans, Arial, Helvetica, sans" font-size="10.00">TimeStream</text>
</a>
</g>
</g>
<!-- NDDataRef&#45;&gt;TimeStream -->
<g id="edge12" class="edge">
<title>NDDataRef&#45;&gt;TimeStream</title>
<path fill="none" stroke="black" stroke-width="0.5" d="M323.93,-72.02C338.61,-76.2 356.14,-81.2 371.39,-85.55"/>
<polygon fill="black" stroke="black" stroke-width="0.5" points="371.18,-87.31 376.46,-86.99 372.14,-83.94 371.18,-87.31"/>
</g>
<!-- Sweep -->
<g id="node10" class="node">
<title>Sweep</title>
<g id="a_node10"><a xlink:href="../../api/tolteca.kidsutils.kidsdata.Sweep.html#tolteca.kidsutils.kidsdata.Sweep" xlink:title="Container for frequency sweep data." target="_top">
<polygon fill="none" stroke="black" stroke-width="0.5" points="436.06,-54 382.06,-54 382.06,-36 436.06,-36 436.06,-54"/>
<text text-anchor="middle" x="409.06" y="-42" font-family="Vera Sans, DejaVu Sans, Liberation Sans, Arial, Helvetica, sans" font-size="10.00">Sweep</text>
</a>
</g>
</g>
<!-- NDDataRef&#45;&gt;Sweep -->
<g id="edge9" class="edge">
<title>NDDataRef&#45;&gt;Sweep</title>
<path fill="none" stroke="black" stroke-width="0.5" d="M325.16,-57.89C341.26,-55.39 360.55,-52.39 376.47,-49.91"/>
<polygon fill="black" stroke="black" stroke-width="0.5" points="377.05,-51.59 381.73,-49.09 376.52,-48.13 377.05,-51.59"/>
</g>
<!-- NDIOMixin -->
<g id="node5" class="node">
<title>NDIOMixin</title>
<g id="a_node5"><a xlink:title="Mixin class to connect NDData to the astropy input/output registry.">
<polygon fill="none" stroke="black" stroke-width="0.5" points="191.81,-54 127.14,-54 127.14,-36 191.81,-36 191.81,-54"/>
<text text-anchor="middle" x="159.48" y="-42" font-family="Vera Sans, DejaVu Sans, Liberation Sans, Arial, Helvetica, sans" font-size="10.00">NDIOMixin</text>
</a>
</g>
</g>
<!-- NDIOMixin&#45;&gt;NDDataRef -->
<g id="edge3" class="edge">
<title>NDIOMixin&#45;&gt;NDDataRef</title>
<path fill="none" stroke="black" stroke-width="0.5" d="M191.9,-49.36C210.01,-51.87 232.91,-55.04 252.06,-57.7"/>
<polygon fill="black" stroke="black" stroke-width="0.5" points="252.16,-59.48 257.35,-58.43 252.64,-56.01 252.16,-59.48"/>
</g>
<!-- NDSlicingMixin -->
<g id="node6" class="node">
<title>NDSlicingMixin</title>
<g id="a_node6"><a xlink:title="Mixin to provide slicing on objects using the `NDData`">
<polygon fill="none" stroke="black" stroke-width="0.5" points="201.21,-18 117.74,-18 117.74,0 201.21,0 201.21,-18"/>
<text text-anchor="middle" x="159.48" y="-6" font-family="Vera Sans, DejaVu Sans, Liberation Sans, Arial, Helvetica, sans" font-size="10.00">NDSlicingMixin</text>
</a>
</g>
</g>
<!-- NDSlicingMixin&#45;&gt;NDDataRef -->
<g id="edge4" class="edge">
<title>NDSlicingMixin&#45;&gt;NDDataRef</title>
<path fill="none" stroke="black" stroke-width="0.5" d="M186.15,-18.03C193.46,-20.76 201.4,-23.87 208.59,-27 224.99,-34.14 228.25,-37.72 244.59,-45 249.84,-47.34 255.49,-49.7 260.97,-51.9"/>
<polygon fill="black" stroke="black" stroke-width="0.5" points="260.65,-53.65 265.94,-53.87 261.94,-50.4 260.65,-53.65"/>
</g>
<!-- RawTimeStream -->
<g id="node7" class="node">
<title>RawTimeStream</title>
<g id="a_node7"><a xlink:href="../../api/tolteca.kidsutils.kidsdata.RawTimeStream.html#tolteca.kidsutils.kidsdata.RawTimeStream" xlink:title="Container for the raw in&#45;phase (i) and quadrature (q) data." target="_top">
<polygon fill="none" stroke="black" stroke-width="0.5" points="575.52,-139 485.34,-139 485.34,-121 575.52,-121 575.52,-139"/>
<text text-anchor="middle" x="530.43" y="-127" font-family="Vera Sans, DejaVu Sans, Liberation Sans, Arial, Helvetica, sans" font-size="10.00">RawTimeStream</text>
</a>
</g>
</g>
<!-- TimeStream&#45;&gt;RawTimeStream -->
<g id="edge6" class="edge">
<title>TimeStream&#45;&gt;RawTimeStream</title>
<path fill="none" stroke="black" stroke-width="0.5" d="M441.73,-105.02C457.38,-109.48 476.35,-114.88 492.64,-119.52"/>
<polygon fill="black" stroke="black" stroke-width="0.5" points="492.32,-121.25 497.61,-120.94 493.28,-117.88 492.32,-121.25"/>
</g>
<!-- SolvedTimeStream -->
<g id="node9" class="node">
<title>SolvedTimeStream</title>
<g id="a_node9"><a xlink:href="../../api/tolteca.kidsutils.kidsdata.SolvedTimeStream.html#tolteca.kidsutils.kidsdata.SolvedTimeStream" xlink:title="Container for the solved detuning (x) and loss (r) data." target="_top">
<polygon fill="none" stroke="black" stroke-width="0.5" points="580.59,-103 480.27,-103 480.27,-85 580.59,-85 580.59,-103"/>
<text text-anchor="middle" x="530.43" y="-91" font-family="Vera Sans, DejaVu Sans, Liberation Sans, Arial, Helvetica, sans" font-size="10.00">SolvedTimeStream</text>
</a>
</g>
</g>
<!-- TimeStream&#45;&gt;SolvedTimeStream -->
<g id="edge7" class="edge">
<title>TimeStream&#45;&gt;SolvedTimeStream</title>
<path fill="none" stroke="black" stroke-width="0.5" d="M444.26,-95.43C453.86,-95.27 464.53,-95.09 474.98,-94.91"/>
<polygon fill="black" stroke="black" stroke-width="0.5" points="475.12,-96.66 480.09,-94.83 475.07,-93.16 475.12,-96.66"/>
</g>
<!-- TargetSweep -->
<g id="node12" class="node">
<title>TargetSweep</title>
<g id="a_node12"><a xlink:href="../../api/tolteca.kidsutils.kidsdata.TargetSweep.html#tolteca.kidsutils.kidsdata.TargetSweep" xlink:title="TargetSweep" target="_top">
<polygon fill="none" stroke="black" stroke-width="0.5" points="567.8,-63 493.06,-63 493.06,-45 567.8,-45 567.8,-63"/>
<text text-anchor="middle" x="530.43" y="-51" font-family="Vera Sans, DejaVu Sans, Liberation Sans, Arial, Helvetica, sans" font-size="10.00">TargetSweep</text>
</a>
</g>
</g>
<!-- Sweep&#45;&gt;TargetSweep -->
<g id="edge10" class="edge">
<title>Sweep&#45;&gt;TargetSweep</title>
<path fill="none" stroke="black" stroke-width="0.5" d="M436.25,-46.98C451.31,-48.11 470.56,-49.56 487.65,-50.85"/>
<polygon fill="black" stroke="black" stroke-width="0.5" points="487.76,-52.61 492.88,-51.24 488.03,-49.12 487.76,-52.61"/>
</g>
<!-- VnaSweep -->
<g id="node14" class="node">
<title>VnaSweep</title>
<g id="a_node14"><a xlink:href="../../api/tolteca.kidsutils.kidsdata.VnaSweep.html#tolteca.kidsutils.kidsdata.VnaSweep" xlink:title="VnaSweep" target="_top">
<polygon fill="none" stroke="black" stroke-width="0.5" points="562.8,-27 498.06,-27 498.06,-9 562.8,-9 562.8,-27"/>
<text text-anchor="middle" x="530.43" y="-15" font-family="Vera Sans, DejaVu Sans, Liberation Sans, Arial, Helvetica, sans" font-size="10.00">VnaSweep</text>
</a>
</g>
</g>
<!-- Sweep&#45;&gt;VnaSweep -->
<g id="edge13" class="edge">
<title>Sweep&#45;&gt;VnaSweep</title>
<path fill="none" stroke="black" stroke-width="0.5" d="M436.25,-39.07C452.94,-35.3 474.79,-30.36 493.14,-26.21"/>
<polygon fill="black" stroke="black" stroke-width="0.5" points="493.72,-27.87 498.21,-25.06 492.95,-24.46 493.72,-27.87"/>
</g>
<!-- SweepMixin -->
<g id="node11" class="node">
<title>SweepMixin</title>
<g id="a_node11"><a xlink:href="../../api/tolteca.kidsutils.kidsdata.SweepMixin.html#tolteca.kidsutils.kidsdata.SweepMixin" xlink:title="SweepMixin" target="_top">
<polygon fill="none" stroke="black" stroke-width="0.5" points="326.21,-36 256.39,-36 256.39,-18 326.21,-18 326.21,-36"/>
<text text-anchor="middle" x="291.3" y="-24" font-family="Vera Sans, DejaVu Sans, Liberation Sans, Arial, Helvetica, sans" font-size="10.00">SweepMixin</text>
</a>
</g>
</g>
<!-- SweepMixin&#45;&gt;Sweep -->
<g id="edge8" class="edge">
<title>SweepMixin&#45;&gt;Sweep</title>
<path fill="none" stroke="black" stroke-width="0.5" d="M326.41,-32.3C342.34,-34.78 361.19,-37.71 376.76,-40.13"/>
<polygon fill="black" stroke="black" stroke-width="0.5" points="376.7,-41.89 381.91,-40.93 377.24,-38.44 376.7,-41.89"/>
</g>
<!-- TimeStreamMixin -->
<g id="node13" class="node">
<title>TimeStreamMixin</title>
<polygon fill="none" stroke="black" stroke-width="0.5" points="338.22,-108 244.38,-108 244.38,-90 338.22,-90 338.22,-108"/>
<text text-anchor="middle" x="291.3" y="-96" font-family="Vera Sans, DejaVu Sans, Liberation Sans, Arial, Helvetica, sans" font-size="10.00">TimeStreamMixin</text>
</g>
<!-- TimeStreamMixin&#45;&gt;TimeStream -->
<g id="edge11" class="edge">
<title>TimeStreamMixin&#45;&gt;TimeStream</title>
<path fill="none" stroke="black" stroke-width="0.5" d="M338.05,-97.81C348.17,-97.55 358.8,-97.28 368.64,-97.02"/>
<polygon fill="black" stroke="black" stroke-width="0.5" points="368.75,-98.77 373.71,-96.89 368.66,-95.27 368.75,-98.77"/>
</g>
</g>
</svg>
