<?xml version="1.0" encoding="UTF-8" standalone="no"?>
<!DOCTYPE svg PUBLIC "-//W3C//DTD SVG 1.1//EN"
 "http://www.w3.org/Graphics/SVG/1.1/DTD/svg11.dtd">
<!-- Generated by graphviz version 2.49.3 (20211023.0002)
 -->
<!-- Title: inheritance3b4f551e29 Pages: 1 -->
<svg width="563pt" height="101pt"
 viewBox="0.00 0.00 563.00 101.00" xmlns="http://www.w3.org/2000/svg" xmlns:xlink="http://www.w3.org/1999/xlink">
<g id="graph0" class="graph" transform="scale(1 1) rotate(0) translate(4 97)">
<title>inheritance3b4f551e29</title>
<!-- DataclassNamespace -->
<g id="node1" class="node">
<title>DataclassNamespace</title>
<g id="a_node1"><a xlink:title="A subclass of `tollan.utils.namespace.Namespace`">
<polygon fill="white" stroke="black" stroke-width="0.5" points="356,-37 242,-37 242,-18 356,-18 356,-37"/>
<text text-anchor="middle" x="299" y="-25" font-family="Vera Sans, DejaVu Sans, Liberation Sans, Arial, Helvetica, sans" font-size="10.00">DataclassNamespace</text>
</a>
</g>
</g>
<!-- ToltecObsSimulatorConfig -->
<g id="node6" class="node">
<title>ToltecObsSimulatorConfig</title>
<g id="a_node6"><a xlink:href="../api/tolteca.simu.toltec.ToltecObsSimulatorConfig.html#tolteca.simu.toltec.ToltecObsSimulatorConfig" xlink:title="The config class for TolTEC observation simulator." target="_top">
<polygon fill="white" stroke="black" stroke-width="0.5" points="539.5,-56 407.5,-56 407.5,-37 539.5,-37 539.5,-56"/>
<text text-anchor="middle" x="473.5" y="-44" font-family="Vera Sans, DejaVu Sans, Liberation Sans, Arial, Helvetica, sans" font-size="10.00">ToltecObsSimulatorConfig</text>
</a>
</g>
</g>
<!-- DataclassNamespace&#45;&gt;ToltecObsSimulatorConfig -->
<g id="edge4" class="edge">
<title>DataclassNamespace&#45;&gt;ToltecObsSimulatorConfig</title>
<path fill="none" stroke="black" stroke-width="0.5" d="M356.01,-33.67C370.77,-35.29 386.88,-37.07 402.29,-38.77"/>
<polygon fill="black" stroke="black" stroke-width="0.5" points="402.32,-40.53 407.48,-39.34 402.7,-37.05 402.32,-40.53"/>
</g>
<!-- ToltecPowerLoadingModelConfig -->
<g id="node7" class="node">
<title>ToltecPowerLoadingModelConfig</title>
<g id="a_node7"><a xlink:href="../api/tolteca.simu.toltec.ToltecPowerLoadingModelConfig.html#tolteca.simu.toltec.ToltecPowerLoadingModelConfig" xlink:title="The config class to compute the TolTEC detector power loading." target="_top">
<polygon fill="white" stroke="black" stroke-width="0.5" points="555,-19 392,-19 392,0 555,0 555,-19"/>
<text text-anchor="middle" x="473.5" y="-7" font-family="Vera Sans, DejaVu Sans, Liberation Sans, Arial, Helvetica, sans" font-size="10.00">ToltecPowerLoadingModelConfig</text>
</a>
</g>
</g>
<!-- DataclassNamespace&#45;&gt;ToltecPowerLoadingModelConfig -->
<g id="edge5" class="edge">
<title>DataclassNamespace&#45;&gt;ToltecPowerLoadingModelConfig</title>
<path fill="none" stroke="black" stroke-width="0.5" d="M356.01,-21.66C365.81,-20.63 376.22,-19.55 386.61,-18.46"/>
<polygon fill="black" stroke="black" stroke-width="0.5" points="386.92,-20.19 391.72,-17.93 386.56,-16.71 386.92,-20.19"/>
</g>
<!-- Namespace -->
<g id="node2" class="node">
<title>Namespace</title>
<g id="a_node2"><a xlink:title="A convenient class that manages a set of attributes.">
<polygon fill="white" stroke="black" stroke-width="0.5" points="206,-37 136,-37 136,-18 206,-18 206,-37"/>
<text text-anchor="middle" x="171" y="-25" font-family="Vera Sans, DejaVu Sans, Liberation Sans, Arial, Helvetica, sans" font-size="10.00">Namespace</text>
</a>
</g>
</g>
<!-- Namespace&#45;&gt;DataclassNamespace -->
<g id="edge1" class="edge">
<title>Namespace&#45;&gt;DataclassNamespace</title>
<path fill="none" stroke="black" stroke-width="0.5" d="M206.1,-27.5C215.49,-27.5 225.98,-27.5 236.42,-27.5"/>
<polygon fill="black" stroke="black" stroke-width="0.5" points="236.53,-29.25 241.53,-27.5 236.53,-25.75 236.53,-29.25"/>
</g>
<!-- NamespaceMixin -->
<g id="node3" class="node">
<title>NamespaceMixin</title>
<g id="a_node3"><a xlink:title="A mixin class that allows converting object to and from dict.">
<polygon fill="white" stroke="black" stroke-width="0.5" points="96.5,-56 3.5,-56 3.5,-37 96.5,-37 96.5,-56"/>
<text text-anchor="middle" x="50" y="-44" font-family="Vera Sans, DejaVu Sans, Liberation Sans, Arial, Helvetica, sans" font-size="10.00">NamespaceMixin</text>
</a>
</g>
</g>
<!-- NamespaceMixin&#45;&gt;Namespace -->
<g id="edge2" class="edge">
<title>NamespaceMixin&#45;&gt;Namespace</title>
<path fill="none" stroke="black" stroke-width="0.5" d="M96.67,-39.21C107.82,-37.43 119.66,-35.54 130.5,-33.81"/>
<polygon fill="black" stroke="black" stroke-width="0.5" points="131.07,-35.49 135.73,-32.97 130.52,-32.03 131.07,-35.49"/>
</g>
<!-- SimpleNamespace -->
<g id="node4" class="node">
<title>SimpleNamespace</title>
<g id="a_node4"><a xlink:title="A simple attribute&#45;based namespace.">
<polygon fill="white" stroke="black" stroke-width="0.5" points="100,-19 0,-19 0,0 100,0 100,-19"/>
<text text-anchor="middle" x="50" y="-7" font-family="Vera Sans, DejaVu Sans, Liberation Sans, Arial, Helvetica, sans" font-size="10.00">SimpleNamespace</text>
</a>
</g>
</g>
<!-- SimpleNamespace&#45;&gt;Namespace -->
<g id="edge3" class="edge">
<title>SimpleNamespace&#45;&gt;Namespace</title>
<path fill="none" stroke="black" stroke-width="0.5" d="M100.09,-16.93C110.34,-18.48 121.01,-20.09 130.85,-21.58"/>
<polygon fill="black" stroke="black" stroke-width="0.5" points="130.7,-23.33 135.9,-22.34 131.22,-19.86 130.7,-23.33"/>
</g>
<!-- ToltecHwpConfig -->
<g id="node5" class="node">
<title>ToltecHwpConfig</title>
<g id="a_node5"><a xlink:href="../api/tolteca.simu.toltec.ToltecHwpConfig.html#tolteca.simu.toltec.ToltecHwpConfig" xlink:title="The config class for TolTEC half&#45;wave plate and the rotator." target="_top">
<polygon fill="white" stroke="black" stroke-width="0.5" points="96,-93 4,-93 4,-74 96,-74 96,-93"/>
<text text-anchor="middle" x="50" y="-81" font-family="Vera Sans, DejaVu Sans, Liberation Sans, Arial, Helvetica, sans" font-size="10.00">ToltecHwpConfig</text>
</a>
</g>
</g>
</g>
</svg>
