<?xml version="1.0" encoding="UTF-8" standalone="no"?>
<!DOCTYPE svg PUBLIC "-//W3C//DTD SVG 1.1//EN"
 "http://www.w3.org/Graphics/SVG/1.1/DTD/svg11.dtd">
<!-- Generated by graphviz version 2.49.3 (20211023.0002)
 -->
<!-- Title: inheritance152676d52c Pages: 1 -->
<svg width="261pt" height="101pt"
 viewBox="0.00 0.00 261.00 101.00" xmlns="http://www.w3.org/2000/svg" xmlns:xlink="http://www.w3.org/1999/xlink">
<g id="graph0" class="graph" transform="scale(1 1) rotate(0) translate(4 97)">
<title>inheritance152676d52c</title>
<!-- RuntimeBase -->
<g id="node1" class="node">
<title>RuntimeBase</title>
<g id="a_node1"><a xlink:href="../api/tolteca.utils.RuntimeBase.html#tolteca.utils.RuntimeBase" xlink:title="A base class that consumes `RuntimeContext`." target="_top">
<polygon fill="white" stroke="black" stroke-width="0.5" points="88,-19 11,-19 11,0 88,0 88,-19"/>
<text text-anchor="middle" x="49.5" y="-7" font-family="Vera Sans, DejaVu Sans, Liberation Sans, Arial, Helvetica, sans" font-size="10.00">RuntimeBase</text>
</a>
</g>
</g>
<!-- SimulatorRuntime -->
<g id="node4" class="node">
<title>SimulatorRuntime</title>
<g id="a_node4"><a xlink:href="../api/tolteca.simu.SimulatorRuntime.html#tolteca.simu.SimulatorRuntime" xlink:title="A class to run the simulator." target="_top">
<polygon fill="white" stroke="black" stroke-width="0.5" points="242,-19 146,-19 146,0 242,0 242,-19"/>
<text text-anchor="middle" x="194" y="-7" font-family="Vera Sans, DejaVu Sans, Liberation Sans, Arial, Helvetica, sans" font-size="10.00">SimulatorRuntime</text>
</a>
</g>
</g>
<!-- RuntimeBase&#45;&gt;SimulatorRuntime -->
<g id="edge1" class="edge">
<title>RuntimeBase&#45;&gt;SimulatorRuntime</title>
<path fill="none" stroke="black" stroke-width="0.5" d="M88.31,-9.5C104.3,-9.5 123.2,-9.5 140.51,-9.5"/>
<polygon fill="black" stroke="black" stroke-width="0.5" points="140.82,-11.25 145.82,-9.5 140.82,-7.75 140.82,-11.25"/>
</g>
<!-- RuntimeBaseError -->
<g id="node2" class="node">
<title>RuntimeBaseError</title>
<g id="a_node2"><a xlink:href="../api/tolteca.utils.RuntimeBaseError.html#tolteca.utils.RuntimeBaseError" xlink:title="RuntimeBaseError" target="_top">
<polygon fill="white" stroke="black" stroke-width="0.5" points="99,-56 0,-56 0,-37 99,-37 99,-56"/>
<text text-anchor="middle" x="49.5" y="-44" font-family="Vera Sans, DejaVu Sans, Liberation Sans, Arial, Helvetica, sans" font-size="10.00">RuntimeBaseError</text>
</a>
</g>
</g>
<!-- SimulatorRuntimeError -->
<g id="node5" class="node">
<title>SimulatorRuntimeError</title>
<g id="a_node5"><a xlink:href="../api/tolteca.simu.SimulatorRuntimeError.html#tolteca.simu.SimulatorRuntimeError" xlink:title="Raise when errors occur in `SimulatorRuntime`." target="_top">
<polygon fill="white" stroke="black" stroke-width="0.5" points="253,-56 135,-56 135,-37 253,-37 253,-56"/>
<text text-anchor="middle" x="194" y="-44" font-family="Vera Sans, DejaVu Sans, Liberation Sans, Arial, Helvetica, sans" font-size="10.00">SimulatorRuntimeError</text>
</a>
</g>
</g>
<!-- RuntimeBaseError&#45;&gt;SimulatorRuntimeError -->
<g id="edge2" class="edge">
<title>RuntimeBaseError&#45;&gt;SimulatorRuntimeError</title>
<path fill="none" stroke="black" stroke-width="0.5" d="M99.14,-46.5C108.98,-46.5 119.46,-46.5 129.72,-46.5"/>
<polygon fill="black" stroke="black" stroke-width="0.5" points="129.73,-48.25 134.73,-46.5 129.73,-44.75 129.73,-48.25"/>
</g>
<!-- SimuConfig -->
<g id="node3" class="node">
<title>SimuConfig</title>
<g id="a_node3"><a xlink:href="../api/tolteca.simu.SimuConfig.html#tolteca.simu.SimuConfig" xlink:title="The config for `tolteca.simu`." target="_top">
<polygon fill="white" stroke="black" stroke-width="0.5" points="83.5,-93 15.5,-93 15.5,-74 83.5,-74 83.5,-93"/>
<text text-anchor="middle" x="49.5" y="-81" font-family="Vera Sans, DejaVu Sans, Liberation Sans, Arial, Helvetica, sans" font-size="10.00">SimuConfig</text>
</a>
</g>
</g>
</g>
</svg>
