<?xml version="1.0" encoding="UTF-8" standalone="no"?>
<!DOCTYPE svg PUBLIC "-//W3C//DTD SVG 1.1//EN"
 "http://www.w3.org/Graphics/SVG/1.1/DTD/svg11.dtd">
<!-- Generated by graphviz version 2.47.2 (20210527.0053)
 -->
<!-- Title: inheritance2d0a8fe33f Pages: 1 -->
<svg width="574pt" height="138pt"
 viewBox="0.00 0.00 574.00 138.00" xmlns="http://www.w3.org/2000/svg" xmlns:xlink="http://www.w3.org/1999/xlink">
<g id="graph0" class="graph" transform="scale(1 1) rotate(0) translate(4 134)">
<title>inheritance2d0a8fe33f</title>
<!-- ABC -->
<g id="node1" class="node">
<title>ABC</title>
<g id="a_node1"><a xlink:title="Helper class that provides a standard way to create an ABC using">
<polygon fill="white" stroke="black" stroke-width="0.5" points="74,-56 20,-56 20,-37 74,-37 74,-56"/>
<text text-anchor="middle" x="47" y="-44" font-family="Vera Sans, DejaVu Sans, Liberation Sans, Arial, Helvetica, sans" font-size="10.00">ABC</text>
</a>
</g>
</g>
<!-- AbstractContextManager -->
<g id="node2" class="node">
<title>AbstractContextManager</title>
<g id="a_node2"><a xlink:title="An abstract base class for context managers.">
<polygon fill="white" stroke="black" stroke-width="0.5" points="255,-56 130,-56 130,-37 255,-37 255,-56"/>
<text text-anchor="middle" x="192.5" y="-44" font-family="Vera Sans, DejaVu Sans, Liberation Sans, Arial, Helvetica, sans" font-size="10.00">AbstractContextManager</text>
</a>
</g>
</g>
<!-- ABC&#45;&gt;AbstractContextManager -->
<g id="edge1" class="edge">
<title>ABC&#45;&gt;AbstractContextManager</title>
<path fill="none" stroke="black" stroke-width="0.5" d="M74.32,-46.5C88.59,-46.5 106.94,-46.5 124.86,-46.5"/>
<polygon fill="black" stroke="black" stroke-width="0.5" points="124.9,-48.25 129.9,-46.5 124.9,-44.75 124.9,-48.25"/>
</g>
<!-- ExitStack -->
<g id="node6" class="node">
<title>ExitStack</title>
<g id="a_node6"><a xlink:title="Context manager for dynamic management of a stack of exit callbacks.">
<polygon fill="white" stroke="black" stroke-width="0.5" points="350,-37 291,-37 291,-18 350,-18 350,-37"/>
<text text-anchor="middle" x="320.5" y="-25" font-family="Vera Sans, DejaVu Sans, Liberation Sans, Arial, Helvetica, sans" font-size="10.00">ExitStack</text>
</a>
</g>
</g>
<!-- AbstractContextManager&#45;&gt;ExitStack -->
<g id="edge5" class="edge">
<title>AbstractContextManager&#45;&gt;ExitStack</title>
<path fill="none" stroke="black" stroke-width="0.5" d="M255.02,-37.22C265.57,-35.63 276.16,-34.04 285.63,-32.61"/>
<polygon fill="black" stroke="black" stroke-width="0.5" points="286.09,-34.31 290.77,-31.83 285.57,-30.85 286.09,-34.31"/>
</g>
<!-- BasicObsData -->
<g id="node3" class="node">
<title>BasicObsData</title>
<g id="a_node3"><a xlink:href="../../api/tolteca.datamodels.toltec.BasicObsData.html#tolteca.datamodels.toltec.BasicObsData" xlink:title="A class that provides unified IO interface to TolTEC basic" target="_top">
<polygon fill="white" stroke="black" stroke-width="0.5" points="566,-37 486,-37 486,-18 566,-18 566,-37"/>
<text text-anchor="middle" x="526" y="-25" font-family="Vera Sans, DejaVu Sans, Liberation Sans, Arial, Helvetica, sans" font-size="10.00">BasicObsData</text>
</a>
</g>
</g>
<!-- DataFileIO -->
<g id="node4" class="node">
<title>DataFileIO</title>
<g id="a_node4"><a xlink:title="A base class to help access data file contents.">
<polygon fill="white" stroke="black" stroke-width="0.5" points="450,-37 386,-37 386,-18 450,-18 450,-37"/>
<text text-anchor="middle" x="418" y="-25" font-family="Vera Sans, DejaVu Sans, Liberation Sans, Arial, Helvetica, sans" font-size="10.00">DataFileIO</text>
</a>
</g>
</g>
<!-- DataFileIO&#45;&gt;BasicObsData -->
<g id="edge2" class="edge">
<title>DataFileIO&#45;&gt;BasicObsData</title>
<path fill="none" stroke="black" stroke-width="0.5" d="M450.23,-27.5C459.69,-27.5 470.28,-27.5 480.44,-27.5"/>
<polygon fill="black" stroke="black" stroke-width="0.5" points="480.71,-29.25 485.71,-27.5 480.71,-25.75 480.71,-29.25"/>
</g>
<!-- BasicObsDataset -->
<g id="node5" class="node">
<title>BasicObsDataset</title>
<g id="a_node5"><a xlink:href="../../api/tolteca.datamodels.toltec.BasicObsDataset.html#tolteca.datamodels.toltec.BasicObsDataset" xlink:title="A helper class to access a set of TolTEC basic obs data items." target="_top">
<polygon fill="white" stroke="black" stroke-width="0.5" points="94,-93 0,-93 0,-74 94,-74 94,-93"/>
<text text-anchor="middle" x="47" y="-81" font-family="Vera Sans, DejaVu Sans, Liberation Sans, Arial, Helvetica, sans" font-size="10.00">BasicObsDataset</text>
</a>
</g>
</g>
<!-- ExitStack&#45;&gt;DataFileIO -->
<g id="edge3" class="edge">
<title>ExitStack&#45;&gt;DataFileIO</title>
<path fill="none" stroke="black" stroke-width="0.5" d="M350.15,-27.5C359.7,-27.5 370.46,-27.5 380.52,-27.5"/>
<polygon fill="black" stroke="black" stroke-width="0.5" points="380.7,-29.25 385.7,-27.5 380.7,-25.75 380.7,-29.25"/>
</g>
<!-- _BaseExitStack -->
<g id="node7" class="node">
<title>_BaseExitStack</title>
<g id="a_node7"><a xlink:title="A base class for ExitStack and AsyncExitStack.">
<polygon fill="white" stroke="black" stroke-width="0.5" points="236,-19 149,-19 149,0 236,0 236,-19"/>
<text text-anchor="middle" x="192.5" y="-7" font-family="Vera Sans, DejaVu Sans, Liberation Sans, Arial, Helvetica, sans" font-size="10.00">_BaseExitStack</text>
</a>
</g>
</g>
<!-- _BaseExitStack&#45;&gt;ExitStack -->
<g id="edge4" class="edge">
<title>_BaseExitStack&#45;&gt;ExitStack</title>
<path fill="none" stroke="black" stroke-width="0.5" d="M236.16,-15.59C252.32,-17.9 270.49,-20.5 285.72,-22.67"/>
<polygon fill="black" stroke="black" stroke-width="0.5" points="285.57,-24.42 290.77,-23.4 286.07,-20.96 285.57,-24.42"/>
</g>
<!-- ToltecDataProd -->
<g id="node8" class="node">
<title>ToltecDataProd</title>
<g id="a_node8"><a xlink:href="../../api/tolteca.datamodels.toltec.ToltecDataProd.html#tolteca.datamodels.toltec.ToltecDataProd" xlink:title="This class provides access to TolTEC data product info." target="_top">
<polygon fill="white" stroke="black" stroke-width="0.5" points="89,-130 5,-130 5,-111 89,-111 89,-130"/>
<text text-anchor="middle" x="47" y="-118" font-family="Vera Sans, DejaVu Sans, Liberation Sans, Arial, Helvetica, sans" font-size="10.00">ToltecDataProd</text>
</a>
</g>
</g>
</g>
</svg>
