<?xml version="1.0" encoding="UTF-8" standalone="no"?>
<!DOCTYPE svg PUBLIC "-//W3C//DTD SVG 1.1//EN"
 "http://www.w3.org/Graphics/SVG/1.1/DTD/svg11.dtd">
<!-- Generated by graphviz version 2.42.3 (20191010.1750)
 -->
<!-- Title: inheritance248748d816 Pages: 1 -->
<svg width="383pt" height="314pt"
 viewBox="0.00 0.00 383.01 314.00" xmlns="http://www.w3.org/2000/svg" xmlns:xlink="http://www.w3.org/1999/xlink">
<g id="graph0" class="graph" transform="scale(1 1) rotate(0) translate(4 310)">
<title>inheritance248748d816</title>
<!-- ABCMeta -->
<g id="node1" class="node">
<title>ABCMeta</title>
<g id="a_node1"><a xlink:title="Metaclass for defining Abstract Base Classes (ABCs).">
<polygon fill="white" stroke="black" stroke-width="0.5" points="80.64,-36 22.06,-36 22.06,-18 80.64,-18 80.64,-36"/>
<text text-anchor="middle" x="51.35" y="-24" font-family="Vera Sans, DejaVu Sans, Liberation Sans, Arial, Helvetica, sans" font-size="10.00">ABCMeta</text>
</a>
</g>
</g>
<!-- _ModelMeta -->
<g id="node7" class="node">
<title>_ModelMeta</title>
<g id="a_node7"><a xlink:title="Metaclass for Model.">
<polygon fill="white" stroke="black" stroke-width="0.5" points="213.91,-36 142.85,-36 142.85,-18 213.91,-18 213.91,-36"/>
<text text-anchor="middle" x="178.38" y="-24" font-family="Vera Sans, DejaVu Sans, Liberation Sans, Arial, Helvetica, sans" font-size="10.00">_ModelMeta</text>
</a>
</g>
</g>
<!-- ABCMeta&#45;&gt;_ModelMeta -->
<g id="edge13" class="edge">
<title>ABCMeta&#45;&gt;_ModelMeta</title>
<path fill="none" stroke="black" stroke-width="0.5" d="M80.72,-27C97.45,-27 118.88,-27 137.31,-27"/>
<polygon fill="black" stroke="black" stroke-width="0.5" points="137.42,-28.75 142.42,-27 137.42,-25.25 137.42,-28.75"/>
</g>
<!-- ArrayProjModel -->
<g id="node2" class="node">
<title>ArrayProjModel</title>
<g id="a_node2"><a xlink:href="../../api/tolteca.recipes.simu_obs.ArrayProjModel.html#tolteca.recipes.simu_obs.ArrayProjModel" xlink:title="A model that transforms the detector locations per array to" target="_top">
<polygon fill="white" stroke="black" stroke-width="0.5" points="356.95,-306 272.12,-306 272.12,-288 356.95,-288 356.95,-306"/>
<text text-anchor="middle" x="314.53" y="-294" font-family="Vera Sans, DejaVu Sans, Liberation Sans, Arial, Helvetica, sans" font-size="10.00">ArrayProjModel</text>
</a>
</g>
</g>
<!-- ProjModel -->
<g id="node3" class="node">
<title>ProjModel</title>
<g id="a_node3"><a xlink:href="../../api/tolteca.recipes.simu_obs.ProjModel.html#tolteca.recipes.simu_obs.ProjModel" xlink:title="Base class for models that transform the detector locations." target="_top">
<polygon fill="white" stroke="black" stroke-width="0.5" points="208.9,-261 147.86,-261 147.86,-243 208.9,-243 208.9,-261"/>
<text text-anchor="middle" x="178.38" y="-249" font-family="Vera Sans, DejaVu Sans, Liberation Sans, Arial, Helvetica, sans" font-size="10.00">ProjModel</text>
</a>
</g>
</g>
<!-- ProjModel&#45;&gt;ArrayProjModel -->
<g id="edge1" class="edge">
<title>ProjModel&#45;&gt;ArrayProjModel</title>
<path fill="none" stroke="black" stroke-width="0.5" d="M203.48,-261.08C218.06,-266.48 237.05,-273.36 254.06,-279 261.69,-281.53 269.92,-284.12 277.75,-286.51"/>
<polygon fill="black" stroke="black" stroke-width="0.5" points="277.27,-288.19 282.57,-287.97 278.29,-284.84 277.27,-288.19"/>
</g>
<!-- SkyProjModel -->
<g id="node11" class="node">
<title>SkyProjModel</title>
<g id="a_node11"><a xlink:href="../../api/tolteca.recipes.simu_obs.SkyProjModel.html#tolteca.recipes.simu_obs.SkyProjModel" xlink:title="A sky projection model for TolTEC." target="_top">
<polygon fill="white" stroke="black" stroke-width="0.5" points="353.22,-270 275.84,-270 275.84,-252 353.22,-252 353.22,-270"/>
<text text-anchor="middle" x="314.53" y="-258" font-family="Vera Sans, DejaVu Sans, Liberation Sans, Arial, Helvetica, sans" font-size="10.00">SkyProjModel</text>
</a>
</g>
</g>
<!-- ProjModel&#45;&gt;SkyProjModel -->
<g id="edge8" class="edge">
<title>ProjModel&#45;&gt;SkyProjModel</title>
<path fill="none" stroke="black" stroke-width="0.5" d="M209.15,-254C227.23,-255.21 250.6,-256.78 270.65,-258.12"/>
<polygon fill="black" stroke="black" stroke-width="0.5" points="270.56,-259.87 275.67,-258.46 270.8,-256.38 270.56,-259.87"/>
</g>
<!-- WyattProjModel -->
<g id="node15" class="node">
<title>WyattProjModel</title>
<g id="a_node15"><a xlink:href="../../api/tolteca.recipes.simu_obs.WyattProjModel.html#tolteca.recipes.simu_obs.WyattProjModel" xlink:title="A projection model for the Wyatt robot arm." target="_top">
<polygon fill="white" stroke="black" stroke-width="0.5" points="358.02,-234 271.04,-234 271.04,-216 358.02,-216 358.02,-234"/>
<text text-anchor="middle" x="314.53" y="-222" font-family="Vera Sans, DejaVu Sans, Liberation Sans, Arial, Helvetica, sans" font-size="10.00">WyattProjModel</text>
</a>
</g>
</g>
<!-- ProjModel&#45;&gt;WyattProjModel -->
<g id="edge11" class="edge">
<title>ProjModel&#45;&gt;WyattProjModel</title>
<path fill="none" stroke="black" stroke-width="0.5" d="M209.15,-246.01C225.8,-242.66 246.95,-238.4 265.86,-234.6"/>
<polygon fill="black" stroke="black" stroke-width="0.5" points="266.56,-236.24 271.12,-233.54 265.87,-232.81 266.56,-236.24"/>
</g>
<!-- BeamModel -->
<g id="node4" class="node">
<title>BeamModel</title>
<g id="a_node4"><a xlink:href="../../api/tolteca.recipes.simu_obs.BeamModel.html#tolteca.recipes.simu_obs.BeamModel" xlink:title="A model that describes the beam shape." target="_top">
<polygon fill="white" stroke="black" stroke-width="0.5" points="213.24,-216 143.52,-216 143.52,-198 213.24,-198 213.24,-216"/>
<text text-anchor="middle" x="178.38" y="-204" font-family="Vera Sans, DejaVu Sans, Liberation Sans, Arial, Helvetica, sans" font-size="10.00">BeamModel</text>
</a>
</g>
</g>
<!-- Model -->
<g id="node5" class="node">
<title>Model</title>
<g id="a_node5"><a xlink:title="Base class for all models.">
<polygon fill="white" stroke="black" stroke-width="0.5" points="78.35,-216 24.35,-216 24.35,-198 78.35,-198 78.35,-216"/>
<text text-anchor="middle" x="51.35" y="-204" font-family="Vera Sans, DejaVu Sans, Liberation Sans, Arial, Helvetica, sans" font-size="10.00">Model</text>
</a>
</g>
</g>
<!-- Model&#45;&gt;ProjModel -->
<g id="edge4" class="edge">
<title>Model&#45;&gt;ProjModel</title>
<path fill="none" stroke="black" stroke-width="0.5" d="M77.71,-216.05C85.71,-218.91 94.58,-222.08 102.7,-225 117.49,-230.32 133.92,-236.25 147.59,-241.2"/>
<polygon fill="black" stroke="black" stroke-width="0.5" points="147.2,-242.92 152.49,-242.98 148.39,-239.63 147.2,-242.92"/>
</g>
<!-- Model&#45;&gt;BeamModel -->
<g id="edge2" class="edge">
<title>Model&#45;&gt;BeamModel</title>
<path fill="none" stroke="black" stroke-width="0.5" d="M78.56,-207C95.84,-207 118.78,-207 138.21,-207"/>
<polygon fill="black" stroke="black" stroke-width="0.5" points="138.59,-208.75 143.59,-207 138.59,-205.25 138.59,-208.75"/>
</g>
<!-- SkyMapModel -->
<g id="node10" class="node">
<title>SkyMapModel</title>
<g id="a_node10"><a xlink:href="../../api/tolteca.recipes.simu_obs.SkyMapModel.html#tolteca.recipes.simu_obs.SkyMapModel" xlink:title="A model that describes mapping patterns on the sky." target="_top">
<polygon fill="white" stroke="black" stroke-width="0.5" points="218.24,-162 138.52,-162 138.52,-144 218.24,-144 218.24,-162"/>
<text text-anchor="middle" x="178.38" y="-150" font-family="Vera Sans, DejaVu Sans, Liberation Sans, Arial, Helvetica, sans" font-size="10.00">SkyMapModel</text>
</a>
</g>
</g>
<!-- Model&#45;&gt;SkyMapModel -->
<g id="edge7" class="edge">
<title>Model&#45;&gt;SkyMapModel</title>
<path fill="none" stroke="black" stroke-width="0.5" d="M73.28,-197.96C94.82,-188.66 128.43,-174.14 151.61,-164.13"/>
<polygon fill="black" stroke="black" stroke-width="0.5" points="152.49,-165.66 156.38,-162.07 151.1,-162.44 152.49,-165.66"/>
</g>
<!-- LissajousModelMeta -->
<g id="node6" class="node">
<title>LissajousModelMeta</title>
<g id="a_node6"><a xlink:href="../../api/tolteca.recipes.simu_obs.LissajousModelMeta.html#tolteca.recipes.simu_obs.LissajousModelMeta" xlink:title="LissajousModelMeta" target="_top">
<polygon fill="white" stroke="black" stroke-width="0.5" points="368.19,-54 260.88,-54 260.88,-36 368.19,-36 368.19,-54"/>
<text text-anchor="middle" x="314.53" y="-42" font-family="Vera Sans, DejaVu Sans, Liberation Sans, Arial, Helvetica, sans" font-size="10.00">LissajousModelMeta</text>
</a>
</g>
</g>
<!-- _ModelMeta&#45;&gt;LissajousModelMeta -->
<g id="edge3" class="edge">
<title>_ModelMeta&#45;&gt;LissajousModelMeta</title>
<path fill="none" stroke="black" stroke-width="0.5" d="M213.93,-31.64C226.65,-33.34 241.43,-35.33 255.65,-37.23"/>
<polygon fill="black" stroke="black" stroke-width="0.5" points="255.67,-39 260.86,-37.93 256.14,-35.53 255.67,-39"/>
</g>
<!-- RasterScanModelMeta -->
<g id="node8" class="node">
<title>RasterScanModelMeta</title>
<g id="a_node8"><a xlink:href="../../api/tolteca.recipes.simu_obs.RasterScanModelMeta.html#tolteca.recipes.simu_obs.RasterScanModelMeta" xlink:title="RasterScanModelMeta" target="_top">
<polygon fill="white" stroke="black" stroke-width="0.5" points="373.25,-18 255.82,-18 255.82,0 373.25,0 373.25,-18"/>
<text text-anchor="middle" x="314.53" y="-6" font-family="Vera Sans, DejaVu Sans, Liberation Sans, Arial, Helvetica, sans" font-size="10.00">RasterScanModelMeta</text>
</a>
</g>
</g>
<!-- _ModelMeta&#45;&gt;RasterScanModelMeta -->
<g id="edge5" class="edge">
<title>_ModelMeta&#45;&gt;RasterScanModelMeta</title>
<path fill="none" stroke="black" stroke-width="0.5" d="M213.93,-22.36C225.17,-20.86 238.02,-19.13 250.66,-17.44"/>
<polygon fill="black" stroke="black" stroke-width="0.5" points="250.96,-19.16 255.69,-16.76 250.5,-15.69 250.96,-19.16"/>
</g>
<!-- SkyLissajousModel -->
<g id="node9" class="node">
<title>SkyLissajousModel</title>
<g id="a_node9"><a xlink:href="../../api/tolteca.recipes.simu_obs.SkyLissajousModel.html#tolteca.recipes.simu_obs.SkyLissajousModel" xlink:title="SkyLissajousModel" target="_top">
<polygon fill="white" stroke="black" stroke-width="0.5" points="365.13,-198 263.94,-198 263.94,-180 365.13,-180 365.13,-198"/>
<text text-anchor="middle" x="314.53" y="-186" font-family="Vera Sans, DejaVu Sans, Liberation Sans, Arial, Helvetica, sans" font-size="10.00">SkyLissajousModel</text>
</a>
</g>
</g>
<!-- SkyMapModel&#45;&gt;SkyLissajousModel -->
<g id="edge6" class="edge">
<title>SkyMapModel&#45;&gt;SkyLissajousModel</title>
<path fill="none" stroke="black" stroke-width="0.5" d="M213.23,-162.08C231.98,-167.12 255.36,-173.39 274.83,-178.61"/>
<polygon fill="black" stroke="black" stroke-width="0.5" points="274.41,-180.31 279.69,-179.92 275.32,-176.93 274.41,-180.31"/>
</g>
<!-- SkyRasterScanModel -->
<g id="node12" class="node">
<title>SkyRasterScanModel</title>
<g id="a_node12"><a xlink:href="../../api/tolteca.recipes.simu_obs.SkyRasterScanModel.html#tolteca.recipes.simu_obs.SkyRasterScanModel" xlink:title="SkyRasterScanModel" target="_top">
<polygon fill="white" stroke="black" stroke-width="0.5" points="370.69,-162 258.38,-162 258.38,-144 370.69,-144 370.69,-162"/>
<text text-anchor="middle" x="314.53" y="-150" font-family="Vera Sans, DejaVu Sans, Liberation Sans, Arial, Helvetica, sans" font-size="10.00">SkyRasterScanModel</text>
</a>
</g>
</g>
<!-- SkyMapModel&#45;&gt;SkyRasterScanModel -->
<g id="edge9" class="edge">
<title>SkyMapModel&#45;&gt;SkyRasterScanModel</title>
<path fill="none" stroke="black" stroke-width="0.5" d="M218.18,-153C229.15,-153 241.36,-153 253.27,-153"/>
<polygon fill="black" stroke="black" stroke-width="0.5" points="253.35,-154.75 258.35,-153 253.35,-151.25 253.35,-154.75"/>
</g>
<!-- WyattLissajousModel -->
<g id="node14" class="node">
<title>WyattLissajousModel</title>
<g id="a_node14"><a xlink:href="../../api/tolteca.recipes.simu_obs.WyattLissajousModel.html#tolteca.recipes.simu_obs.WyattLissajousModel" xlink:title="WyattLissajousModel" target="_top">
<polygon fill="white" stroke="black" stroke-width="0.5" points="369.93,-126 259.14,-126 259.14,-108 369.93,-108 369.93,-126"/>
<text text-anchor="middle" x="314.53" y="-114" font-family="Vera Sans, DejaVu Sans, Liberation Sans, Arial, Helvetica, sans" font-size="10.00">WyattLissajousModel</text>
</a>
</g>
</g>
<!-- SkyMapModel&#45;&gt;WyattLissajousModel -->
<g id="edge10" class="edge">
<title>SkyMapModel&#45;&gt;WyattLissajousModel</title>
<path fill="none" stroke="black" stroke-width="0.5" d="M213.23,-143.92C231.98,-138.88 255.36,-132.61 274.83,-127.39"/>
<polygon fill="black" stroke="black" stroke-width="0.5" points="275.32,-129.07 279.69,-126.08 274.41,-125.69 275.32,-129.07"/>
</g>
<!-- WyattRasterScanModel -->
<g id="node16" class="node">
<title>WyattRasterScanModel</title>
<g id="a_node16"><a xlink:href="../../api/tolteca.recipes.simu_obs.WyattRasterScanModel.html#tolteca.recipes.simu_obs.WyattRasterScanModel" xlink:title="WyattRasterScanModel" target="_top">
<polygon fill="white" stroke="black" stroke-width="0.5" points="374.99,-90 254.08,-90 254.08,-72 374.99,-72 374.99,-90"/>
<text text-anchor="middle" x="314.53" y="-78" font-family="Vera Sans, DejaVu Sans, Liberation Sans, Arial, Helvetica, sans" font-size="10.00">WyattRasterScanModel</text>
</a>
</g>
</g>
<!-- SkyMapModel&#45;&gt;WyattRasterScanModel -->
<g id="edge12" class="edge">
<title>SkyMapModel&#45;&gt;WyattRasterScanModel</title>
<path fill="none" stroke="black" stroke-width="0.5" d="M189.78,-143.73C203.58,-131.86 229.11,-111.36 254.06,-99 259.57,-96.27 265.58,-93.86 271.59,-91.77"/>
<polygon fill="black" stroke="black" stroke-width="0.5" points="272.44,-93.33 276.63,-90.08 271.33,-90.01 272.44,-93.33"/>
</g>
<!-- ToltecObsSimulator -->
<g id="node13" class="node">
<title>ToltecObsSimulator</title>
<g id="a_node13"><a xlink:href="../../api/tolteca.recipes.simu_obs.ToltecObsSimulator.html#tolteca.recipes.simu_obs.ToltecObsSimulator" xlink:title="A class that make simulated observations for TolTEC." target="_top">
<polygon fill="white" stroke="black" stroke-width="0.5" points="102.55,-252 0.15,-252 0.15,-234 102.55,-234 102.55,-252"/>
<text text-anchor="middle" x="51.35" y="-240" font-family="Vera Sans, DejaVu Sans, Liberation Sans, Arial, Helvetica, sans" font-size="10.00">ToltecObsSimulator</text>
</a>
</g>
</g>
</g>
</svg>
