<?xml version="1.0" encoding="UTF-8" standalone="no"?>
<!DOCTYPE svg PUBLIC "-//W3C//DTD SVG 1.1//EN"
 "http://www.w3.org/Graphics/SVG/1.1/DTD/svg11.dtd">
<!-- Generated by graphviz version 2.49.3 (20211023.0002)
 -->
<!-- Title: inheritance460a9b22bd Pages: 1 -->
<svg width="255pt" height="101pt"
 viewBox="0.00 0.00 255.00 101.00" xmlns="http://www.w3.org/2000/svg" xmlns:xlink="http://www.w3.org/1999/xlink">
<g id="graph0" class="graph" transform="scale(1 1) rotate(0) translate(4 97)">
<title>inheritance460a9b22bd</title>
<!-- PipelineRuntime -->
<g id="node1" class="node">
<title>PipelineRuntime</title>
<g id="a_node1"><a xlink:href="../api/tolteca.reduce.PipelineRuntime.html#tolteca.reduce.PipelineRuntime" xlink:title="A class to run the data reduction pipeline." target="_top">
<polygon fill="white" stroke="black" stroke-width="0.5" points="235.5,-19 146.5,-19 146.5,0 235.5,0 235.5,-19"/>
<text text-anchor="middle" x="191" y="-7" font-family="Vera Sans, DejaVu Sans, Liberation Sans, Arial, Helvetica, sans" font-size="10.00">PipelineRuntime</text>
</a>
</g>
</g>
<!-- RuntimeBase -->
<g id="node2" class="node">
<title>RuntimeBase</title>
<g id="a_node2"><a xlink:href="../api/tolteca.utils.RuntimeBase.html#tolteca.utils.RuntimeBase" xlink:title="A base class that consumes `RuntimeContext`." target="_top">
<polygon fill="white" stroke="black" stroke-width="0.5" points="88,-19 11,-19 11,0 88,0 88,-19"/>
<text text-anchor="middle" x="49.5" y="-7" font-family="Vera Sans, DejaVu Sans, Liberation Sans, Arial, Helvetica, sans" font-size="10.00">RuntimeBase</text>
</a>
</g>
</g>
<!-- RuntimeBase&#45;&gt;PipelineRuntime -->
<g id="edge1" class="edge">
<title>RuntimeBase&#45;&gt;PipelineRuntime</title>
<path fill="none" stroke="black" stroke-width="0.5" d="M88.25,-9.5C104.48,-9.5 123.67,-9.5 140.98,-9.5"/>
<polygon fill="black" stroke="black" stroke-width="0.5" points="141.29,-11.25 146.29,-9.5 141.29,-7.75 141.29,-11.25"/>
</g>
<!-- PipelineRuntimeError -->
<g id="node3" class="node">
<title>PipelineRuntimeError</title>
<g id="a_node3"><a xlink:href="../api/tolteca.reduce.PipelineRuntimeError.html#tolteca.reduce.PipelineRuntimeError" xlink:title="Raise when errors occur in `PipelineRuntime`." target="_top">
<polygon fill="white" stroke="black" stroke-width="0.5" points="247,-56 135,-56 135,-37 247,-37 247,-56"/>
<text text-anchor="middle" x="191" y="-44" font-family="Vera Sans, DejaVu Sans, Liberation Sans, Arial, Helvetica, sans" font-size="10.00">PipelineRuntimeError</text>
</a>
</g>
</g>
<!-- RuntimeBaseError -->
<g id="node4" class="node">
<title>RuntimeBaseError</title>
<g id="a_node4"><a xlink:href="../api/tolteca.utils.RuntimeBaseError.html#tolteca.utils.RuntimeBaseError" xlink:title="RuntimeBaseError" target="_top">
<polygon fill="white" stroke="black" stroke-width="0.5" points="99,-56 0,-56 0,-37 99,-37 99,-56"/>
<text text-anchor="middle" x="49.5" y="-44" font-family="Vera Sans, DejaVu Sans, Liberation Sans, Arial, Helvetica, sans" font-size="10.00">RuntimeBaseError</text>
</a>
</g>
</g>
<!-- RuntimeBaseError&#45;&gt;PipelineRuntimeError -->
<g id="edge2" class="edge">
<title>RuntimeBaseError&#45;&gt;PipelineRuntimeError</title>
<path fill="none" stroke="black" stroke-width="0.5" d="M99.29,-46.5C109.06,-46.5 119.43,-46.5 129.54,-46.5"/>
<polygon fill="black" stroke="black" stroke-width="0.5" points="129.8,-48.25 134.8,-46.5 129.8,-44.75 129.8,-48.25"/>
</g>
<!-- ReduConfig -->
<g id="node5" class="node">
<title>ReduConfig</title>
<g id="a_node5"><a xlink:href="../api/tolteca.reduce.ReduConfig.html#tolteca.reduce.ReduConfig" xlink:title="The config for `tolteca.reduce`." target="_top">
<polygon fill="white" stroke="black" stroke-width="0.5" points="84,-93 15,-93 15,-74 84,-74 84,-93"/>
<text text-anchor="middle" x="49.5" y="-81" font-family="Vera Sans, DejaVu Sans, Liberation Sans, Arial, Helvetica, sans" font-size="10.00">ReduConfig</text>
</a>
</g>
</g>
</g>
</svg>
